<svg xmlns="http://www.w3.org/2000/svg" viewBox="0 0 385.19 372.17"><defs><style>.cls-1{fill:#2e3192;}</style></defs><title>bulb_1</title><g id="Layer_2" data-name="Layer 2"><g id="Objects"><path class="cls-1" d="M111.93,237c-.45-.84-.94-1.66-1.34-2.53A120.89,120.89,0,0,0,126.74,258a134.51,134.51,0,0,1-9.27-13.22,162.53,162.53,0,0,1-7.65-14.42c-4.52-9.71-7.68-19.24-10.39-27a12.14,12.14,0,0,0,.41-4.26c0-1.07,0-2.27,0-3.53s0-2.58,0-3.89.14-2.59.18-3.79.21-2.31.26-3.27c.15-1.91.22-3.21.18-3.31.07-1,.15-2,.22-3.05l.13-1.54.24-1.52c.16-1,.33-2,.5-3.06s.47-2.09.7-3.14c-.35,1.45-.73,2.89-.93,4.29s-.53,2.79-.65,4.21c.12-1.42.44-2.8.65-4.21s.58-2.84.93-4.29a98.1,98.1,0,0,1,18-38.07,91.93,91.93,0,0,1,35-27.17A105.91,105.91,0,0,1,171.46,98a107.72,107.72,0,0,1,10.72-2.32c3.77-.59,7.67-1.07,11.6-1.29,2-.13,3.94-.16,5.89-.21s3.9,0,5.81.1a86.89,86.89,0,0,1,10.91,1c1.71.19,3.34.57,4.91.89l2.29.47,2.16.58c1.39.41,2.72.71,3.92,1.13l3.3,1.15c1.17.37,2.29.88,3.43,1.35s2.29.91,3.4,1.46c-1.85-.89-2.82-1.24-3.76-1.67L234.5,100c-.59-.25-1.33-.48-2.29-.84l1.86.52c.62.19,1.21.42,1.81.62l3.56,1.24,3.41,1.44c.56.24,1.13.46,1.68.72l1.62.81c1.08.54,2.16,1,3.21,1.6l3.06,1.77c.51.3,1,.58,1.52.89l1.45,1,2.88,1.92a45.35,45.35,0,0,0-4.3-3.92c1.29.92,2.53,1.9,3.79,2.85a27,27,0,0,1,3.47,2.25c.65.48,1.36,1,2,1.51l2.05,1.74c.69.6,1.4,1.17,2.05,1.78l1.87,1.81c.61.58,1.18,1.13,1.72,1.63l1.38,1.44c-.46-.27-.08.3.67,1.25l1.35,1.65,1.48,2-.63-1.15A102.75,102.75,0,0,1,285.9,142.7,95.58,95.58,0,0,1,293,159.79a20.37,20.37,0,0,1,.73,3.34c.48,1.7.9,3.43,1.36,5.15s.71,3.48,1.07,5.22c-.48-.75.68,8.8-.18,3.8,1.43,7.85,1,16,.58,23.57a100,100,0,0,1-4.77,20.06l-.85,2.45-1.07,2.35c-.75,1.63-1.55,3.29-2.26,5.14a26.87,26.87,0,0,0-1.52,5.81c-.07.49-.14,1-.19,1.46a17.06,17.06,0,0,0-.1,1.93,5.64,5.64,0,0,0,1.4,3.6l.53.7.46.57.93,1.1c.62.71,1.25,1.41,1.88,2.09l3.77,4c2.51,2.65,5,5.28,7.36,8a50.31,50.31,0,0,1,3.26,4.09,11.61,11.61,0,0,1,1,1.69,1.65,1.65,0,0,1,.09,1.65,3,3,0,0,1-.4.78l-.23.38a3.22,3.22,0,0,1-.29.41,22,22,0,0,1-1.64,1.9,46.44,46.44,0,0,1-3.84,3.53l.64-.31c-3.78,3.21-7.62,6-11.75,8.91-2.07,1.44-4.23,2.86-6.49,4.46L279,290.06q-1.78,1.21-3.73,2.45c-3.5,2.67-7.89,5.69-11.71,8.4a66.8,66.8,0,0,0-8.24,6.45c-4.22,2.81-7.07,4.91-9.82,7.09s-5.44,4.37-9.07,7.65c1.11-.64-.64,1-2.07,2.48s-2.71,2.87-.81,1.29c1.3-1,2.25-1.73,3-2.37s1.44-1.14,2-1.65,1.2-1,1.92-1.51,1.58-1.15,2.76-1.87l-.22,0c10.42-7.47,21.84-13.74,33.09-20.82,2.81-1.76,5.61-3.62,8.38-5.53,2.47-1.67,5.37-3.38,8.18-5.13s5.69-3.58,8.51-5.59q2.1-1.5,4.19-3.19c.69-.57,1.38-1.18,2.07-1.78s1.36-1.29,2-2.05c.44-.54.83-1,1.31-1.62a21.7,21.7,0,0,0,1.5-2.54c.19-.45.36-.9.51-1.36l.23-.69.1-.34a2.29,2.29,0,0,1,0-.37,9.91,9.91,0,0,0-.06-1.44,9.81,9.81,0,0,0-.35-1.42,14.86,14.86,0,0,0-.57-1.38c-.23-.44-.45-.89-.7-1.33l-.61-1-.56-.81c-.74-1.05-1.5-2-2.26-3-3.07-3.74-6.27-7.15-9.41-10.58-1.56-1.71-3.12-3.42-4.52-5.09-.35-.41-.68-.82-1-1.22l-.27-.36-.1-.16a.5.5,0,0,1-.1-.37l.08-.72a21.27,21.27,0,0,1,1.49-5.63c.38-.94.85-1.93,1.33-3l1.5-3.23a17.58,17.58,0,0,0,.72-1.88l.66-1.88c.41-1.26.93-2.52,1.24-3.78.7-2.53,1.48-5.06,2-7.65A101.29,101.29,0,0,0,303.92,196a104.06,104.06,0,0,0-2.4-28.93c-.54-2-.88-3.8-1.19-5.51s-.72-3.32-1.1-5.07a109.91,109.91,0,0,0-11.38-24.21c-1.2-2-2.63-4-4-5.92-.66-1-1.45-1.9-2.18-2.84s-1.46-1.89-2.24-2.79l-2.37-2.67-1.18-1.32-1.25-1.24-2.49-2.47c-.83-.81-1.73-1.55-2.58-2.31l.66.61c-.91-.81-1.78-1.6-2.63-2.37l-2.6-2.14c-1.67-1.44-3.39-2.69-5.09-4A80.49,80.49,0,0,0,248.67,96a15.17,15.17,0,0,1-2-.75,17.06,17.06,0,0,0-2.57-1.33l-1.23-.57-1.46-.57-3.46-1.31a100.61,100.61,0,0,0-19-4.42,116.15,116.15,0,0,0-19.63-.68c-5.5.27-9.43.74-10.26.74l-3,.43a142.8,142.8,0,0,0-14.7,2.5,122.94,122.94,0,0,0-14.23,4.25,103.7,103.7,0,0,0-13.11,6,91.37,91.37,0,0,0-11.32,7.4c-1.38,1.27-2.85,2.62-4.22,4s-2.64,2.67-3.63,3.9c-2.34,1.94-2.44,2.67-4.94,5.32l-1.29,1.11L117.47,123c-.74.72-1.41,1.41-2,2a37.38,37.38,0,0,0-2.61,3.18c-1.14,1.55-1,1.81.57,0a118.94,118.94,0,0,0-11.21,18.89c-.67,1.41-1.19,2.89-1.78,4.33s-1.12,2.91-1.62,4.4c-.42,1.27-.82,2.23-1.17,3a16.82,16.82,0,0,1-1,2c-1,3.26-1.34,4.42-1.74,5.6a44.09,44.09,0,0,0-1.74,5.94,17.37,17.37,0,0,0-.79,3.57c-.1.92-.21,2-.32,3-.06.54-.11,1.1-.17,1.67s0,1.15-.06,1.72c-.22,4.63.22,9.23.13,10.25,0-.39-.05-.78-.07-1.18.1,4.19.19,7.67.49,11.14.08,1.74.35,3.44.61,5.24.13.89.25,1.81.45,2.75s.43,1.89.68,2.88c.6,2.79,1.52,5.52,2.36,8.3.47,1.37,1,2.73,1.49,4.11.26.68.5,1.37.77,2l.87,2a113,113,0,0,0,8.1,15.6l2.35,3.68c.82,1.2,1.68,2.37,2.51,3.54l1.26,1.76,1.34,1.68,2.66,3.33c1.9,2.1,3.66,4.27,5.64,6.18,1,1,1.9,2,2.88,2.9l3,2.7c.46-.19-3.55-3-3.29-3.66a124.49,124.49,0,0,0,14.38,12,85.9,85.9,0,0,0,16.75,9c1.07.44,2.25.95,3.29,1.41l1.41.63,1,.4c3.95,1.22,2.4.47,5.31,1.23l.32.46A35.34,35.34,0,0,1,173.8,294a38.12,38.12,0,0,0,5.21.72,23.17,23.17,0,0,1,3.25-.05c.07.41,4.59.09,4.38.38l0,0c.91-.05,1.54-.12,2.65-.13.42-.08,1.74-.22,3.48-.55l6-1.42,1.57-.51.77-.25a3.77,3.77,0,0,0,.55-.2,4.1,4.1,0,0,1,.53-.36c.11-.1.16,0,.23,0a2.21,2.21,0,0,1,.21.11l.39.27.17.28.49.51.46.44a5.66,5.66,0,0,0,.66.54c.3.2.32.07-.1-.43l1.85,2-.24-.22,1.84,2c.31.39.56.94-.11.5a36.9,36.9,0,0,1,3.41,3.44c-1.38-1.66-2.91-3.54-4.43-5.45-.75-1-1.51-1.93-2.26-2.87l-.55-.71-.27-.36c-.09-.11-.1-.14-.16-.22l-.55-.84a7.9,7.9,0,0,1,.66.65l1.14,1.28c.86,1,1.74,2,2.43,2.73,1.42,1.94,4.59,5.72,7.1,8.64a11.29,11.29,0,0,1,2.51,2.23c.41.9,1.5,1.55,2.44,2.86a48.89,48.89,0,0,1-3.85-3.9c-.06.5,2.94,3.45,3.89,4.58.56.41,3,3.07,4.7,4.59-1-.43,1.15,1.46,2,2.55,1.12,1.1,1.95,1.68,1.58,1.15.32,0-.79-1.08-1.71-2.05s-1.67-1.8-.75-1.2a28.77,28.77,0,0,0,3.76,3.68c.16-.15-.75-.88.2-.32a21.61,21.61,0,0,0,2.18,1.77c.36.27.7.53,1,.78a10.35,10.35,0,0,1,1,.74,8.55,8.55,0,0,1-.84-.5c-.34-.23-.54-.44-.79-.62.5.4,0,.14-1-.47s-2.29-1.55-3.54-2.51c-2.53-1.9-4.86-3.8-3.74-2.77-.21-.35,2.37,1.78,5,3.79l2,1.46c.7.46,1.27.86,1.85,1.21s1.15.62,1.43.76.29.1.13,0c-.79-.55-.44-.46-.12-.37.16.05.32.09.33.05s-.1-.14-.49-.41l-1-.47c-.33-.16-.54-.3-.82-.45-.42-.36-.76-.68-1-1a4.08,4.08,0,0,1-.51-.68c-.21-.34-.14-.46.18-.28.64.58.45.53-.18.17s-1.7-1.07-2.71-1.8c-2-1.45-4-3-2.95-2.07l-.76-.9a36.73,36.73,0,0,1,4.22,4c.13-.15,1.46.93,2.59,1.8l.4.37a21.57,21.57,0,0,0,2.05,1.38c.64.37,1,.49.52.05a11.52,11.52,0,0,1-1.35-.93,8.11,8.11,0,0,1-.69-.63c-.34-.34-.43-.52-.36-.6s.88.08,1.63.31,1.65.41,1.76.23-.46-.65-2-1.95c2.4,2.49-1.3-.29-3.84-2.69a22,22,0,0,0-2.82-3.44c-1.56-1.52-1-.79-1.4-1-.79-.93-2.33-2.64-1.94-2.6-1.4-1-1.74-2.07-3.22-3.46-1.34-1.2,0,.18-1-.64-1.83-2-4.38-4.73-5.78-6.34-.4-.76-1.8-2.89-.29-1.79,2.73,3-1.49-.73,1.45,2.31-.85-1.7,2.66,2.63,3.49,2.91a41,41,0,0,0-4.21-4.76l.26.38a60.18,60.18,0,0,1-5.5-6.1c.49.25-.05-.55,1,.51l-1.85-2.06c-.29-.24-.6-.48-.06.17a21.32,21.32,0,0,1-2.74-3.05,1.38,1.38,0,0,0-.16-.21c0-.05-.11-.14-.18-.17l-.33.08-1.93.55-2.44.73c-.82.23-1.66.56-2.54.72l-4.72,1a14.12,14.12,0,0,1-2,.26,37.41,37.41,0,0,0-4.4.2,20.5,20.5,0,0,0,2.83-.22l2.92-.31c1-.17,2.16-.41,3.25-.62s2.15-.41,3.11-.65l2.48-.74c1.58-.45,2.41-.7,1.66-.5-.24,0-.83.17-1.66.39l-2.68.74-3.59.72-2,.39c-.67.15-1.37.17-2.06.27l-4.06.44c-1.3.05-2.54.06-3.61.07s-2,.05-2.69,0a7.91,7.91,0,0,1-1.3-.21c-1.46-.13-3.24-.27-2.92,0-2.46-.35.79-.31-.94-.68,0,0,.12.14-.43,0l-1.62-.56c-1-.1-2-.26-3.14-.46s-2.25-.58-3.4-.87c-2.34-.56-4.59-1.43-6.57-1.9l2,.29c.41.06.85.14,1.34.24s1,.23,1.69.34l.41.21c.37,0,2.43.52,2.42.31-1.16-.38-2.24-.7-3.35-1s-2.2-.68-3.45-1c-.42-.21-.93-.44-1.25-.62,0,0,0,.07,0,.09-.75-.39-.66-.38-.34-.36l.18,0a28.9,28.9,0,0,0-5.38-2.39c-1.26-.54-2.59-1.18-3.85-1.79a19.53,19.53,0,0,1-3.32-1.95c-1.16-.61-.16,0-1.61-.73a117.25,117.25,0,0,1-9.72-7.77c-.68-.37-1-.59-1.09-.51s.2.44.84,1.11c-.94-.74-1.77-1.63-2.66-2.44,1.45.85.3-.4-.8-1.61s-2.08-2.48-.6-1.44a30.36,30.36,0,0,0-3.58-3.73c-.27,0-.69,0-2.36-1.95a52.74,52.74,0,0,1-3.32-4.48c-.25-.68.48.1.54-.11a15.22,15.22,0,0,1-2.46-3.32,18.33,18.33,0,0,0-2-3.39c-.83-1-1.86-2.68-2.8-4A10.28,10.28,0,0,0,113,240C111.23,237,111.48,236.81,111.93,237Z"/><path class="cls-1" d="M172.18,230.31a15.69,15.69,0,0,1-1.43-1,35,35,0,0,0,8.36,4.09c3.16,1.15,6.51,2.14,9.91,3.11-3.63-1.29-7.35-2.64-10.82-4.18a44.27,44.27,0,0,1-4.82-2.49,15.4,15.4,0,0,1-3.44-2.74,6.79,6.79,0,0,1-.51-.64c-.15-.2-.21-.4-.35-.58s-.16-.36-.21-.55-.14-.34-.12-.56a7.47,7.47,0,0,1,.36-3.13,56.28,56.28,0,0,1,3.71-7.78,7.19,7.19,0,0,0,2.63-1.19c1.2-.72,2.7-1.52,4.15-2.21a24.72,24.72,0,0,1,3.9-1.35,8,8,0,0,0,1.74-.45,9.57,9.57,0,0,1,6.31.49,9.9,9.9,0,0,0-4.35-.87,9.9,9.9,0,0,1,4.35.87l1.22.67a13.84,13.84,0,0,1,1.22.88,8.25,8.25,0,0,1,1.89,1.81,4.53,4.53,0,0,1,.76,4.12,7.09,7.09,0,0,1-3,4,4.06,4.06,0,0,1-1.94.66,1.7,1.7,0,0,1-1.25-.43,4.78,4.78,0,0,1-1.16-1.82,28,28,0,0,1-.88-3.35,23.6,23.6,0,0,1-.49-7.08,11.35,11.35,0,0,1,2.08-5.78,10.9,10.9,0,0,1,4.85-3.56,19.8,19.8,0,0,1,6.11-1.3,28.68,28.68,0,0,1,8.57.79,23.16,23.16,0,0,1,4.34,1.5,14,14,0,0,1,1.85,1c.28.18.51.36.73.53a1.58,1.58,0,0,1,.14.16.56.56,0,0,1,.07.66,1,1,0,0,1-.23.22l-.43.28c-.21.16-.54.33-.8.5l1.42.74a1.11,1.11,0,0,1,.09.4h0s0,.08,0,0l0-.19,0-.07.05-.17A1.64,1.64,0,0,1,217,204l.08-.15.12-.24a3,3,0,0,1,.24-.4s0,0,0,0,0,0-.09-.09-.1-.12-.15-.18l-.19-.26a11.37,11.37,0,0,1-1.38-3.17A18.77,18.77,0,0,1,215,193a14.62,14.62,0,0,1,.85-4,12.94,12.94,0,0,0-.65,2.1,16.56,16.56,0,0,0-.33,2.36,12.56,12.56,0,0,1,1.74-7.68,6.9,6.9,0,0,1,2.37-2.19,6.5,6.5,0,0,1,3.07-.84c-.39-.11-.62-.2-1-.29-.19,0-.41-.06-.72-.08a5.73,5.73,0,0,0-1.16.13,7,7,0,0,1,2.35-.33,5.52,5.52,0,0,1,2.22-.17,11.17,11.17,0,0,1,3,.81,23.26,23.26,0,0,1,5.28,3.28c-.71-.21,1.08,1.45,2.32,3.16l-.36-.79a22.44,22.44,0,0,1,1.74,2.46,9,9,0,0,1,1,2.28c0,.07,0,.08,0,.12v0h.38a3,3,0,0,1,.51.07c.18,0,.23,0,.35.05a1.28,1.28,0,0,1,.31.11c.13.07.09,0,.15.06l.11.09a.45.45,0,0,1-.07-.07l0,0v0h0c-1.55-3-.43-.82-.78-1.48l-.13.06a4.42,4.42,0,0,1-.48.21c-.29.11-.49.11-.48.13-.06.59-.22.51.16.11,0,0-.11-.13-.21-.42a4.6,4.6,0,0,1-.28-1.06,12.2,12.2,0,0,1-.07-2.79,21.56,21.56,0,0,1,1.26-5.61,6.88,6.88,0,0,1,1.07-2,15.36,15.36,0,0,1,3.6-5.35c0,.3,1-.4,1.7-.62a2,2,0,0,1,.75-.17c.08,0,0,.09-.53.36a3.9,3.9,0,0,1,2.42-.6,6.79,6.79,0,0,1,2.85,1,18.11,18.11,0,0,1,2.89,2.18c.51.44.84.84,1.27,1.24s.76.84,1.09,1.3a14.18,14.18,0,0,1,1.78,6,26.79,26.79,0,0,1-.41,6.91,83.66,83.66,0,0,1-4.24,14.39c-1.78,4.84-3.81,9.68-5.4,14.84-.4,1.29-.75,2.62-1,4a18.69,18.69,0,0,0-.42,4.37,26.79,26.79,0,0,0,1.91,8.15l0-.55a61.54,61.54,0,0,0,4.93,9.68c1.89,3.12,3.92,6.35,6.13,10.18,3.8,5.07,9,12.33,11.18,13.92,2.06,3,3.58,5.05,5.07,7.1a84,84,0,0,1,4.86,7.25c-.26-.94.73.54,1.54,1.95l.56,1c.16.28.29.49.38.62s.2.12-.07-.72a22.7,22.7,0,0,0-2-4.66,42.87,42.87,0,0,1-2-3.87l-.07.18c-4.74-8.28-9.9-16.07-14.64-24-2.37-4-4.65-8-6.64-12-1-2-1.91-4.07-2.68-6.1a31.5,31.5,0,0,1-1.69-5.94l-.18-.93-.09-.88a4.44,4.44,0,0,1,0-.8,3.26,3.26,0,0,1,0-.81,23.82,23.82,0,0,1,.9-4c.88-2.88,2.08-5.9,3.33-9,2.48-6.15,5.25-12.5,6.84-19.44a43.13,43.13,0,0,0,.94-5.84,28.42,28.42,0,0,0-.07-6.31,20.9,20.9,0,0,0-1.84-6.46,19.75,19.75,0,0,0-4-5.48,22.61,22.61,0,0,0-5.11-3.83,13.39,13.39,0,0,0-6.9-1.66,12.26,12.26,0,0,0-6.56,2.38,17.71,17.71,0,0,0-4,4.25,46.25,46.25,0,0,0-4.24,7.5,31.25,31.25,0,0,0-1.09,4.85,21.07,21.07,0,0,0-.1,5.59,11.89,11.89,0,0,0,.91,3.38,7.77,7.77,0,0,0,1.23,1.93,6.44,6.44,0,0,0,2.22,1.69,6.59,6.59,0,0,0,2.73.62,6.73,6.73,0,0,0,1.22-.09,7.72,7.72,0,0,0,1.07-.23,11.15,11.15,0,0,0,1.76-.68l.2-.1.1-.05.05,0,.13-.08a6.17,6.17,0,0,0,1-.72,4,4,0,0,0,.77-.91,4.66,4.66,0,0,0,.53-1,7.9,7.9,0,0,0,.27-1,4.79,4.79,0,0,0,.09-.78,6.31,6.31,0,0,0,0-.74l-.06-.59a6.48,6.48,0,0,0-.2-1.06l-.13-.49-.14-.42a15,15,0,0,0-1.39-2.92,26.28,26.28,0,0,0-3.47-4.57,27.6,27.6,0,0,0-9-6.51l.65.33a18.33,18.33,0,0,0-11.32-1.83,15,15,0,0,0-9.74,6.61c.06,0-.09.31-.28.66s-.38.79-.5,1.08a3.38,3.38,0,0,0-.57,1,15.55,15.55,0,0,0-.89,2.35,24,24,0,0,0-.84,7.75,26.94,26.94,0,0,0,2.27,9.72,15.45,15.45,0,0,0,3.33,4.85,8.31,8.31,0,0,0,3.14,1.93,6.82,6.82,0,0,0,4.17,0l.43-.14.22-.14a19.73,19.73,0,0,0,2.56-1.93,10.83,10.83,0,0,0,2.23-2.81,6.87,6.87,0,0,0,.4-5.86,10,10,0,0,0-2.54-3.57,12.63,12.63,0,0,0-1-.87l-.51-.43c-.69-.43-1.41-.85-2.14-1.21a34.15,34.15,0,0,0-10.86-3.53,33.69,33.69,0,0,0-11.42,0,20.87,20.87,0,0,0-10.72,5.2,17.22,17.22,0,0,0-3.6,4.93,19,19,0,0,0-1.67,5.45,25.2,25.2,0,0,0,.95,8.75,7.85,7.85,0,0,0,.5,2.52,28,28,0,0,1,.87,2.76,11.17,11.17,0,0,0,2.07,5.27,8.39,8.39,0,0,0,3.62,2.82c1,.4,1.67.41,1.66.34s-.16-.13-.46-.27a10.76,10.76,0,0,1-1.34-.65,9.44,9.44,0,0,0,6,.45,12.86,12.86,0,0,0,4.72-2.36,14.15,14.15,0,0,0,5.12-8,12.75,12.75,0,0,0,.05-4.4,12.35,12.35,0,0,0-1.56-4.09c-.65-1-1.22-1.74-1.66-2.39s-.81-1.1-1.13-1.57a47.33,47.33,0,0,0-3.86-2.88,14.19,14.19,0,0,0-1.61-.94,15.83,15.83,0,0,0-3.17-1.23,5,5,0,0,0-1.08-.28,9.74,9.74,0,0,0-2-.22,14.32,14.32,0,0,0-2.57.12l-1.38.2-1.37.35a24.19,24.19,0,0,0-4.8,1.93l-2.54,1.47a8.46,8.46,0,0,1,.76-.52,43.72,43.72,0,0,0-7.09,4.8,27.36,27.36,0,0,0-2.92,2.78,26.11,26.11,0,0,0-2.74,3.46A21.93,21.93,0,0,0,160,221a11.77,11.77,0,0,0-.37,2l-.09,1.07a8.17,8.17,0,0,0,0,1.1c0,.37,0,.74.08,1.11l.23,1.12a12.24,12.24,0,0,0,.72,2.14,15.61,15.61,0,0,0,5.22,6.22,31,31,0,0,0,6.07,3.44,86.62,86.62,0,0,0,11.89,4c3.84,1.05,7.53,1.94,10.92,2.92.26-.39-3-.72-3.07-1.32,1,.27,2,.56,3,.86s2,.62,2.92,1l2.77,1.06c.92.37,1.78.89,2.66,1.33a51.74,51.74,0,0,1,5.16,3.05c.87.5,1.65,1.18,2.48,1.76s1.66,1.15,2.45,1.81c1.08,1,2.35,2.32,2.78,2.85,1.88,1.84,1.31.87,2.71,2.19l-.07.47a12.51,12.51,0,0,1,1.44,1.2c.38.41.71.82,1,1.22a15.4,15.4,0,0,0,2.24,2.49c.22,0,.91.69,1.55,1.4-.27.32,2,2.13,1.66,2.29h0a9.94,9.94,0,0,1,1.1,1.29c.41.38,2.58,2.26,4.68,4.27s4.22,4,4.64,4.43l.28.46c1,1.21,1.66,1.54,1.14.78l1.2,1.53-.16-.16,1.18,1.53c.2.31.29.75-.19.43a17.36,17.36,0,0,1,2.24,2.6c-1.69-2.57-3.75-5.77-5.43-8.5.93.93,2.26,2.89,3.17,4,.84,1.51,2.82,4.39,4.35,6.67.39.45,1,.49,1.69,1.69.15.72,1,1.2,1.47,2.24a25.53,25.53,0,0,1-2.46-3c-.17.41,1.77,2.69,2.33,3.58.4.31,1.88,2.4,3,3.6-.73-.32.62,1.16,1.07,2,.64.88,1.21,1.33,1,.9.51,0-2.52-3.53-1.25-2.61a17,17,0,0,0,2.22,2.94c.18-.13-.37-.71.27-.27a20.33,20.33,0,0,1,2.13,2.61,5.9,5.9,0,0,1-.74-.87c.52.65-1.18-.86-2.85-2.35s-3.2-3-2.48-2.17c-.09-.28,1.61,1.38,3.31,3a30.7,30.7,0,0,0,3,2.71c-.56-.85.76.31.15-.55l-.94-.74c-.85-1.16-.93-1.85-.49-1.56.75.94-.62-.14-2-1.28s-2.71-2.36-2-1.63l-.44-.71a15.56,15.56,0,0,1,2.58,3.17c.17-.13,1,.73,1.66,1.43l.19.29c.72.71,1.58,1.83,1.38,1.14-3.76-4.53,4.14,1.58.63-2.89,1.14,2.14-.89-.31-2.52-2.21a10.06,10.06,0,0,0-1.55-2.79c-1-1.19-.7-.6-1-.76-.46-.74-1.4-2.09-1.07-2.07-1-.77-1-1.64-2-2.72-.89-.92-.05.15-.72-.47-1.15-1.54-2.76-3.68-3.67-4.91-.18-.6-1-2.27.13-1.47,1.76,2.31-1.15-.5.78,1.82-.38-1.35,1.77,2,2.43,2.2a20.09,20.09,0,0,0-2.67-3.69l.14.3a34,34,0,0,1-3.57-4.67c.38.17.06-.45.76.35l-1.22-1.57c-.21-.16-.42-.32-.09.15a8.34,8.34,0,0,1-1.59-2A44.22,44.22,0,0,0,236,271.3c-1.82-1.83-3.68-3.53-3.51-3.46-.95-1.07-.95-1.54-2.06-2.41-.06,0,.55.58,1.41,1.48l3.15,3.22c2.21,2.32,4.27,4.5,3.64,3.79a82.36,82.36,0,0,0-5.93-6.35c-1.39-1.45-2.87-2.8-4-3.9a20.64,20.64,0,0,1-2-2.09c-.77-.74-1.71-1.61-1.67-1.29-1.21-1.33.65.1-.13-.93,0,0,0,.15-.28-.14l-.69-1.05a47,47,0,0,1-3.7-3.17,29,29,0,0,0-4-3,18.92,18.92,0,0,1,3.39,1.69l.19.29c.26.11,1.45,1.12,1.56.93a20.19,20.19,0,0,0-4.11-3.27c-.24-.26-.52-.56-.7-.78,0,0,0,.06,0,.08-.41-.49-.34-.46-.12-.38a.3.3,0,0,1,.13,0c-.25-.6-1.81-1.53-3.57-2.6-.86-.57-1.85-1.05-2.78-1.55a23.16,23.16,0,0,1-2.48-1.49c-.9-.4-.12,0-1.28-.39-1.5-.81-2.74-1.58-4.07-2.2s-2.75-1.15-4.44-1.78c-1.14-.07-1.25,0,0,.64l-2.52-.8c2.5,0-4.6-1.9-1.87-1.88a17.1,17.1,0,0,0-3.66-1c-.19.13-.48.34-2.25-.12-2.4-.88-1.84-.64-3.79-1.42-.41-.35.34-.22.31-.42-3.15-.62-2.55-1.23-5.34-2.13-.88-.27-2.16-.72-3.2-1.11s-1.88-.68-2-.52C171.62,230.74,171.85,230.45,172.18,230.31Z"/><path class="cls-1" d="M249,343.16l.63-.19a16.1,16.1,0,0,1-6.91,1.18,14.71,14.71,0,0,0,8.21-.48,7.72,7.72,0,0,0,4.91-4.51c1.12,1.13,5.12-.71,4.95-1.08.57-.74,1.15-1.44,1.75-2.11-.43.45-.84.91-1.26,1.38.42-.47.83-.93,1.26-1.38a36.34,36.34,0,0,1,6.32-5.6c2.42-1.67,5-3.24,7.65-4.84,2.92-1.79,10.47-7.19,13.47-9.06l1.29-.84-1.5.85c1.42-1.65,2.68-3.17,4-4.56a3.66,3.66,0,0,0-1.37.18l.83-.49c.28-1,1.84-2.29,2.4-3.1.05.38.66-.05,1.2-.43h-.34c2-1.5,4-3.59,5.7-5a1.08,1.08,0,0,1,.67-.28l1.42-1.62c.17.43,1.57-.92,1,0,.84-1.46,2.24-2.35,3-3.8a57.2,57.2,0,0,0,10.55-13.51l-.21,0a18.75,18.75,0,0,0,1-2.86,21.67,21.67,0,0,1,1.2-3.13,8,8,0,0,0-.3-2.92c-.31-.85-.89-1.38-1.48-1.36a2.52,2.52,0,0,0-1.57-1,11.77,11.77,0,0,0-1.74-.2c.13.26-.27.31-.6.36a2.27,2.27,0,0,0-.43.1c-.09.05-.07.12.14.25.76.83.88.3,1.08.93l.07-.13a1.75,1.75,0,0,1,.67,1.25,2,2,0,0,1-.37,1.18c-.06,0-.31.58-.55,1s-.51.84-.8,1.27c-.59.88-1.28,1.77-2,2.66-1.52,2.72-4.15,5.16-6.43,7.68L299.19,297a3.88,3.88,0,0,1-1.78,1c-2.08,2.11-5.05,4.45-7.48,6.78l.14-.09c-1.33,1.19-2.66,1.68-4,2.84.08.09-.12.27-.18.4-.58-.26-7.28,7.37-8,7.45-.13.13-.26.27-.41.4-3.09,2-6.85,3.39-9.33,5.34-.39.63-.86,1.29-1.15,1.89-.6.12-.39.59-1,.93-2.08,0-2.64,1-1.65.85-1.12,1-2.32,1.79-3.3,2.59l-1.22,1.28a.94.94,0,0,1-1,.32c-.9.89-.79.43-1.91,1.11-.49-.15-2.27,2.42-2.66,2.5l.15-.17c-1.29.76-2.54.6-3.75,1.24a45.05,45.05,0,0,1-5.13,2.17,7.35,7.35,0,0,1-4.07.36c-.1.42.46,0,.43.57a3.27,3.27,0,0,1-1.68-.9,12,12,0,0,1-1.21-1.54,1.87,1.87,0,0,1,0-.84c-.08-.45-.31-.1-.44-.41l.33-.22c-.46-.22.2-.61-.08-.93-.16,0-.23-.1-.24-.24.41-.11-.13-.4.26-.45h0a.35.35,0,0,1,0-.22,4.13,4.13,0,0,1-.76-.83,6.47,6.47,0,0,1-.63-1.06l.09-.07c0-.25-.23-.44-.35-.31l.13-.31v0l.12-.31a.4.4,0,0,1,.41.11.52.52,0,0,1,.08-.57,17.36,17.36,0,0,0-1.54,1.37c-.1-.28.22-.67.27-.93.35-.23.83-.71,1.22-1,0-.1-.33-.41,0-.51.33.08.14-.24.46-.26,0,.28-.18.42-.32.61.35.16.5-.33.71-.39-.05-.15.32-.4.43-.67.19.34.31,0,.57.05s.15-.28,0-.33c-.22-.34-.71.34-.82-.14.2.09.43-.22.57-.37-.14-.17-.22,0-.25-.29.22-.1.27-.47.51-.38,0,.08-.1.11-.16.15.14-.08,0,.44-.05,1s0,1,0,.79c-.11,0-.07-.52,0-1s.3-1,.21-.91-.12-.41-.33-.34l0,.35a.48.48,0,0,1-.62-.29c.21-.13.14.36.14.85s0,.91,0,.7l-.17,0c0-.22.23-.59.5-.54-.15-.16,0-.37.07-.54h.07c.09-.2.33-.33.06-.48-.44.37-.65-.17-.82-.76s-.3-1.23-.9-.84c.77,0,.12.48-.26.94a1,1,0,0,0-.92.17c-.23.32,0,.29,0,.42-.23.08-.55.35-.71.15.06.43-.47.27-.58.65s.12.05.12.33a12.73,12.73,0,0,0-.84,1.29c-.27,0-.85.34-1.05-.13.35-.72.43.51.67-.27-.64.08.19-.71-.09-1a1.55,1.55,0,0,0-.72,1.08l.1-.06a3.34,3.34,0,0,1-.65,1.54c-.15-.15-.34,0-.3-.31a5.18,5.18,0,0,0-.17.56c0,.09.08.17.16,0a.81.81,0,0,1-.2.73,3.38,3.38,0,0,0,.2,1.56c.2.74.5,1.39.43,1.35.07.38-.22.53,0,.88a17.1,17.1,0,0,0-.46-1.79c-.19-.91-.26-1.81-.26-1.53a5.38,5.38,0,0,0,.35,2.5c.34,1.11.89,2.06.75,2.23.11.28.26.6.43.46.1.48-.42,0-.45.4,0,0,.08-.07.12,0l-.09.43c.6.58.89,1.77,1.74,2.16a2.46,2.46,0,0,1-1.28-.37l0-.14c-.09,0-.39-.39-.56-.27a2.42,2.42,0,0,0,.35.7,2.71,2.71,0,0,0,.62.52,2.45,2.45,0,0,1,0,.35l.06-.06c0,.23,0,.23-.11.22h-.06c-.15.33.32.69.85,1.05a7,7,0,0,1,1.54,1.1c.31.09.09-.07.47,0a6.9,6.9,0,0,0,1.12.95,6.46,6.46,0,0,0,1.34.75c.42-.15.46-.24.12-.62a8,8,0,0,0,.78.27c-.44.26-.09.49.28.72s.74.41.26.72a2,2,0,0,0,1.3.17c.06-.17.14-.45.74-.46.86.21.64.1,1.36.26.19.2-.05.31,0,.49,1-.41,1,.33,2,.09.6-.21,1.78-.58,1.67-1C248.91,342.57,249,342.84,249,343.16Z"/><path class="cls-1" d="M265.74,348.43l.45-.21a30,30,0,0,1-4.49,2.14c3.86-.46,8.23-1.72,9-5.59,1.06,1.12,4.39-.23,4.24-.6.23-.32.46-.63.71-.94l.4-.48.3-.39-1,1.16,1-1.16a20.93,20.93,0,0,1,5.4-4.31c2.09-1.25,4.38-2.36,6.7-3.5,2.58-1.27,9.27-5.31,11.95-6.7l1.14-.62-1.33.61c1.25-1.37,2.35-2.65,3.48-3.8a3.22,3.22,0,0,0-1.23,0l.74-.36c.22-.94,1.6-1.93,2.07-2.63.06.37.6,0,1.07-.27l-.31,0c1.75-1.18,3.49-2.94,4.95-4.15a.85.85,0,0,1,.6-.2l1.2-1.4c.19.42,1.38-.74.92.05.66-1.31,1.89-2.05,2.44-3.37a38.76,38.76,0,0,0,4.56-5.7,23,23,0,0,0,3.1-7l-.19.06a11.89,11.89,0,0,0,.16-2.66,15.75,15.75,0,0,1,.14-2.85,13.09,13.09,0,0,0-1-2.29,2.26,2.26,0,0,0-1.44-1.21c-.72-1.3-1.44-1.54-2.49-2.44-.06.28-.38.12-.66,0s-.6-.28-.43.14c.1,1,.54.73.54,1.59l.11-.11a7.26,7.26,0,0,1,.6,4.08,12.78,12.78,0,0,1-1.49,4.19c-.59,2.21-2.47,4.32-4.13,6.42-1.77,2.33-4,4.81-5.67,6.84-.39.51-1,.53-1.53.72-1.7,1.74-4.23,3.56-6.31,5.42l.12-.07c-1.13.95-2.3,1.23-3.43,2.14.08.1-.09.23-.14.35-.28-.17-1.83,1.32-3.42,2.83s-3.24,3.05-3.55,3.05c-.11.1-.23.21-.36.31-2.72,1.48-6,2.21-8.23,3.71-.33.55-.75,1.1-1,1.63-.53,0-.34.5-.86.75-1.86-.25-2.32.63-1.46.59-.92.77-2,1.32-2.87,1.93-.38.35-.74.69-1.11,1.06a.79.79,0,0,1-1,.19,1.88,1.88,0,0,1-.81.54l-.38.12a1.12,1.12,0,0,0-.26.11,2.5,2.5,0,0,0-.3.14c-.42-.2-1.87,2.09-2.21,2.15l.12-.15c-1.11.64-2.26.4-3.32,1-3.06,1.54-6.15,3.65-9,4.82.16.42.56-.37.85.13a14.22,14.22,0,0,1-2.6.81l-1.29.28c-.19,0-.46.11-.56.12a2.47,2.47,0,0,1-.3.05.94.94,0,0,1-.23-.43c-.08-.15,0,.23-.11.19l0-.42c-.12.36,0-.47,0-.29s-.09.21-.1.19c.2-.47,0,0,.16-.4v0s0,0,0-.06a2.93,2.93,0,0,1-.65.75,3.06,3.06,0,0,1-.93.5l.07-.09c-.05-.06-.4.12-.47.24,0-.05,0-.1,0-.15h0v-.15a1.6,1.6,0,0,1,.47-.27c-.17,0-.27,0-.18-.11a5,5,0,0,0-1,1.49c-.22,0-.07-.41-.13-.51.27-.36.53-.79.77-1.05,0,0-.54.09-.29-.09s0-.12.28-.25c.17.06.07.16,0,.26.42-.14.32-.28.45-.35-.13,0,0-.17,0-.26.38.05.27-.06.48-.08.06,0-.08-.09-.22-.09-.39-.1-.31.22-.72.09.21,0,.18-.16.2-.25-.22-.05-.19,0-.37-.07.08-.1-.13-.3.11-.29.05,0,0,.07,0,.1s.3.25.6.42a1.14,1.14,0,0,0,.57.2,1.22,1.22,0,0,1-.67-.3c-.25-.2-.44-.5-.47-.45s-.34-.21-.45-.13l.21.2a.78.78,0,0,1-.65,0c.07-.14.35.17.65.37s.59.31.49.24l-.12.06c-.14-.06-.2-.27,0-.3a.32.32,0,0,1-.3-.25l0,0c-.07-.12,0-.24-.27-.27-.08.29-.59.08-1.09-.23s-1-.72-1.21-.2c.6-.29.41.28.34.69a1.12,1.12,0,0,0-.7.52c0,.29.14.17.25.22-.15.15-.32.47-.58.46.28.19-.29.41-.23.69s.15,0,.28.09c-.1.38-.17.93-.23,1.26-.27.23-.73.9-1.06.76,0-.69.56,0,.49-.68-.57.54-.14-.53-.53-.52a1.37,1.37,0,0,0-.18,1.16l.07-.11a3.43,3.43,0,0,1,.17,1.43c-.18,0-.24.27-.37.05a2.7,2.7,0,0,0,.16.48c.07,0,.15,0,.12-.11a.71.71,0,0,1,.29.59c-.07.09.5.51,1.2.64a11.91,11.91,0,0,0,1.31.07c.33,0,.26.34.68.17.06-.08-.82.06-1.65-.09a7.53,7.53,0,0,1-1.28-.48c0,.09.25.29.63.45a4,4,0,0,0,1.45.25c1.08,0,2-.35,2.1-.16.25,0,.55-.12.54-.32.39,0-.21.42.05.56,0,0,0-.1.09-.11l.25.22c.71-.43,1.72-.28,2.35-.91a2.6,2.6,0,0,1-.8,1.07l-.1-.09c-.06.08-.47.25-.46.45a2,2,0,0,0,1.4-.47,1.57,1.57,0,0,1,.31.08l0-.08c.2.07.19.1.14.19a.14.14,0,0,1,0,.06c.24.24.69,0,1.13-.31a2.65,2.65,0,0,1,1.25-.63c.18-.17,0-.1.2-.31a12.2,12.2,0,0,0,2.15-.35c.13-.34.1-.44-.29-.55l.58-.18c-.2.85,1.31.09,1.05,1a1,1,0,0,0,.84-.32.47.47,0,0,1,.26-.64c.64-.07.47-.07,1-.11.21.14.09.3.19.45.54-.61.82.12,1.44-.27.37-.27,1.13-.73,1-1.08C265.5,347.87,265.64,348.12,265.74,348.43Z"/><path class="cls-1" d="M266.71,361.94l.57-.1a18.14,18.14,0,0,1-5.88.63,14.73,14.73,0,0,0,7,.25,6.57,6.57,0,0,0,4.76-3.53c.89,1.28,4.71.29,4.59-.1.58-.6,1.2-1.15,1.81-1.69l-1.29,1.08,1.29-1.08c3.89-3.33,8.66-5.59,13.62-7.72l2.73-1.25c1.13-.52,2.45-1.15,3.74-1.78,2.59-1.27,5.18-2.62,6.65-3.28l1.26-.62-1.46.6c1.44-1.37,2.71-2.66,4-3.83a3.47,3.47,0,0,0-1.29,0l.8-.36c.31-1,1.82-2,2.35-2.68,0,.37.63,0,1.14-.28l-.32,0a65.27,65.27,0,0,0,5.41-4.33,1,1,0,0,1,.63-.23l1.3-1.48c.19.44,1.46-.83,1,0,.74-1.38,2-2.22,2.63-3.61a32.92,32.92,0,0,0,4.65-6.37,19.75,19.75,0,0,0,2.49-7.87l-.18.1a8.37,8.37,0,0,0,0-1.42l-.24-1.41c0-.46-.22-.93-.28-1.42,0-.24-.06-.49-.07-.75s-.08-.52-.1-.8c-.77-1.5-2-3.31-3.08-3.35-.1-.17-.2-.33-.3-.47s-.24-.25-.36-.36a8.81,8.81,0,0,0-.67-.6c-.41-.38-.94-.67-1.53-1.18,0,.3-.39.11-.69-.05s-.62-.32-.44.11c.16,1.16.6.84.74,1.78l.11-.11a12.92,12.92,0,0,1,1.47,4.85,11,11,0,0,1-.68,4.62c-.26,2.28-1.93,4.62-3.55,6.86a91.57,91.57,0,0,1-5.81,7.2c-.42.53-1,.56-1.59.76-1.82,1.8-4.53,3.66-6.8,5.52l.13-.07c-1.24.95-2.47,1.21-3.7,2.11.07.1-.12.24-.18.35-.28-.18-2,1.3-3.78,2.77s-3.65,2.95-4,2.93l-.4.31c-2.94,1.3-6.66,2-9.05,3.51-.39.56-.87,1.12-1.16,1.65-.57,0-.4.51-1,.75-1.92-.28-2.45.59-1.55.57a34.12,34.12,0,0,1-3.1,1.85l-1.22,1a.79.79,0,0,1-1,.1c-.9.67-.75.26-1.84.68-.43-.24-2.29,1.88-2.64,1.89l.14-.14c-1.24.49-2.35.09-3.51.51-3.29,1-6.7,2.09-9.23,1.68-.06.44.57-.07.58.51a9.41,9.41,0,0,1-4-1.72,1.75,1.75,0,0,1-.33-.75c-.27-.37-.33,0-.57-.18l.2-.34c-.57-.05-.26-.78-.7-.92-.12.1-.26,0-.37-.14.29-.3-.38-.33-.09-.58l0,0c-.07-.08-.14-.1-.17-.24s-.68-.2-1.29-.41-1.19-.53-1.34-.56v-.13c-.19-.25-.54-.19-.49,0a2.91,2.91,0,0,1-.2-.35l0,0-.18-.36a.31.31,0,0,1,.33-.25.85.85,0,0,1-.49-.53c.1.66.17,1.57.23,2.33-.28-.14-.39-.67-.57-.91a8.44,8.44,0,0,0-.24-1.81c-.08-.1-.54,0-.49-.32.22-.28-.16-.29-.06-.61.28.17.33.44.45.7.31-.22-.08-.73-.09-1-.15,0-.29-.57-.52-.85.4,0,.11-.35.2-.62s-.24-.3-.32-.17c-.4.09.15.95-.36.83.14-.16-.11-.56-.22-.78-.21.09-.09.22-.34.16-.07-.28-.43-.45-.29-.68.08,0,.09.15.12.22-.12-.32,2.08,1.21,1.78.83-.12.21-2-1.34-1.93-1.12s-.43,0-.4.24l.34.13c.06.32-.24.59-.43.55-.17-.49,2,.77,1.59.44l0,.21c-.2-.11-.52-.52-.38-.8-.2.09-.37-.11-.53-.28v-.08c-.19-.16-.27-.46-.47-.22.56,1.19-2.39,0-2,1.27.22-.7.53,0,.81.48a1.14,1.14,0,0,0-.18.89c.18.32.24.13.38.14,0,.23.09.6-.16.67.39.12,0,.49.28.75s.11-.08.33,0c.17.43.44,1,.58,1.32-.13.24-.27.82-.74.74-.32-.63.65-.07.21-.65-.3.53-.47-.48-.87-.41-.12.33.14.74.4,1.05l0-.11a2.08,2.08,0,0,1,.65,1.29c-.2,0-.23.24-.41.05.07.14.16.28.25.43s.17,0,.13-.11a.58.58,0,0,1,.33.55c-.06.08.46.52,1,.86a7.6,7.6,0,0,1,1.07.67c.22.26.08.51.46.62.09,0-2.69-2.11-2.34-1.82,0,.2.82.85,1.64,1.44s1.67,1.07,1.63,1.28c.21.15.48.31.56.12.28.35-.35.21-.22.56,0,0,0-.1.11,0l.08.39a4.63,4.63,0,0,1,1.07.6,1.82,1.82,0,0,0,1.15.46,2.07,2.07,0,0,1-1.21.23v-.14c-.09,0-.47-.14-.57,0a1.72,1.72,0,0,0,1.21.63,2.92,2.92,0,0,1,.17.27.26.26,0,0,1,0-.08c.08.19.06.2,0,.24l-.05,0c0,.32.47.47,1,.58a3.45,3.45,0,0,1,1.56.41c.27,0,.05-.09.39-.12l1.09.59a10.44,10.44,0,0,0,1.2.41c.33-.21.35-.31,0-.62a5.52,5.52,0,0,0,.68.15c-.7.65,1.27.71.53,1.35a1.26,1.26,0,0,0,1.07.1c0-.17.1-.45.6-.47l1.13.29c.16.21,0,.32,0,.49.86-.39.85.4,1.7.23.52-.16,1.55-.38,1.49-.77C266.63,361.34,266.7,361.62,266.71,361.94Z"/><path class="cls-1" d="M290.12,370.92l.39.07a14.18,14.18,0,0,1-4-.75,9.81,9.81,0,0,0,4.51,1.9,4,4,0,0,0,4-1.83,2.33,2.33,0,0,0,1.77,1.43c.77.21,1.5.18,1.5,0a16.11,16.11,0,0,1,1.59-1c-.37.19-.74.37-1.11.59.37-.22.74-.4,1.11-.59,3.35-1.89,7.09-2.62,11.06-3.91a39.39,39.39,0,0,0,4.94-2.22c1.91-1,3.77-2.18,4.83-2.79.31-.18.61-.37.91-.58l-1.08.56c.89-1.24,1.6-2.43,2.32-3.51a2.8,2.8,0,0,0-1.07,0c.19-.11.38-.22.56-.34,0-.85.9-1.79,1.11-2.44.16.31.54,0,.85-.32H324a22.85,22.85,0,0,0,2.88-4.19.59.59,0,0,1,.44-.27c.17-.46.32-.94.47-1.4.35.31.87-.92.82-.16,0-1.22.74-2.13.57-3.3a17.72,17.72,0,0,0,0-11.24l-.15.11c-.46-1.24-1.52-2.11-1.65-3.6-.85-.86-1.68-2.12-2.66-2.13-.59-1-1.18-1.23-1.91-2.09-.26.46-1-.7-1,0-.23.93.26.71.08,1.47l.13-.08a38.8,38.8,0,0,1,1,7.85c.57,1.63.16,3.45-.08,5.15a32.53,32.53,0,0,1-1.19,5.6c-.08.43-.56.5-.92.68a27.84,27.84,0,0,1-3.07,4.49l.07-.05c-.63.76-1.47.95-2.13,1.64.09.1,0,.2,0,.3-.26-.17-1.09,1-2.08,2.15s-2.07,2.28-2.31,2.23l-.24.23c-2,.89-4.42.8-6,1.57a12.89,12.89,0,0,0-.75,1.22c-.39-.12-.27.35-.66.42-1.31-.78-1.68-.16-1.07.09a11.47,11.47,0,0,1-2.18.78c-.3.16-.59.33-.89.52s-.45,0-.65-.22c-.67.31-.52,0-1.28,0-.24-.37-1.73,1-2,.87l.11-.08c-.87,0-1.51-.72-2.31-.71-2.24-.18-4.64-.06-6.41-.71-.13.42.42,0,.3.59a12.2,12.2,0,0,1-2.76-1.76,1.51,1.51,0,0,1-.16-.65c-.16-.29-.26.1-.41-.07l.2-.35c-.42.09-.11-.59-.39-.63-.11.12-.19.07-.26,0,.28-.32-.24-.15,0-.43l0,0c0-.05-.08-.05-.07-.15a6.09,6.09,0,0,1-.94.07c-.44,0-.88,0-1,0l0-.09c-.11-.13-.42,0-.42.11,0-.07-.07-.12-.1-.19h0l-.08-.2a.53.53,0,0,1,.35-.23c-.19,0-.32-.11-.32-.24-.07.4-.17,1-.28,1.52-.2,0-.2-.4-.32-.53a5.31,5.31,0,0,0,.18-1.15c-.05-.05-.5.1-.38-.13s-.1-.16.08-.38c.21.09.21.23.26.38.34-.19.07-.42.14-.58-.13,0-.1-.32-.27-.46.38,0,.17-.2.34-.37,0-.12-.15-.16-.26-.08-.4.07-.1.56-.55.51.17-.1.05-.33,0-.46-.21.06-.13.14-.36.11,0-.17-.29-.27-.1-.41.07,0,.05.09.06.13s.4.09.79.24.77.25.67.17c-.18.17-1.53-.69-1.53-.58s-.4,0-.44.14l.29.08c0,.2-.38.37-.54.34s.4,0,.78.09.75.21.6.13l-.06.13c-.18-.05-.37-.29-.18-.46a.39.39,0,0,1-.42-.16l0-.05c-.14-.09-.14-.27-.39-.13.11.36-.45.38-1,.38s-1.2,0-1.15.41c.37-.46.51,0,.66.35a.74.74,0,0,0-.36.61c.12.21.21.07.34.08-.06.16-.05.42-.3.48.34.07-.08.36.12.53s.11-.06.3,0c.1.28.23.67.31.91-.16.18-.38.65-.8.64-.2-.44.61-.13.29-.52-.38.44-.34-.32-.73-.23a.63.63,0,0,0,.2.77l0-.08a1.12,1.12,0,0,1,.44.92c-.2.05-.25.23-.39.1l.17.31c.08,0,.15,0,.13-.1.21.05.24.23.23.4s.38.33.84.52.92.31.85.35c.17.16,0,.42.31.44.07-.06-.46-.33-1-.6a4.13,4.13,0,0,0-.85-.48c0,.14.62.58,1.29.88s1.3.56,1.23.77c.14.11.34.19.43,0,.18.25-.31.26-.24.53,0,0,0-.09.1,0l0,.33c.55,0,.95.73,1.59.61a1.87,1.87,0,0,1-.95.38v-.12c-.07,0-.34-.06-.45.12a1,1,0,0,0,.86.39c0,.08.07.16.09.23a.36.36,0,0,1,0-.07c0,.16,0,.17-.05.23l0,0c-.08.63,1.32.24,1.73.72.19,0,.05-.09.29-.12a6.66,6.66,0,0,0,1.38,1c.27-.19.31-.29.15-.61l.43.21c-.6.55.7.85.07,1.39a.66.66,0,0,0,.68.23c.06-.16.16-.42.49-.35.43.31.33.2.68.48.06.23-.1.3-.11.48.65-.19.46.57,1.06.59.37,0,1.1,0,1.14-.37C290.2,370.33,290.18,370.61,290.12,370.92Z"/><path class="cls-1" d="M300.66,359.4l.86-.24a75.56,75.56,0,0,1-8.55,2.25,43.39,43.39,0,0,0,10.11-1.58c3.26-1,6.22-2.65,7.94-5.05.58.56,2.43.27,4.16-.36s3.28-1.59,3.22-1.8c1.06-1.07,2.1-2.21,3.11-3.4-.71.81-1.44,1.58-2.17,2.33.73-.75,1.46-1.52,2.17-2.33a35.14,35.14,0,0,0,2.62-3.61,23.87,23.87,0,0,0,2-4.26l1.45-4.09-4-1a28.74,28.74,0,0,0-11-.24,49.25,49.25,0,0,0-10.3,2.83,59.3,59.3,0,0,0-8.13,4L292.37,344c-.68.46-1.36.91-2,1.39l-1.92,1.45c-.63.49-1.33,1-1.87,1.48-1.13,1-2.31,2-3.39,3l-3.26,2.95.65.68a9.06,9.06,0,0,0,.75.71l1.64,1.46c1,.89,1.78,1.66,2.55,2.26a13.44,13.44,0,0,0,1.34,1l1.51.89-1.62-1c-.38-.27-.72-.56-1.41-1.12a18.35,18.35,0,0,0,6.9,2.5A26.42,26.42,0,0,0,296,362c1.31-.08,2.51-.05,3.8-.25-.91-.13-1.05-.34-2.89-.67.76.05,1.52.15,2.31.14.28-.1.6-.2.95-.29l.77-.24c.53-.17,1.13-.3,1.72-.47a20.22,20.22,0,0,0,3.05-1c-.23.41,1,.13,2-.2l-.48,0a30.32,30.32,0,0,0,10.81-6.38,3.1,3.1,0,0,1,1-.62,24.05,24.05,0,0,0,2.22-3c.09.25.63-.33,1-.79s.64-.81.27.06l.21-.51.3-.66c.21-.44.35-.89.52-1.33s.36-.88.49-1.32l.36-1.32a7.59,7.59,0,0,0,.24-1.3c0-.42.11-.85.12-1.26a11.25,11.25,0,0,0-.22-2.31c0-.57,0-1.11-.09-1.7l-.08-.87c0-.27,0-.64-.15-.8-1.33-.22-2.6-.4-3.89-.5a16,16,0,0,0-2-.08,18.06,18.06,0,0,0-2.05.13c-.68,0-1.38.21-2.07.31-.34.06-.7.12-1,.2l-.75.19c-1,.26-2,.57-2.92.91A52.22,52.22,0,0,0,299,341.32l.26,0c-2.54,1.67-4.35,3.74-7.52,5.48-1.84,1.91-4.56,4.36-4.76,5.72-2.18,1.93-2.76,3.05-4.53,5.18.41-.1,0,.48-.25,1s-.57,1,0,.57c1.63-.87,1.34-1.3,2.78-2l-.13-.08a90.37,90.37,0,0,1,9-6.09,101.71,101.71,0,0,1,9.67-5.13,35.07,35.07,0,0,1,6.74-3.06c1.18-.4,2.35-.71,3.51-1l1.09-.23.46-.08a5.16,5.16,0,0,1,1.23-.11,2.26,2.26,0,0,1,.18,1.58,3.78,3.78,0,0,1-.1.46,1.13,1.13,0,0,1-.08.24l0,.11-.12.25a16.19,16.19,0,0,1-1.2,1.95,4.7,4.7,0,0,1-2.1,1.46,20.58,20.58,0,0,1-5.33,3.62,31.69,31.69,0,0,1-6.54,2.31l.21,0a11.13,11.13,0,0,1-1.65.24h-.37l-.12,0-.28,0a4.43,4.43,0,0,0-1.06-.21c-.1.13-.23.12-.36.17.1-.17-.22-.19-.85-.3a7,7,0,0,1-1.15-.28,5.55,5.55,0,0,1-.69-.28c-.19-.05-.09-.11-.08-.17l.09-.2a5.75,5.75,0,0,1,2.05-2.29,2.07,2.07,0,0,1,.3-.29l.45-.23c.22-.11.56-.32.85-.46l1.83-.87c1.24-.52,2.48-1,3.72-1.45,2.45-.86,4.81-1.51,6.86-2.15.82-.57,1.78-1,2.49-1.5.8.07.85-.39,1.77-.46.3.11.59.19.84.26s.49.16.7.21a3,3,0,0,0,1,.1c.44-.05.49-.29-.08-.47a10.79,10.79,0,0,1,2.05,0c.66.08,1.26.25,1.87.35l-2.19-4.31-.4.93a13.78,13.78,0,0,1-.87,1.94,1.23,1.23,0,0,1-1.09.77c-1,1.3-.85.76-2.23,1.81-.29,0-1,.79-1.88,1.6a10.87,10.87,0,0,1-2,1.7l.24-.2c-1.94,1-3.61.92-5.6,1.74a153,153,0,0,1-17.81,5.53c.06.44,1.23-.42,1.44.12-2,.49-4.12.79-6.25,1.16l3.46,7.37,1.64-.92c.57-.29,1.11-.6,1.67-.91a7.13,7.13,0,0,1,1.59-.33c1-.32.44-.46,1.14-.76l.27.31c.87-.78,1.65-.32,2.56-.91,0-.17.34-.35.69-.49.18.37,1.09-.51,1.19-.13v0a2.6,2.6,0,0,1,.65-.22c.33-.31,3.88-3.06,4.27-3.43l.24,0c.6-.27.74-.68.35-.59l.76-.32-.07.07.76-.32c.15,0,.39.08.25.35a3.59,3.59,0,0,1,1.28-.77,30.5,30.5,0,0,1-4.32.8,20,20,0,0,1,2-.84,17.23,17.23,0,0,0,3.36-.81c.22-.14.16-.64.78-.72.41.16.59-.31,1.13-.35a4.61,4.61,0,0,1-1.46.86c.26.3,1.36-.4,1.81-.55.13-.21,1.18-.63,1.73-1.11-.08.48.61-.1,1.08-.16.44-.21.61-.52.38-.51-.08-.4-1.76.8-1.41.1.25.07,1-.46,1.42-.78-.11-.18-.37.06-.22-.3.49-.28.83-.82,1.22-.82-.05.11-.26.21-.4.3.31-.2-.3.65-.93,1.47s-1.29,1.57-.91,1.26c-.16,0,.58-.83,1.26-1.64s1.32-1.61,1.12-1.47c-.43.16,0-.5-.39-.31l-.27.5c-.56.29-1,.11-.89-.13.44-.28.05.44-.4,1.15s-1,1.36-.65,1l-.37.1a3.07,3.07,0,0,1,1.51-1c-.12-.18.26-.54.57-.84l.15-.06c.3-.33.83-.64.43-.71-1,.74-1,0-1-.66s0-1.41-1-.8c1.09-.17,0,.6-.84,1.22a2.21,2.21,0,0,0-1.39.23c-.52.37-.23.35-.27.52-.37.08-1,.34-1.05.07-.3.5-.78.23-1.26.59s.09.1-.18.4c-.71.34-1.72.78-2.32,1-.32-.1-1.15-.17-.83-.73,1.09-.46-.15.74.93.13-.71-.26.92-.59.93-1.07a3.74,3.74,0,0,0-1.73.64h.15a5.16,5.16,0,0,1-2.21.89c.06-.23-.25-.25.12-.47l-.74.29c-.07.1-.14.2.09.14a1.47,1.47,0,0,1-1,.38c-.15-.15-3.62,2.44-3.54,2.28-.54.24-.78,0-1.22.43a43.21,43.21,0,0,0,4.16-2.45c-.54,0-5.68,3.49-6.14,3.33-.39.19-.84.46-.67.59-.7.23,0-.44-.52-.39,0,0,.09.07-.07.14l-.56,0c-.89.78-2.57,1.19-3.41,2.15a4.46,4.46,0,0,1,.94-1.44l.17,0c.07-.1.61-.46.5-.63a4.26,4.26,0,0,0-1.85,1.12l-.46.06,0,.06c-.28,0-.27,0-.23-.13s0,0,0-.06c-.35-.15-.93.32-1.58.87a9.3,9.3,0,0,1-2,1.51L274.77,362l9.71-.42h0c.36-.17,0-.1.45-.33,1.36-.11,2.31-.17,3.71-.38.38-.36.39-.47-.21-.59l1.06-.19c-.78.9,2.1.12,1.23,1.05a2.93,2.93,0,0,0,1.53-.32c0-.18,0-.47.77-.67,1.08-.05.81-.07,1.71-.09.26.15,0,.33.06.49,1.23-.64,1.28.14,2.5-.26.76-.29,2.28-.78,2.2-1.17C300.58,358.79,300.67,359.06,300.66,359.4Z"/><path class="cls-1" d="M334.79,45l-.26.21A17.17,17.17,0,0,1,337,43a9.64,9.64,0,0,0-3.65,1.77,3.66,3.66,0,0,0-1.05,1.53,4,4,0,0,0,0,2.13c-1.25-.85-3.35.48-3.1.76-.13.55-.28,1.07-.45,1.58.14-.33.26-.68.38-1-.12.35-.24.7-.38,1a13.71,13.71,0,0,1-2.57,4.27c-1.06,1.31-2.38,2.51-3.64,3.78-.68.72-1.9,2.1-3.08,3.51s-2.38,2.82-3.11,3.54l-.6.66.76-.67c-.34,1.24-.61,2.39-1,3.42a2.24,2.24,0,0,0,1-.17l-.42.38c.25.75-.39,1.7-.44,2.29-.22-.27-.5.06-.74.34h.27c-.86,1.12-1.53,2.65-2.2,3.7a.49.49,0,0,1-.4.21l-.41,1.17c-.33-.31-.85.65-.79,0,0,1-.77,1.66-.75,2.67a45.45,45.45,0,0,0-3.83,8.76H307c-.3,1.11,0,2.38-1,3.4,0,1.12-.4,2.46.2,3.25a21.89,21.89,0,0,0-.62,2.69c.53,0-.06,1.19.51.9.91-.3.46-.61,1.21-.88l-.14-.06a53.25,53.25,0,0,0,5.43-6.8c.64-1.85,2-3.51,2.88-5.27A63.18,63.18,0,0,0,318,80.09c.11-.44.6-.51,1-.72.71-1.55,2-3.28,2.78-5l-.07.07c.49-.88,1.29-1.26,1.76-2.13-.11-.06,0-.19-.05-.29.56.17,2.18-5.49,2.67-5.59a1.88,1.88,0,0,1,.12-.3c1.45-1.52,3.59-2.6,4.59-4a9.67,9.67,0,0,0,0-1.42c.4-.09,0-.44.32-.7,1.53,0,1.47-.77.84-.64a12.76,12.76,0,0,1,1.35-1.83c.14-.31.27-.61.4-.93s.33-.29.64-.21c.32-.66.41-.31,1-.8.43.13.72-1.83,1-1.91l0,.13c.63-.6,1.61-.48,2.19-1.08a31.38,31.38,0,0,0,2.53-2.5l1.19-1.29c.41-.4.81-.78,1.22-1.12-.29-.33-.27.39-.69,0,1-.82,2.25-1.32,3.22-2.13a2.4,2.4,0,0,1,.78,0c.42-.14,0-.31.3-.46l.3.27c.1-.53.76-.09,1-.48-.09-.14,0-.25.12-.34.28.32.31-.31.55,0l0,0c.07-.06.1-.12.22-.13,0-.22.43-2.13.47-2.36h.1c.18-.15.06-.46-.1-.43l.24-.16v0l.24-.16a.41.41,0,0,1,.29.31c0-.22.13-.4.3-.44a9.53,9.53,0,0,1-1.83.12c.06-.23.48-.28.61-.45a4,4,0,0,0,1.37-.19c.05-.07-.2-.48.09-.44.28.19.17-.15.44-.07,0,.25-.23.31-.39.42.26.27.53-.1.71-.11,0-.14.35-.27.47-.5.15.35.29.06.52.13a.17.17,0,0,0,0-.31c-.21-.35-.64.21-.73-.26.17.12.37-.13.49-.25-.13-.17-.19-.06-.23-.29.17-.08.16-.41.39-.3,0,.07-.08.09-.12.12.2-.14-.15,1.94,0,1.65-.19-.1.27-1.89.14-1.8s-.16-.38-.32-.34l0,.31a.53.53,0,0,1-.55-.34c.29-.2.13,1.8.23,1.44h-.16c0-.19.2-.5.45-.4-.13-.17-.05-.34,0-.49h.06c.05-.18.24-.27,0-.44-.66.58-.89-2.1-1.63-1.66.57.15.21.46-.05.74a.83.83,0,0,0-.69-.12c-.16.18,0,.23,0,.35-.17,0-.42.08-.55-.13,0,.34-.35,0-.45.25s.09.09.07.29a8.13,8.13,0,0,1-.81.48c-.21-.13-.69-.28-.77-.68.38-.24.25.56.56.21-.5-.29.22-.37,0-.74a.59.59,0,0,0-.65.3l.08,0c-.13.19-.4.55-.77.48-.07-.18-.25-.22-.15-.36l-.26.16c0,.07,0,.14.11.12,0,.2-.18.23-.34.21s-.67,1.71-.71,1.58c-.16.14-.4,0-.43.25.09.14,1.12-1.9,1-1.66-.29,0-1.21,2.39-1.55,2.2-.11.11-.23.27-.07.4-.27.11-.2-.34-.47-.36,0,0,.08.07,0,.11l-.31-.07c-.11.51-.85.62-.9,1.23a2,2,0,0,1-.12-1l.11,0c0-.07.12-.28,0-.42a.7.7,0,0,0-.52.6.82.82,0,0,1-.23,0l0,.06c-.15,0-.16,0-.19-.13s0,0,0,0c-.54-.33-.53,1-1.1,1.14-.05.16.06.08,0,.29a7.41,7.41,0,0,0-1.39.58c.06.3.12.38.45.43l-.35.22c-.21-.74-1,.06-1.18-.71a.49.49,0,0,0-.48.36c.1.14.27.36.06.56-.44.12-.32.1-.7.19-.22-.1-.19-.25-.33-.36-.15.57-.65,0-1,.36-.16.27-.56.72-.29,1C335.2,45.48,335,45.29,334.79,45Z"/><path class="cls-1" d="M30.24,115.47l.16.08a6.26,6.26,0,0,1-1.69-.61,4.49,4.49,0,0,0,1.69,1.76c.63.26,1.33,0,2.17-1.24-.25,1.48.79,2.45.91,2.12a4.57,4.57,0,0,1,1-.45,4.34,4.34,0,0,0-.64.21,4.34,4.34,0,0,1,.64-.21c2-.68,3.68.38,5.38,1.53,1,.6,3.68,1.87,4.61,2.66l.42.3-.43-.44a18,18,0,0,1,2.17-.35,2.38,2.38,0,0,0-.12-.8l.24.23c.48-.49,1.09-.25,1.47-.39-.17.28,0,.43.22.55v-.24a21.14,21.14,0,0,0,2.39.76c.09,0,.13.17.13.29h.75c-.2.4.42.56,0,.7.67-.31,1.07.17,1.72-.17a16,16,0,0,0,5.66.75v-.16c.71-.07,1.53-.73,2.19-.21.71-.38,1.57-.45,2-1.27.65.06,1-.31,1.68-.37,0-.48.72-.36.52-.78-.23-.72-.39-.21-.59-.8l0,.15a21.4,21.4,0,0,0-4.26-2.65c-1.17,0-2.21-.67-3.34-1A20.12,20.12,0,0,0,53.5,115c-.28,0-.33-.39-.47-.66-1-.14-2.16-.72-3.31-.86l.05,0c-.6-.13-.87-.71-1.45-.84,0,.13-.13.1-.19.15.1-.6-3.7.05-3.79-.34h-.2c-1.1-.64-2-2.15-3-2.38a8.07,8.07,0,0,0-.92.6c-.11-.3-.29.17-.49,0-.21-1.33-.69-.94-.52-.45a6.26,6.26,0,0,1-1.37-.3c-.22,0-.43.06-.65.11s-.24-.15-.25-.44c-.47,0-.26-.21-.68-.45,0-.43-1.28.33-1.38.19l.09,0c-.5-.2-.65-1.07-1.16-1.23-1.35-.67-3-.66-4.36-1.07-.09.43.32,0,.23.54-.78-.23-1.53-.87-2.36-1.07a1.87,1.87,0,0,1-.34-.54c-.25-.2-.18.19-.37.1l0-.4c-.34.3-.39-.47-.69-.34,0,.16-.14.17-.24.15,0-.42-.31,0-.26-.38v0c-.06,0-.11,0-.18-.07-.14.13-1.28,1.2-1.4,1.37l0-.08c-.16,0-.24.31-.15.39l-.19,0,0,0-.2,0a.57.57,0,0,1,0-.42c-.12.15-.25.22-.36.15a4.37,4.37,0,0,1,1,1.09c-.14.13-.35-.12-.5-.07a2.51,2.51,0,0,0-.77-.71c-.06,0-.11.49-.24.28s-.16,0-.27-.22c.13-.18.26-.1.39-.08,0-.38-.32-.26-.42-.37-.05.12-.31,0-.48.1.07-.37-.13-.24-.23-.44-.11,0-.18.11-.13.24,0,.4.44.24.29.66,0-.2-.25-.13-.37-.11,0,.21.08.16,0,.37-.12,0-.25.21-.33,0,0-.06.08,0,.11,0-.17,0,.88-1.42.67-1.29.05.19-.93,1.29-.81,1.3s-.06.4,0,.47l.11-.26a.7.7,0,0,1,.16.61c-.24,0,.64-1.48.45-1.26l.08.1c-.08.14-.31.26-.41,0a.4.4,0,0,1-.2.37l0,0c-.1.11-.24.06-.17.35.57,0-.28,2.19.25,2.32-.23-.48.06-.49.29-.55a.87.87,0,0,0,.3.53c.14,0,.08-.17.11-.29A.55.55,0,0,1,22,110c.11-.3.17.19.3.09s0-.13.08-.28a3.81,3.81,0,0,1,.56.14,1.88,1.88,0,0,1,.06,1c-.25,0,.12-.6-.15-.52.1.54-.25.15-.3.55.08.25.25.25.39.18l0-.07c.12-.07.38-.18.51.11-.05.19,0,.34-.09.38l.17.05c0-.06.05-.12,0-.17s.17,0,.23.07,1-.76.94-.64c.13,0,.13.31.28.12s-1.26.58-1.08.53c.08.22,1.49-.88,1.54-.49.1,0,.22,0,.22-.25.14.11-.09.38,0,.58,0,0,0-.1,0-.09l.07.26c.28-.29.59.18.89-.2a2.53,2.53,0,0,1-.42.75V112c0,.06-.17.11-.2.31.14.16.27.14.46,0l.07.18v-.08c0,.14,0,.15,0,.23l0,0c0,.61.65-.28.89.07.09-.08,0-.1.14-.2a3.82,3.82,0,0,0,.68.66.68.68,0,0,0,.1-.62l.21.12c-.32.63.3.72,0,1.35a.2.2,0,0,0,.31.14c0-.17.11-.43.27-.4a4.19,4.19,0,0,1,.27.42,2,2,0,0,1-.11.48c.33-.23.15.52.41.53s.49,0,.58-.38C30.39,114.88,30.32,115.16,30.24,115.47Z"/><path class="cls-1" d="M233.33,5.42l-.15.16a8.07,8.07,0,0,1,1.41-1.71c-2,.58-4.05,1.75-2.14,4.18-1.39-.62-2.73.44-2.41.64a7.34,7.34,0,0,1,.17,1.17,6.61,6.61,0,0,0,0-.76,6.61,6.61,0,0,1,0,.76c.14,2.35-1.2,4.09-2.59,6-.75,1-2.26,4.08-3.09,5.14a5,5,0,0,0-.33.47l.46-.49c.12.86.25,1.65.28,2.37a2.28,2.28,0,0,0,.82-.16l-.25.28c.49.5.22,1.16.37,1.57-.29-.18-.44.06-.56.26l.24,0a20.92,20.92,0,0,0-.77,2.6c0,.11-.18.15-.3.16v.8c-.4-.19-.56.48-.71.05.32.7-.15,1.15.19,1.83a18.79,18.79,0,0,0-.67,6h.17c.07.75.72,1.58.2,2.3.38.75.42,1.65,1.21,2.16-.09.7.26,1.11.27,1.84.49,0,.31.8.75.59.74-.24.24-.43.85-.65l-.15,0a22,22,0,0,0,2.84-4.82c0-1.27.66-2.42.92-3.65a21.73,21.73,0,0,0,.39-4c0-.3.38-.37.66-.52.13-1.07.7-2.28.85-3.48l0,.05c.14-.62.73-.91.86-1.51-.12,0-.1-.13-.15-.2.59.11.06-3.8.47-3.88a1.48,1.48,0,0,1,0-.21c.72-1.11,2.3-1.89,2.62-2.93a9.9,9.9,0,0,0-.5-1c.31-.08-.13-.31,0-.5,1.33-.05,1-.56.5-.46a6,6,0,0,1,.5-1.31v-.66c0-.2.19-.21.48-.16,0-.46.25-.22.56-.57.42.09-.08-1.31.1-1.37l0,.1c.3-.44,1.19-.34,1.46-.76.94-1.05,1.45-2.49,2.29-3.4-.36-.26-.08.28-.57,0,.48-.57,1.36-.81,1.85-1.31a1.57,1.57,0,0,1,.58.06c.26-.06-.08-.23.07-.32l.31.25c-.1-.39.54,0,.56-.22s-.08-.18,0-.23c.31.29.13-.18.41.09l0,0s0-.07.13,0c-.07-.17-.32-1.52-.37-1.72l.08,0c.08-.09-.09-.36-.19-.37l.12-.08v0l.12-.08a.72.72,0,0,1,.29.31c0-.16,0-.28.09-.27-.34-.07-.79-.16-1.27-.29,0-.18.27-.14.32-.25a3.07,3.07,0,0,0,.92.16s-.25-.43,0-.33.08-.08.29,0c0,.2-.09.19-.18.24.25.29.34.06.46.1,0-.12.18-.11.2-.25.17.32.21.14.37.27s0-.15-.06-.24c-.2-.35-.37,0-.52-.44.13.14.21,0,.27-.06-.12-.18-.14-.1-.21-.31.1,0,0-.29.21-.12,0,.06,0,.05-.06.06s.28,1.53.33,1.34c-.15-.13-.19-1.44-.25-1.41s-.16-.37-.27-.39l.07.27c-.13,0-.37-.3-.42-.45.15-.06.41,1.52.42,1.25l-.11-.05c0-.15,0-.35.22-.19a.46.46,0,0,1-.08-.4l0,0c0-.13.11-.15-.08-.37-.36.3-.89-2-1.35-1.88.43.29.2.46.05.62a.82.82,0,0,0-.52-.27c-.1.11,0,.19.08.3-.13,0-.3,0-.43-.25.08.3-.26,0-.3.12s.08.1.11.27c-.16.08-.38.2-.52.25-.19-.15-.6-.36-.74-.72.26-.14.3.52.48.28-.44-.34.1-.27-.11-.62a.3.3,0,0,0-.46.14l.07,0c-.07.14-.21.41-.51.3-.09-.16-.24-.22-.19-.33L241,.31c0,.06,0,.12.11.12,0,.17-.09.17-.22.14s-.17,1.32-.22,1.21c-.09.1-.33-.08-.28.16.06.06.16-.3.25-.66s.18-.69.13-.6c-.27-.07-.41,1.83-.73,1.63a.2.2,0,0,0,.06.32c-.19.07-.26-.3-.48-.33,0,0,.08.06.05.09l-.27-.08c.06.41-.51.45-.37.93a2.23,2.23,0,0,1-.38-.79l.1,0c0-.06,0-.22-.14-.35-.22.05-.29.19-.26.46a1.25,1.25,0,0,1-.19,0l.06,0c-.14,0-.15,0-.2-.12a.05.05,0,0,1,0,0c-.55-.28-.14.79-.58.86,0,.13.07.07.09.23a3.38,3.38,0,0,0-1,.41.6.6,0,0,0,.52.35l-.22.17c-.41-.59-.81,0-1.22-.58a.24.24,0,0,0-.28.28c.13.11.34.28.24.44a5.31,5.31,0,0,1-.53.14c-.22-.08-.25-.19-.4-.28.06.44-.57,0-.7.28s-.25.55.08.76C233.83,5.75,233.59,5.6,233.33,5.42Z"/><path class="cls-1" d="M372,155.86l-.24,0a9.89,9.89,0,0,1,2.36.09c-1.8-1.2-3.91-2.22-5,.7-.25-1.49-2-2.06-2-1.69a6.23,6.23,0,0,1-1,.76,6.37,6.37,0,0,0,.69-.42,6.37,6.37,0,0,1-.69.42c-2.14,1.33-4.6,1-7.15.61-1.41-.18-5.21-.23-6.66-.56l-.63-.1.71.22c-.84.47-1.6.91-2.34,1.23a2.29,2.29,0,0,0,.53.68l-.4-.11c-.31.64-1.13.68-1.49,1,.06-.33-.25-.37-.52-.4l.12.2c-1-.06-2.18.3-3.09.32a.35.35,0,0,1-.29-.21l-.85.32c0-.44-.75-.33-.35-.64-.62.57-1.3.3-1.88.88a25.22,25.22,0,0,0-6.77,1.64l.07.16c-.78.35-1.42,1.26-2.42,1-.65.63-1.61,1-1.82,1.94-.79.19-1.08.67-1.85,1,.24.44-.72.6-.31.92.57.59.56,0,1,.53l0-.15A29.92,29.92,0,0,0,336,167c1.37-.49,2.91-.29,4.35-.51a28.62,28.62,0,0,0,4.54-1.18c.31-.15.57.21.86.4,1.22-.3,2.8-.26,4.18-.61h-.07c.73-.13,1.32.29,2,.16,0-.13.1-.15.15-.22.17.59,4.16-1.56,4.44-1.23a.85.85,0,0,1,.22-.09c1.55.15,3.21,1.2,4.51,1a7.37,7.37,0,0,0,.78-.91c.25.24.26-.26.55-.21.79,1.14,1.17.61.77.21a8.62,8.62,0,0,1,1.68-.22l.7-.34c.2-.11.33.06.45.33.51-.21.38.1.94.18.17.41,1.34-.77,1.5-.65l-.08.07c.64,0,1.12.8,1.75.79,1.76.18,3.63-.27,5.24-.25,0-.44-.35.12-.41-.46,1,0,1.95.48,2.91.48a1.84,1.84,0,0,1,.5.45c.32.14.16-.22.39-.18l.06.39c.3-.35.51.4.81.22,0-.16.11-.19.22-.19,0,.42.34,0,.35.33v0c.07,0,.11,0,.2,0,.11-.16,1.2-1.4,1.31-1.59l.07.07c.17,0,.22-.35.11-.41h.22l0,0h.22a.55.55,0,0,1,0,.42c.11-.16.24-.25.37-.18a7.05,7.05,0,0,1-1.19-1c.13-.15.41.05.57,0a3,3,0,0,0,.93.64c.06,0,.07-.5.24-.3s.17,0,.31.2c-.13.18-.28.11-.42.11.05.38.37.23.49.33.05-.13.34,0,.51-.14,0,.37.16.22.28.41.12,0,.18-.12.13-.24,0-.41-.5-.21-.36-.64.06.19.28.11.41.08,0-.22-.1-.16,0-.37.14,0,.27-.24.37,0,0,.06-.09,0-.13,0,.19,0-.88,1.49-.65,1.35-.08-.19.94-1.37.82-1.37s.05-.4-.07-.47L385,162c-.17-.07-.26-.44-.21-.6.26,0-.64,1.54-.43,1.31l-.1-.1c.08-.15.33-.29.45-.07a.4.4,0,0,1,.2-.38l0,0c.11-.12.26-.08.17-.36-.64.08.26-2.22-.37-2.3.29.46-.05.5-.33.57a.77.77,0,0,0-.38-.49c-.17.05-.09.18-.11.3-.11-.1-.29-.17-.29-.43-.11.31-.23-.17-.38-.06s0,.13-.07.28a3.52,3.52,0,0,1-.68-.08,1.52,1.52,0,0,1-.2-1c.33,0-.08.6.25.5-.18-.53.29-.17.32-.58a.36.36,0,0,0-.52-.14l0,.07c-.15.08-.46.21-.65-.06,0-.19-.06-.33.05-.38l-.22,0c0,.06-.05.12,0,.16-.1.16-.2.08-.29,0s-1.1.92-1.08.79c-.15,0-.21-.27-.35-.06s1.45-.8,1.25-.72c-.15-.2-1.71,1.13-1.84.76-.11,0-.25.08-.21.28-.2-.08,0-.39-.12-.57,0,0,0,.1,0,.1l-.15-.25c-.29.34-.77,0-1.06.4a2.68,2.68,0,0,1,.35-.83l0,.11c0-.07.19-.15.17-.35-.2-.12-.37-.07-.56.14,0,0-.09-.1-.13-.16a.22.22,0,0,1,0,.08c-.07-.12-.07-.14-.05-.22a.43.43,0,0,0,0-.05c-.17-.58-.74.44-1.12.16-.1.09,0,.1-.13.22a4.62,4.62,0,0,0-1-.48.56.56,0,0,0,.06.63L375,158c.21-.69-.59-.6-.35-1.3a.28.28,0,0,0-.43-.05c0,.17,0,.45-.21.46a5,5,0,0,1-.48-.32c-.07-.22,0-.32,0-.49-.34.31-.35-.46-.69-.39s-.63.14-.61.53C372,156.46,372,156.17,372,155.86Z"/><path class="cls-1" d="M102.13,26.93l.08.27a13,13,0,0,1-.94-2.68c-.39,2.44-.33,5.2,2.9,5.33-1.27.83-1,2.92-.63,2.78a8.74,8.74,0,0,1,1.19.78,8.45,8.45,0,0,0-.73-.58,8.45,8.45,0,0,1,.73.58c2.27,1.79,3.2,4.52,4.17,7.36.56,1.57,2.53,5.56,3,7.21.07.24.15.47.24.7l-.18-.83c.87.67,1.68,1.25,2.36,1.88a2.36,2.36,0,0,0,.33-.85l.11.47c.74,0,1.22.86,1.67,1.1-.33.09-.2.43-.08.72l.12-.22c.5,1.08,1.44,2.11,2,3a.44.44,0,0,1,0,.4l.74.73c-.41.16.11.92-.38.65.84.37,1,1.19,1.81,1.52a34,34,0,0,0,5.11,6.2l.11-.14c.73.64,1.89.9,2.23,2,.91.4,1.76,1.23,2.71,1.05.58.75,1.16.85,1.82,1.54.28-.43.92.52,1,0,.24-.85-.24-.62-.06-1.33l-.12.08a35.36,35.36,0,0,0-2.66-7c-1.18-1.2-1.83-2.87-2.82-4.25a37.78,37.78,0,0,0-3.51-4.12c-.3-.25-.12-.67-.1-1.05-.93-1.12-1.74-2.75-2.79-4a.16.16,0,0,1,0,.08c-.51-.7-.44-1.49-.94-2.16-.11.07-.18,0-.27-.06.43-.42-3.59-3.58-3.44-4l-.19-.2c-.66-1.65-.55-3.81-1.39-5.06a10.9,10.9,0,0,0-1.21-.43c.1-.35-.36-.15-.46-.47.65-1.29,0-1.46-.19-.89a10.94,10.94,0,0,1-1-1.65l-.64-.59c-.2-.16-.1-.36.09-.6-.43-.45-.09-.43-.28-1,.3-.33-1.32-1.09-1.29-1.31l.11.06c-.28-.68.23-1.47,0-2.12-.6-1.88-1.77-3.66-2.33-5.34-.41.15.24.32-.29.57-.34-1-.23-2.17-.52-3.14a1.49,1.49,0,0,1,.29-.62c0-.35-.26-.11-.28-.34l.36-.16c-.41-.21.26-.6,0-.84-.16,0-.21-.06-.23-.17.4-.13-.12-.3.26-.4h0c0-.06,0-.1,0-.19-.19-.08-1.57-.84-1.76-.93l0-.07c0-.15-.37-.16-.42,0l0-.2h0v-.19a.61.61,0,0,1,.41-.09c-.16-.07-.25-.18-.19-.29l-.85,1.2c-.17-.11,0-.42-.09-.55a3.41,3.41,0,0,0,.58-.89c0-.05-.52-.05-.31-.18s0-.13.21-.23c.18.09.11.19.1.3.37-.06.25-.27.35-.36-.12,0,0-.22-.13-.34.37,0,.24-.07.45-.09,0,0-.1-.08-.23-.07-.39-.05-.27.19-.68.11.2,0,.15-.13.14-.2-.22,0-.17,0-.38,0,.06-.07-.2-.19,0-.21.06,0,0,.05,0,.08s.36.14.69.26l.42.14c.12,0,.19.06.15,0a2.32,2.32,0,0,1-.7-.22c-.29-.14-.57-.33-.57-.3s-.39-.11-.47-.05l.26.12a.89.89,0,0,1-.61,0c0-.09.38.09.71.22s.63.22.52.16l-.1.06c-.15-.08-.24-.2,0-.24a.45.45,0,0,1-.36-.16l0,0c-.1-.07-.05-.16-.33-.16,0,.2-.54.09-1.09-.08s-1.13-.39-1.22-.07c.49-.2.48.15.51.4a.78.78,0,0,0-.54.33c0,.19.18.11.31.14-.11.1-.19.3-.44.28.31.13-.18.25-.06.42s.12,0,.27.07c0,.23,0,.57,0,.76-.22.1-.6.4-1,.3,0-.39.61,0,.47-.33-.51.25-.2-.32-.61-.34a.46.46,0,0,0-.09.62l.07,0a.7.7,0,0,1,0,.79c-.2,0-.32.1-.39,0l0,.26c.07,0,.13,0,.16,0,.17.09.12.23,0,.35s.19.33.48.61.61.51.55.51c.06.17-.22.3,0,.42.08,0-.21-.39-.51-.74s-.55-.71-.5-.59c-.2.25,1.53,1.78,1.2,2,.06.12.16.26.34.17,0,.25-.39.06-.52.27,0,0,.09,0,.1,0l-.19.23c.42.24.2.88.73,1.09a2,2,0,0,1-.92-.18l.08-.07c-.07,0-.2-.18-.39-.11a.53.53,0,0,0,.33.61c0,.06-.07.13-.11.18l.07,0c-.09.12-.11.12-.19.12h0c-.5.35.68.73.55,1.24.12.09.09,0,.26.08a5.25,5.25,0,0,0,0,1.31.46.46,0,0,0,.56-.26l.06.35c-.75,0-.35.85-1.1.8a.34.34,0,0,0,.13.49c.16-.05.43-.13.52.09a3.69,3.69,0,0,1-.11.64c-.17.15-.29.09-.45.18.44.28-.29.54-.08.9s.41.66.77.5C102.69,26.7,102.43,26.83,102.13,26.93Z"/><path class="cls-1" d="M11.1,240.93h.21a7.83,7.83,0,0,1-2.06.05c1.67,1.09,3.63,2,4.29-1,.37,1.46,1.92,1.9,1.88,1.53a6.24,6.24,0,0,1,.78-.83,6.06,6.06,0,0,0-.56.47,6.06,6.06,0,0,1,.56-.47c1.7-1.48,3.84-1.35,6.07-1.17,1.23.06,4.49-.22,5.77,0a5.28,5.28,0,0,0,.55,0l-.63-.15c.66-.53,1.25-1,1.84-1.42a2.29,2.29,0,0,0-.53-.63l.35.08c.18-.67.88-.78,1.15-1.1,0,.34.26.35.49.36l-.13-.2a25.43,25.43,0,0,0,2.59-.58c.11,0,.21.08.28.18l.68-.38c0,.44.68.26.38.6.45-.61,1.07-.41,1.49-1a19.43,19.43,0,0,0,5.56-2.17l-.08-.15c.63-.41,1.07-1.36,1.94-1.22.49-.67,1.28-1.12,1.38-2.05.66-.23.87-.73,1.52-1.06-.24-.42.59-.63.2-.93-.54-.56-.49,0-1-.47l0,.14a21,21,0,0,0-5.6-.36c-1.13.59-2.47.52-3.69.86a22.67,22.67,0,0,0-3.74,1.55c-.24.18-.51-.15-.78-.31-1,.39-2.36.5-3.48,1h.06c-.61.19-1.17-.18-1.76,0,0,.12-.07.15-.1.22-.22-.57-3.35,1.91-3.63,1.61a1,1,0,0,1-.18.1c-1.33,0-2.87-.92-3.95-.61a8.3,8.3,0,0,0-.56,1c-.24-.22-.19.28-.43.25-.81-1.07-1.07-.51-.69-.15a5.9,5.9,0,0,1-1.39.35c-.19.12-.38.25-.56.39s-.28,0-.42-.3c-.41.25-.33-.07-.82-.11-.18-.39-1,.86-1.19.76l.06-.07c-.55,0-1-.73-1.56-.68-1.5-.06-3,.5-4.37.54,0,.44.28-.14.38.43-.8,0-1.66-.39-2.44-.37a1.75,1.75,0,0,1-.43-.43c-.26-.13-.12.23-.3.19l-.07-.39c-.22.35-.43-.39-.65-.21,0,.16-.08.19-.17.19,0-.42-.25.05-.28-.33v0c-.05,0-.08,0-.15,0-.09.17-.86,1.38-.95,1.56l-.05-.06c-.13,0-.16.33-.09.4H2l0,0-.15,0a.7.7,0,0,1,0-.42c-.08.15-.18.23-.26.16.24.25.54.62.85,1-.11.15-.32-.06-.43,0a3.5,3.5,0,0,0-.63-.69s-.07.49-.17.28-.1,0-.17-.22c.09-.17.17-.09.26-.08,0-.38-.21-.26-.27-.37-.06.13-.14,0-.19.09.06-.36,0-.23,0-.43h0s0,.15,0,.21l0,.11h0l.05-.31h0l0,0a.3.3,0,0,1,0,.18c-.15.4.09.24,0,.66,0-.19-.13-.13,0-.11a2.41,2.41,0,0,0-.07.37c.06,0,0,.23.1,0,0-.06,0,0,0,0a1.54,1.54,0,0,0,0-.72,2.17,2.17,0,0,0,.16-.59,1.22,1.22,0,0,1-.06.29c0,.13-.15.28-.07.43a1.3,1.3,0,0,1,0,.62c-.05.09-.12.38-.15.44a2,2,0,0,0,.05-.26,2.89,2.89,0,0,0-.16.59,4.32,4.32,0,0,0,.11-.72c.13-.34.22-.64.17-.53l0,.1c0,.14-.2.26-.12,0a1.13,1.13,0,0,0,0,.38l0,0a.55.55,0,0,1-.06.36,6.23,6.23,0,0,0-.32,1c-.18.55-.46,1.08-.28,1.18,0-.48.16-.46.3-.49a.75.75,0,0,0,.19.54c.13,0,.09-.16.12-.28a.66.66,0,0,1,.17.46c.12-.3.17.19.3.09s0-.13.08-.27a4.61,4.61,0,0,1,.56.12,2,2,0,0,1,.13,1c-.28,0,.08-.59-.2-.5.14.53-.25.15-.3.56a.3.3,0,0,0,.45.16l0-.07c.14-.07.41-.2.58.09,0,.19.05.32,0,.37l.19,0c0-.06,0-.12,0-.16s.17-.08.25,0,1-.91.93-.79.19.27.3.06-1.24.79-1.07.71c.15.22,1.46-1.13,1.58-.76.1,0,.21-.08.17-.28.18.08,0,.39.13.57,0,0,0-.1,0-.1l.14.24c.23-.34.66,0,.89-.43a2.61,2.61,0,0,1-.25.84l0-.1c0,.06-.15.15-.13.35.19.12.33.06.49-.16a.91.91,0,0,1,.11.16v-.08c.08.12.07.14.06.22a.06.06,0,0,1,0,0c.18.58.62-.46,1-.19.08-.1,0-.1.09-.23a3.93,3.93,0,0,0,.94.43.59.59,0,0,0-.1-.62l.26.05c-.13.71.56.58.41,1.28a.22.22,0,0,0,.37,0c0-.17,0-.45.15-.47a3.07,3.07,0,0,1,.44.3c.08.21,0,.31.05.48.27-.33.35.44.64.35s.54-.17.48-.56C11,240.33,11.08,240.61,11.1,240.93Z"/><path class="cls-1" d="M100.87,358.6l.12-.2a10,10,0,0,1-1,2c1.79-1.11,3.54-2.53,1.29-4.67,1.46.37,2.65-.88,2.32-1a6,6,0,0,1-.31-1.17,7.69,7.69,0,0,0,.11.78,7.69,7.69,0,0,1-.11-.78c-.38-2.4.9-4.41,2.28-6.44.73-1.15,2.31-4.39,3.21-5.49.12-.16.24-.32.35-.49l-.49.51c-.07-.91-.16-1.75-.14-2.52a2.32,2.32,0,0,0-.84.15l.27-.29c-.45-.54-.14-1.25-.24-1.69.27.19.44-.05.58-.27H108c.49-.84.66-2,1-2.76,0-.11.19-.15.32-.16l.08-.86c.38.23.62-.48.72,0-.24-.77.29-1.23,0-2a25.08,25.08,0,0,0,1.62-6.42l-.17,0c.06-.81-.43-1.79.23-2.51-.24-.86-.09-1.85-.78-2.49.24-.76,0-1.24.11-2-.49,0-.14-.92-.62-.74-.79.16-.33.44-1,.59l.14.06a24.13,24.13,0,0,0-3.85,5c-.21,1.41-1.13,2.64-1.58,4a24.32,24.32,0,0,0-1,4.46c0,.34-.44.4-.74.57-.28,1.19-1,2.55-1.26,3.9l0-.05c-.2.69-.82,1-1,1.71.13,0,.09.14.14.22-.61-.1-.33,4.3-.73,4.4a1.94,1.94,0,0,1,0,.24c-.78,1.28-2.4,2.31-2.74,3.54a8.59,8.59,0,0,0,.51,1.06c-.32.12.13.33,0,.56-1.36.23-1,.78-.5.6a7.71,7.71,0,0,1-.47,1.56q0,.38,0,.75c0,.23-.18.27-.48.27,0,.54-.24.29-.54.76-.43,0,.18,1.48,0,1.58l0-.1c-.27.55-1.18.67-1.41,1.23-.85,1.47-1.16,3.31-1.81,4.73.41.15,0-.36.58-.19-.37.84-1.19,1.54-1.56,2.39a1.64,1.64,0,0,1-.6.26c-.25.23.14.24,0,.42l-.39-.1c.21.41-.56.3-.5.63a.18.18,0,0,1,.08.27c-.4-.13-.08.32-.43.18h0c0,.06,0,.11-.11.16.11.17.83,1.61,1,1.78l-.08,0c0,.16.23.33.33.26l-.09.19,0,0-.09.19A.56.56,0,0,1,90,365c.1.16.13.31,0,.4a7.58,7.58,0,0,1,1.34-.68c.09.18-.2.35-.21.51a3,3,0,0,0-.94.57c0,.07.43.26.19.33s0,.16-.3.2c-.12-.18,0-.29.06-.42-.37-.1-.36.24-.5.31.1.09-.11.31-.06.5-.32-.18-.27.06-.49.09s0,.21.18.21c.37.16.37-.36.72-.07-.2,0-.21.21-.23.33.21.08.19,0,.36.12-.09.11.11.33-.13.33,0,0,0-.08,0-.12-.08.16-1-1.36-1-1.1.2,0,.9,1.36,1,1.26s.35.2.46.12l-.21-.21a.67.67,0,0,1,.63.05c-.11.23-1.18-1.16-1-.88l.13-.05c.1.13.14.4-.11.42a.41.41,0,0,1,.28.33l0,0c.07.14,0,.26.27.29.17-.6,2,1.09,2.26.56-.53.09-.44-.24-.41-.51a.83.83,0,0,0,.61-.14c0-.17-.14-.15-.24-.22.13-.05.27-.19.5-.09-.24-.21.25-.13.2-.31s-.12,0-.23-.17a5.76,5.76,0,0,1,.33-.57,1.6,1.6,0,0,1,1,.22c-.14.27-.52-.31-.55,0,.55,0,0,.32.41.51a.34.34,0,0,0,.33-.4h-.08c0-.17,0-.5.3-.56.17.1.32.07.33.19l.1-.18c0-.05-.09-.09-.15-.05-.11-.14,0-.21.13-.24s-.43-1.34-.33-1.26c0-.15.34-.09.2-.29s.18,1.59.18,1.38c.25,0-.39-1.95,0-1.92,0-.11,0-.25-.17-.29.15-.15.34.18.57.11,0,0-.1,0-.08-.06l.28,0c-.2-.38.33-.65,0-1.08a2.55,2.55,0,0,1,.64.63h-.11s.06.22.25.28c.19-.13.21-.3.08-.55l.19-.05-.07,0c.14,0,.16,0,.22,0l0,0c.6.08-.11-.82.29-1.05,0-.12-.09,0-.16-.2a4,4,0,0,0,.84-.73.58.58,0,0,0-.6-.19l.17-.23c.56.46.79-.28,1.34.21a.25.25,0,0,0,.2-.36c-.15-.07-.4-.18-.34-.37a3.68,3.68,0,0,1,.49-.29c.22,0,.28.13.45.18-.16-.42.56-.12.62-.45s.12-.6-.25-.74C100.31,358.37,100.58,358.47,100.87,358.6Z"/></g></g></svg>