<svg xmlns="http://www.w3.org/2000/svg" viewBox="0 0 234.42 258.77"><defs><style>.cls-1{fill:red;}.cls-2{fill:#33348e;}</style></defs><title>cow-head</title><g id="Layer_2" data-name="Layer 2"><g id="OBJECTS"><path class="cls-1" d="M231.16,180.24l-67.29-69.08a17.17,17.17,0,0,1-3.89-6.32l-3-8.88a19.73,19.73,0,0,0-8.7-10.61l-9.79-5.74-34.3-20.73a26.17,26.17,0,0,0-7-2.93c-6-1.53-17.53-4.65-19.4-6.46l-21.31-25a30.72,30.72,0,0,0-15.52-9.77L15.45,8a5.15,5.15,0,0,0-6.17,3.3L6,20.7a18.46,18.46,0,0,0-.92,8C8.31,58,34.76,70.57,34.76,70.57L6.54,96.76a20.44,20.44,0,0,0-6.54,15v74.12a31.07,31.07,0,0,0,4.36,15.86l34,57H54L60.07,229A17.72,17.72,0,0,1,72.12,215.6l2.07-.65A24.42,24.42,0,0,1,85,214.11l21.09,3.16a33.3,33.3,0,0,0,12.58-.52l29.75-7c30.47,29.59,56.54,12,56.54,12l-1.92-3.51-12,2.33a9.05,9.05,0,0,1-8.71-14.65,54.32,54.32,0,0,0,6.51-10c3.69-7.14,3.38-15.17,2.68-20a9.05,9.05,0,0,1,2.61-7.78l0,0a9,9,0,0,1,12-.44l19.93,16.72a6.9,6.9,0,0,1,1.29,9.15l-11.19,16.63,2.53,3.13,13.46-18.13A11.48,11.48,0,0,0,231.16,180.24ZM39.52,188.43C32.37,178.05,24.41,181,22.16,183c-4,3.56-4.83,8.38-8.77,8.51-4.45.14-5.7-4.77-5.7-7.67v-68.9a20.37,20.37,0,0,1,6.54-15C19,95.48,25.29,89.76,28.47,87.16c5.6-4.6,13.77,2,7.3,7.83s-16,19.4-12.08,35.57S46,173.8,51.26,181.28,46.67,198.82,39.52,188.43Zm22.95-119C21.25,67.29,11.38,29.22,11.38,29.22l4.33-13.93c2.2,7,10.7,5.56,10.7,5.56.85,6,8.49,6.34,8.49,6.34-2.14,5-1.24,10.45-.31,13.76a.78.78,0,0,0,1.5,0c1.54-5.68,6.39-5.63,6.39-5.63-.62,7.9,2.9,11.9,5.48,13.75A1,1,0,0,0,49.51,48a15.09,15.09,0,0,1,.62-8.53S54,44,64,51.82s7.56,13.64,7.56,13.64c-3.67-4.61-7.5-6.07-9.73-6.53A.76.76,0,0,0,61,60.11,10.45,10.45,0,0,1,62.47,69.46ZM185.74,152l-.83,3.43a7.31,7.31,0,0,1-10.69,4.7c-6.1-3.46-14.47-6.4-21-1.82-11.6,8.17-5.82,21.95,2.35,27.23,3.92,1.87,1.43,6.05-2.86,3.53s-19.49-10.66-38.61-7.26c-9.42,1.69-12.44-9.38-2.17-11.25S124.85,160,122.44,153.2s-9-12.6-23.52-6.3-28.67,6.38-33.06-4.15S67.6,123.24,76.79,118s9.84-14.4,4.75-20-6.91-16.74.58-25.43,18.67-8.22,26.28-4l34.49,20.89a19.76,19.76,0,0,1,8.54,10.79l3.07,9.45a16.91,16.91,0,0,0,3.82,6.43l24.8,26.13A10.6,10.6,0,0,1,185.74,152Z"/><path class="cls-2" d="M221,189.06l-10.91-9a4,4,0,0,0-4.66-.3l-1.81,1.13a2.25,2.25,0,0,0-1.05,1.9v1.71a1.49,1.49,0,0,0,2,1.4,9.25,9.25,0,0,1,6.74.05,27,27,0,0,1,8,5,1.27,1.27,0,0,0,1.81-.13h0A1.25,1.25,0,0,0,221,189.06Z"/><path class="cls-2" d="M209.34,189.58a27.1,27.1,0,0,0-4.8,16c0,12,6.63,21.71,14.81,21.71s14.81-9.72,14.81-21.71a31.23,31.23,0,0,0-.52-5.73l-3.95,5.73c0,9.11-4.47,16.51-10,16.51s-10-7.4-10-16.51c0-5.77,1.79-10.85,4.5-13.8A8.46,8.46,0,0,0,209.34,189.58Z"/><path class="cls-2" d="M81.09,47.11l19.57,5.17a22.76,22.76,0,0,1,6,2.52L129,68.31,117.74,40.67a11,11,0,0,0-7.9-6.61l-8.08-1.7A11,11,0,0,0,91.4,35.7Z"/><path class="cls-2" d="M91.5,29.11,79.05,42.37s-9.77-9.32-6.67-29.1C73.56,5.75,77.9-.25,82.62,0S83,9.52,84.16,15.4A29,29,0,0,0,91.5,29.11Z"/><path class="cls-2" d="M128.72,103.05a11,11,0,0,0-5.19-7c-2.9-1.72-6.22-1.92-9.51-1.58a31.06,31.06,0,0,0-9.85,2.71.63.63,0,0,0-.31.93.83.83,0,0,0,.41.65c2.55,1.62,3.61,3.82,4.34,6.66a21.92,21.92,0,0,0,2.91,7.11c2.63,3.79,8.09,6.47,12.48,3.9,3.16-1.85,4.76-6,4.91-9.79A11.36,11.36,0,0,0,128.72,103.05Zm-5.6,8.81a1.25,1.25,0,0,1-.31.45,1.16,1.16,0,0,1-.47.29,1.1,1.1,0,0,1-.56.1,2,2,0,0,1-.43-.06l0,0a1.84,1.84,0,0,1-.38-.17l0,0a1.76,1.76,0,0,1-.55-.6s0,0,0,0a2.08,2.08,0,0,1-.15-.39.09.09,0,0,1,0,0,1.45,1.45,0,0,1,0-.8,1.39,1.39,0,0,1,.39-.63l.3-.22h0a1.77,1.77,0,0,1,.38-.15h.09l.19,0h.19l.34,0a1.64,1.64,0,0,1,1.07,1.37A1.81,1.81,0,0,1,123.12,111.86Zm1-11.31a4.7,4.7,0,0,0-3.13-.29c-.72.26-.3.81-.1,1.32a4,4,0,0,1,.29,1.36c0,2-2,2.9-3.73,2.64s-3.57-1.44-3-3.35c.23-.84,1.07-1.74-.08-2.3a2.65,2.65,0,0,0-1.68-.16c-.89.36-1.74.79-2.64,1.14s-1.64-1.31-.68-1.75a11.83,11.83,0,0,1,3.86-.86,36.13,36.13,0,0,1,3.74-.25,19,19,0,0,1,7.46,1.59C124.93,99.88,124.68,100.79,124.1,100.55Z"/></g></g></svg>