<svg xmlns="http://www.w3.org/2000/svg" viewBox="0 0 233.55 121.19"><defs><style>.cls-1,.cls-14,.cls-8{fill:#1d1d1b;}.cls-1{opacity:0.2;}.cls-2{fill:#806f54;}.cls-3{fill:#3c3c3b;}.cls-4{fill:#3b2e27;}.cls-5{fill:#857357;}.cls-6{fill:#c9a57e;}.cls-7{fill:#57443a;}.cls-8{opacity:0.1;}.cls-9{fill:#fff;}.cls-10{fill:#878787;}.cls-11{fill:#c6c6c6;}.cls-12{fill:#ebebec;}.cls-13{fill:#706f6f;}.cls-15{fill:#7d786a;}.cls-16{fill:#cbc3ac;}.cls-17{fill:#917e60;}.cls-18{fill:#848830;}</style></defs><title>cows</title><g id="Layer_2" data-name="Layer 2"><g id="Layer_2-2" data-name="Layer 2"><path class="cls-1" d="M.06,120.2c2,.27,66.36-.52,66.36-.52l39.65,1.51,14.7-.19,30.66-1.91,36.35,1.06,36.77,1-22.61-10.27h1.64l-.25-5.64L203,98.07l-.2-4.54c1.16,1.65,2.38,3.25,3.68,4.8.65-2.75,1.32-5.5,2-8.26,2.83,2.82,5.68,5.6,8.55,8.37-.34-3.53-.53-7.06-.61-10.59l9,5q-.78-4.32-1.58-8.63a46.36,46.36,0,0,0,7.63,3.71q-4.65-5.54-8.78-11.41-3.34-4.72-6.34-9.68h0c.82.43,1.65.85,2.49,1.25,2.1,1,4.24,1.92,6.43,2.73a95.16,95.16,0,0,1-9.85-14.5q-1.37-2.46-2.56-5h0c0-.13,0-.26-.07-.39l1.88,1.1c2.25,1.27,4.56,2.45,6.92,3.52-2.69-4.22-5.31-8.46-7.87-12.76-1.48-2.48-3-5-4.39-7.49h0c.83.48,1.67.95,2.53,1.39h0c1.5.78,3,1.52,4.58,2.19a65.4,65.4,0,0,1-7.06-8.62c-.57-.82-1.11-1.65-1.63-2.49-.32-1.17-.64-2.35-.91-3.63a11.88,11.88,0,0,0,1.6,1c1.38.74,2.88,1.29,4.45,2.1-6.45-7-11.82-15.38-13-24.73A121.27,121.27,0,0,1,182.72,29,13.78,13.78,0,0,0,189,24.72c-.13.4-.24.81-.35,1.21v0c-.95,1.36-2,2.7-3,4-1.89,2.43-3.83,4.85-5.48,7.42C176.4,32.49,173.54,27,172.77,21a100.54,100.54,0,0,1-14.25,22,11.53,11.53,0,0,0,3.15-1.64,10.9,10.9,0,0,0,2.06-2c-.1.34-.2.67-.29,1h0c-.79,1.13-1.64,2.24-2.5,3.35s-1.81,2.29-2.67,3.45c0,0,0,0,0-.06A4.86,4.86,0,0,0,154,44a3,3,0,0,0,2.77-3.27,3.49,3.49,0,0,0-4-2.54c1.23-.49,2.62-1.17,2.88-2.44a2.72,2.72,0,0,0-1.7-2.76,8.41,8.41,0,0,0-3.5-.53A7,7,0,0,0,152.87,31a2.2,2.2,0,0,0,.52-2.57c-.8-1.4-3-1-4.45-1.79a2.51,2.51,0,0,0,2.65-3.21,3.1,3.1,0,0,0-3.42-1.72A3.16,3.16,0,0,0,149.76,18C149,15.9,146,15.3,144,16.2a2.2,2.2,0,0,0,.54-2.17,3.46,3.46,0,0,0-3.85-.83,2.22,2.22,0,0,0-.74,3.43,3.49,3.49,0,0,0-4.57.86A2.43,2.43,0,0,0,136.88,21a2.75,2.75,0,0,0-2.51,1.94,2.34,2.34,0,0,0,1.25,2.54,3.09,3.09,0,0,0-3.34,2.34,3,3,0,0,0,2.84,3.31,3.82,3.82,0,0,0-3.37,1.95,2.41,2.41,0,0,0,1.37,3.17,3.41,3.41,0,0,0-3.48,2.36,3.18,3.18,0,0,0,.84,3,2.85,2.85,0,0,0,.39.73,3,3,0,0,0-2.81,2,2.93,2.93,0,0,0,2.21,3.58,3.92,3.92,0,0,0-4.6,2.73,2.63,2.63,0,0,0,0,.79l-.14,0a3.34,3.34,0,0,0-1.6,1.75,3.28,3.28,0,0,0-.26,2.35,1.78,1.78,0,0,0,1.79,1.25l0,0a2.59,2.59,0,0,0-1.49,2.67,3,3,0,0,0,1.26,2,3.46,3.46,0,0,0-1.45,1.73,3,3,0,0,0,2,3.67,4.67,4.67,0,0,0-3.84,2.49c-.78,1.74.39,4.16,2.34,4.3-2,.1-4,1.34-4.4,3.21s1.45,4,3.36,3.51a3.45,3.45,0,0,0-2.38,4.53,3.63,3.63,0,0,0,5,1.49,2.42,2.42,0,0,0,.57,3.39,4.23,4.23,0,0,0,3.77.45,8.15,8.15,0,0,0,1.8-.83,2.72,2.72,0,0,0,1.39-.33,3.14,3.14,0,0,0,3,3.18,3.52,3.52,0,0,0,1.93-.51l-1.07,19.13h4.16l-11.64.66-22.22.06-7.38-.06L99.7,86.87v0L98.44,48.48a4,4,0,0,0,1.9-.29A3.32,3.32,0,0,0,102.22,45l.18.07a4,4,0,0,0,3.73-1.57,5.24,5.24,0,0,0,3.46,2.27c1.44.11,3-1.26,2.48-2.57a4,4,0,0,0,4.22,1.09c1.42-.6,2-2.76.73-3.66a2.8,2.8,0,0,0,3.78-1,2.66,2.66,0,0,0-1.4-3.56,2.8,2.8,0,0,0,2.38-.64A1.22,1.22,0,0,0,122,35a2.89,2.89,0,0,0,1.23-.23c1.42-.61,2-2.77.73-3.66a2.79,2.79,0,0,0,3.78-1,2.64,2.64,0,0,0-1.4-3.55,2.82,2.82,0,0,0,2.39-.64,1.8,1.8,0,0,0-.74-2.5,5.47,5.47,0,0,0-3-.5,2.8,2.8,0,0,0-1.27-3.67A3,3,0,0,0,120,20.46a2.71,2.71,0,0,0-2.29-3,2.79,2.79,0,0,0-2.34.92,2.78,2.78,0,0,0-.4-.16,2.67,2.67,0,0,0,1.41-.85,2,2,0,0,0-.67-3A2,2,0,0,0,118,12.24a2.09,2.09,0,0,0-2.76-1.53,1.78,1.78,0,0,0,.69-2.24,3.25,3.25,0,0,0-2-1.63,5.52,5.52,0,0,0-5,.77,1.72,1.72,0,0,0-1.52-1.28,4.08,4.08,0,0,0-1.59.14,2.24,2.24,0,0,0-2.89-.89,2.65,2.65,0,0,0-.5-3.69,2.86,2.86,0,0,0-3.79.54C98.79,1.65,97-1,94.88.38,94,1,92.93,1.71,93,2.79a5.06,5.06,0,0,0-3.13-1.22,3.09,3.09,0,0,0-2.8,1.61A2.14,2.14,0,0,0,88.1,6a2.62,2.62,0,0,0-3.36,2.66,2.86,2.86,0,0,0,1.09,1.87,2.4,2.4,0,0,0-1.12,1.31,2.39,2.39,0,1,0-4.78.08,2.75,2.75,0,0,0-3-2.07,2,2,0,0,0-1.36,3,2.47,2.47,0,0,0-3.52.19,2,2,0,0,0,.74,2.75,1.85,1.85,0,0,0-1.91,1.81,2.53,2.53,0,0,0,2.59,2.09,1.88,1.88,0,0,0-1.81,1.9,2.9,2.9,0,0,0-2-.61c-1.52.08-2.73,1.86-2,3.15a2.76,2.76,0,0,0-3.92-.34A2.16,2.16,0,0,0,64.11,27a2.1,2.1,0,0,0-2.41,1.71,2.8,2.8,0,0,0,2.52,2.71c-1.51-.3-2.79,1.58-2.23,3a3.64,3.64,0,0,0,3.83,1.9c-.88,1.1.08,2.88,1.47,3.19A4,4,0,0,0,71,37.91a5.24,5.24,0,0,0,3.46,2.27h0a4,4,0,0,0,.2,2.25c.74,1.86,3.07,2.76,5.12,2.53-1.17,1.47.1,3.84,2,4.26a5.28,5.28,0,0,0,5-2.09c1.17,1.48,2.71,2.89,4.63,3a3.48,3.48,0,0,0,2.66-1.06L92.21,76.62v0L92,79.81h0l-1.36,31.63-19.83-.16-24.73,3.36S-1.93,119.92.06,120.2ZM147.57,89.83c-1.06,1.35-2.17,2.68-3.28,4l0-.72,0-.72a3.25,3.25,0,0,0,2.34-3.82A4.76,4.76,0,0,0,147.57,89.83Zm8.08-38.71a.59.59,0,0,0,0,.08,3.35,3.35,0,0,0-.54-.08A2.81,2.81,0,0,0,155.65,51.12Zm5.61-1.74h0q-1.06,2.28-2.26,4.49a3.46,3.46,0,0,0-.32-.6A4.59,4.59,0,0,0,157.39,52,14.36,14.36,0,0,0,159,51a14.85,14.85,0,0,0,2.27-2ZM179,39.24c-.1.17-.2.33-.29.5-.07-.28-.14-.55-.2-.84Zm7-2.49h0q-1.34,2.86-2.85,5.65c-.51,1-1.06,1.9-1.6,2.85-.31-.42-.62-.84-.91-1.27-.48-.68-.93-1.37-1.36-2.07l-.27-1a17.57,17.57,0,0,0,1.73-.73c.89.42,1.83.8,2.81,1.31q-.85-.95-1.68-1.92a15.33,15.33,0,0,0,1.38-.88,17.38,17.38,0,0,0,2.73-2.4C186,36.44,186,36.59,186,36.75Zm-1.4,14.7h0c-.31.62-.66,1.23-1,1.84l-.56-1C183.58,52.05,184.11,51.76,184.62,51.45Zm-8.91,56.77-.09-2-.27-6-.16-3.77c1,1.37,2,2.7,3.05,4,.55-2.28,1.09-4.56,1.64-6.85q3.51,3.51,7.09,6.94c-.23-2.46-.37-4.92-.45-7.38l.89-.88,5.07,2.8.71,2.15c.19.57.61,1.28,1.21,1.12l.44-.68-.44,9.81-2.09-1Zm-30.92,2.45-.21-7.28h0l-.27-8.9a17.6,17.6,0,0,0,6.8-3.48q-.65,3.06-1.27,6.1a41.71,41.71,0,0,0,7.58-5.23q.79,3.48,1.57,7l6-5.91q1.09,3.33,2.18,6.66c.16.47.52,1.06,1,.93l.36-.56-.4,9-8.3.84Z"/><path class="cls-2" d="M77.77,90.64c-.09,0-11.5,1.9-13.74,5.89a5.14,5.14,0,0,0-.65,1.83,8,8,0,0,1-.39,2.36c-.28.55-.78,1-1,1.52a3.52,3.52,0,0,0-.18,1.37c0,1,0,2,0,3v.67c0,1.72,0,1.53,0,3.24a10.28,10.28,0,0,0,.2,2.35,8.31,8.31,0,0,0,.89,2.11,20.36,20.36,0,0,1,1.2,2.32l-6,0c0-.49,0-1,0-1.5a8.72,8.72,0,0,0-.81-4.15,4.32,4.32,0,0,1-.48-1,3.24,3.24,0,0,1,.15-1.34c.4-1.58.62-1.29.7-2.92a25.13,25.13,0,0,0-.3-5.41,10.17,10.17,0,0,1-.24-3.19,1.18,1.18,0,0,1,0-.2l0-.18a3,3,0,0,1,.56-1.12c.3-.37.7-.65,1-1a5.85,5.85,0,0,0,1.26-2.29,13.74,13.74,0,0,0,.37-1.4c.19-.9.31-1.82.41-2.74,0-.14,0-.29.05-.43.18-1.75.32-3.5.43-5.25.08-1.25.13-2.52.17-3.78-.09-.56-.18-1.11-.26-1.68s-.15-1.06-.22-1.59c0-.15,0-.31,0-.46C69,79,74.54,82.81,77.77,90.64Z"/><path class="cls-3" d="M58.14,117.26l6,0a20.36,20.36,0,0,0-1.2-2.32l-4.74.8C58.17,116.26,58.16,116.77,58.14,117.26Z"/><path class="cls-2" d="M104.37,112.36l.47.83a5.72,5.72,0,0,1,.7,2.62c0,.55,0,1.11-.05,1.7,2,0,4.05,0,6.14,0a25.26,25.26,0,0,1-1.46-2.29,8.79,8.79,0,0,1-1.11-3,10.51,10.51,0,0,1,0-2.24c.06-1.49.11-1.07.17-2.56,0-.48,0-1,.07-1.45a7,7,0,0,1,.6-3.1,9.47,9.47,0,0,0,.94-2,6.82,6.82,0,0,0,.1-3,7.24,7.24,0,0,1,.46-2.19c.09-.27.18-.52.26-.72l-5.25-.28c0,.09,0,.4-.07.72s-.07.65-.08.69a17,17,0,0,0-.78,1.75c-.42,1.84-.14,2.49,0,4.3.05.58-.12,3.41-.29,5.36a17.16,17.16,0,0,1-.2,1.79c-.52,2.54-.21.26-.78,1.68A1.91,1.91,0,0,0,104.37,112.36Z"/><path class="cls-4" d="M132,66.42a3,3,0,0,1-1.56.33,1.42,1.42,0,0,1-1-1.46,2.13,2.13,0,0,1,1-1.58,4.26,4.26,0,0,1,1.84-.57c.65-.07,1.3-.06,1.94-.13a8.18,8.18,0,0,0,4.34-1.85c.62-.52,1.15-1.13,1.76-1.67a4.41,4.41,0,0,1,2.1-1.13A15.82,15.82,0,0,0,140,62.09a7.3,7.3,0,0,1-2.91,3.25C135.54,66.12,133.64,65.85,132,66.42Z"/><path class="cls-5" d="M131.62,67.54a36.93,36.93,0,0,1,1.61-3.76c.55-.88,2-2.54,1.49-3.62s-6.08,1.54-7.11,2.63-1.62,2.64-.07,3.73C128.59,67.26,130.33,68.13,131.62,67.54Z"/><path class="cls-6" d="M47.34,90.3c0-.13.52-.87.58-1l.61-.88c.28-.71.51-.56.81-1.25a3.16,3.16,0,0,0,.46-1.64c.19-1.33.32-5.85.54-7.34.7-4.56,1.93-7.37,1.91-8,.27.07.3,1.11.57,1.19,0,.86-1.61,6.75-1.7,7.6a42.86,42.86,0,0,1-1.33,9.41h0c0,1.14-.12,2.42-.24,3.29,0,.29-.08.58-.14.86A8.36,8.36,0,0,1,47,97.31c0-.42,0-.84-.05-1.26l-.06.06A15.53,15.53,0,0,1,47.34,90.3Z"/><path class="cls-6" d="M50.42,110.53a3.91,3.91,0,0,0,.48,1,8.77,8.77,0,0,1,.8,4.16c0,.5,0,1,0,1.5h6a20.15,20.15,0,0,0-1.19-2.31,8.25,8.25,0,0,1-.9-2.12,10.14,10.14,0,0,1-.19-2.34V109.2c0-1.29,0-.68,0-2,0-.23,0-.45,0-.68,0-1,0-2,0-3a3.39,3.39,0,0,1,.17-1.38c.24-.55.74-1,1-1.51a7.74,7.74,0,0,0,.4-2.36,4.22,4.22,0,0,1,.24-1,4.92,4.92,0,0,1,.41-.87,4.7,4.7,0,0,1,1.1-1.29c1.94-1.68,5.42-2.88,8.23-3.63,2.43-.65,4.37-1,4.4-1-.21-.53-.44-1-.68-1.53C67.38,82.41,62.19,78.89,55,75.76l-.47-.21.06.46c.06.54.13,1.07.22,1.6s.17,1.12.26,1.68q-.06,1.89-.18,3.78c-.09,1.6-.22,3.2-.38,4.8,0,.15,0,.3,0,.44s0,.3,0,.44A25.36,25.36,0,0,1,54,91.48a11.71,11.71,0,0,1-.37,1.41,5.73,5.73,0,0,1-1.26,2.29c-.33.34-.72.61-1,1a3,3,0,0,0-.55,1.13l0,.17,0,.21a9.45,9.45,0,0,0,.18,2.89c0,.1,0,.2.05.3a25.1,25.1,0,0,1,.31,5.41c-.08,1.63-.31,1.34-.7,2.92A3.07,3.07,0,0,0,50.42,110.53Z"/><path class="cls-3" d="M51.66,117.23h6a20.15,20.15,0,0,0-1.19-2.31l-4.75.8C51.7,116.23,51.68,116.73,51.66,117.23Z"/><path class="cls-1" d="M46.88,96.11l.06-.06c0,.42,0,.84.05,1.26a8.36,8.36,0,0,0,2.42-4.74c.06-.28.1-.57.14-.86.12-.87.2-2.15.24-3.29-.48,1.61-.95,3.21-1.42,4.82l-.09-3.16c-.26,1.35-.53,2.71-.8,4.07,0-1.41,0-2.82,0-4.23l-.15.38A15.53,15.53,0,0,0,46.88,96.11Z"/><path class="cls-6" d="M52.18,72.23l.36,1.06.62,1.8,1.36,12.78L55,92.11v.1a4.06,4.06,0,0,0,2.39,3.2l0,.19-.21,1.77h0L66,93.62c4.64-2.67,12.29.13,12.29.13,1.17.39,1.58-.13,1.36-1.34l-.11-.62S94.66,96,101,95.42l.36,0h0c.72-.06,1.39-.08,2-.07a19.63,19.63,0,0,1,3.09.27l.23,0c1.25.21,2.29.48,3.26.63.74.11,1.6-.85,2.14-1.35l.67-.35A2.2,2.2,0,0,0,114,92.63a25.34,25.34,0,0,1,1.49-6.88l1.44-3.37a6,6,0,0,1,2.25-2.69l2.29-1.52c1.89,1.54,3.78,2,6.82,2.49l1,2.11c2.39,2,6.1,1,7.73-1.06a3,3,0,0,0,.39-1.57,6,6,0,0,0-.37-2.57c-1.63-3.27-1.34-3.8-2.44-7.4l-.53-3c-.82-3.61-2.94-5.6-7.25-7-4.18.91-4.87,2.12-17.57-.64a2.72,2.72,0,0,0-1.78,0l-5.62,1.74L65.4,62.82a7.63,7.63,0,0,1-2-.24l-1.56-.42a4.52,4.52,0,0,0-4.5,1.33L53,68.27A4,4,0,0,0,52.18,72.23Z"/><path class="cls-7" d="M129.75,65.09a3,3,0,0,1-1.56.33,1.42,1.42,0,0,1-1-1.46,2.1,2.1,0,0,1,1-1.58,4.26,4.26,0,0,1,1.84-.57c.65-.07,1.3-.06,1.94-.13a8.18,8.18,0,0,0,4.34-1.85c.62-.52,1.15-1.13,1.76-1.66a4.34,4.34,0,0,1,2.1-1.14,15.5,15.5,0,0,0-2.36,3.73A7.3,7.3,0,0,1,134.86,64C133.29,64.79,131.4,64.52,129.75,65.09Z"/><path class="cls-6" d="M130.23,66.63c.06-1.17-.91-1.82-.59-3,.2-.75-.58-2.19-.12-5.33-1.11-1.31-4.14,2.94-4.65,4.21a2.7,2.7,0,0,0,1.35,3.77C127.43,66.83,129.3,67.43,130.23,66.63Z"/><path class="cls-5" d="M127.23,59.82a7.81,7.81,0,0,1,1.34-1.16c-.75,1.73-.06,2.58,0,3.86s-.14,1.58-1.39,2.2C125.91,62,126,62,126.35,61A3.24,3.24,0,0,1,127.23,59.82Z"/><path class="cls-3" d="M105.49,117.51c2,0,4.05,0,6.14,0a25.26,25.26,0,0,1-1.46-2.29l-4.63.56C105.56,116.36,105.52,116.92,105.49,117.51Z"/><path class="cls-6" d="M99.44,112.33c.15.28.33.56.47.84a5.65,5.65,0,0,1,.7,2.61c0,.56,0,1.11,0,1.71,2,0,4.06,0,6.13,0-.51-.75-1-1.51-1.45-2.3a8.71,8.71,0,0,1-1.11-3,10.49,10.49,0,0,1,0-2.24c.06-1.49.11-1.06.17-2.55,0-.49,0-1,.07-1.45a6.86,6.86,0,0,1,.6-3.11,9.7,9.7,0,0,0,1-1.94,7,7,0,0,0,.09-3,7.36,7.36,0,0,1,.46-2.19,1.21,1.21,0,0,0,0-.14c.08-.22.14-.41.21-.57l-3.2-.18-2-.11c0,.09,0,.37-.06.66h0v.06c0,.33-.07.65-.08.69a17,17,0,0,0-.78,1.75c-.42,1.84-.14,2.5,0,4.31,0,.51-.09,2.88-.24,4.76,0,.21,0,.41-.05.6-.07.86-.14,1.55-.19,1.79-.53,2.53-.22.25-.79,1.67A1.9,1.9,0,0,0,99.44,112.33Z"/><path class="cls-3" d="M100.56,117.49c2,0,4,0,6.14,0a25.41,25.41,0,0,1-1.46-2.3l-4.63.56C100.63,116.33,100.59,116.89,100.56,117.49Z"/><path class="cls-1" d="M106.47,95.62c1.25.21,2.52.48,3.49.63.74.11,1.6-.85,2.14-1.35l.67-.35A2.2,2.2,0,0,0,114,92.63a25.34,25.34,0,0,1,1.49-6.88l1.44-3.37a6,6,0,0,1,2.25-2.69l2.29-1.52c1.89,1.54,3.78,2,6.82,2.49l1,2.11c2.39,2,6.1,1,7.73-1.06a3,3,0,0,0,.39-1.57,5,5,0,0,1-3.77,1,4.2,4.2,0,0,1-2.73-1.57,3.31,3.31,0,0,1-.51-3.06,3.45,3.45,0,0,1-4,2,5.64,5.64,0,0,1-3.57-3.2,16.28,16.28,0,0,1-1.18-4.57c.3,2.17-1.08,4.28-2.64,5.85s-3.53,3.08-4.53,5.14c-1.43,3-.79,6.82-2.93,9.31a22.8,22.8,0,0,1-3.18,2.51A5.79,5.79,0,0,0,106.47,95.62Z"/><path class="cls-1" d="M55.33,103.58a3.39,3.39,0,0,1,.17-1.38c.24-.55.74-1,1-1.51a7.74,7.74,0,0,0,.4-2.36,4.22,4.22,0,0,1,.24-1L66,93.62c4.64-2.67,12.29.13,12.29.13,1.17.39,1.58-.13,1.36-1.34l-.11-.62S94.66,96,101,95.42l.36,0v.06c0,.33-.07.65-.08.69a17,17,0,0,0-.78,1.75c-.42,1.84-.14,2.5,0,4.31,0,.51-.09,2.88-.24,4.76,1-1.72,2.37-3.77,1.84-5.7-1.13-4.11.29-6,.33-6.14.32-1.55,1.67-3.38,2-4.93-2.68,2.74-7,3.11-10.77,2.53C89,92,84.5,90.09,80.1,88.2l-4.84-2.07a2.45,2.45,0,0,0-3.1,1.11,7.27,7.27,0,0,1-1.55,1.84A14.81,14.81,0,0,1,69,90.32c-.68.44-1.36.86-2.07,1.26a43.81,43.81,0,0,1-8.23,3.63l-1.3.39c-.62.18-1.25.34-1.87.49a11.43,11.43,0,0,1-.76,4.25c-1,3.53-.7,5.46.63,8.86,0-1.29,0-.68,0-2,0-.23,0-.45,0-.68C55.33,105.56,55.32,104.57,55.33,103.58Z"/><path class="cls-1" d="M50.91,100.56c.07-.2.15-.41.24-.61.69-1.66,1.73-3.15,2.55-4.75a25.42,25.42,0,0,0,1.29-3c.51-1.44.94-2.91,1.36-4.37a9.29,9.29,0,0,0,.46-2.37,12,12,0,0,0-.88-3.65A19.5,19.5,0,0,1,55,75.76a19.71,19.71,0,0,1,2.72-9.91c-2.06,2.23-4.21,4.64-5.19,7.44l.62,1.8,1.36,12.78c0,.15,0,.3,0,.44s0,.3,0,.44A25.36,25.36,0,0,1,54,91.48a11.71,11.71,0,0,1-.37,1.41,5.73,5.73,0,0,1-1.26,2.29c-.33.34-.72.61-1,1a3,3,0,0,0-.55,1.13l0,.17,0,.21A9.45,9.45,0,0,0,50.91,100.56Z"/><path class="cls-1" d="M53.27,112.44a2.36,2.36,0,0,1-.35-4.42,3,3,0,0,0-.42,2.23A8.52,8.52,0,0,0,53.27,112.44Z"/><path class="cls-1" d="M101.36,112.85a2,2,0,0,1,.27-3.65,5.11,5.11,0,0,0-.5,1.35,1.71,1.71,0,0,0,.33,1.37,2.49,2.49,0,0,1,.41.45c.1.19.08.46-.11.54A.45.45,0,0,1,101.36,112.85Z"/><path class="cls-8" d="M59.4,71a10.34,10.34,0,0,0,1.92,4.92c.52.85,1,1.7,1.55,2.55a13.9,13.9,0,0,1-3.34-1,3.61,3.61,0,0,1-1.85-1.51,3.75,3.75,0,0,1-.27-1.73,12.47,12.47,0,0,1,.84-4.53,7.17,7.17,0,0,1,2.93-3.49A8.67,8.67,0,0,0,59.4,71Z"/><path class="cls-8" d="M118.21,63.33A13.67,13.67,0,0,1,117,69.48c-.84,1.87-2.12,3.62-2.26,5.66a1.82,1.82,0,0,0,1.53-.88c.36-.5.6-1.08,1-1.55a3,3,0,0,1,3.1-.85l-1.53-8.16a.76.76,0,0,0-.23-.5C118.5,63.09,118.22,63.15,118.21,63.33Z"/><path class="cls-8" d="M101.58,65.07c-.47-.4-.9-1.09-.54-1.6a1.44,1.44,0,0,1,.83-.45l6-1.63a8.88,8.88,0,0,0-1.38,1.74,3,3,0,0,0-.34,2.15,7,7,0,0,0,1.43,2.14,6.2,6.2,0,0,1,1.1,4.81c-1.18-.88-1.46-2.53-2.33-3.71C105.14,66.94,103.06,66.35,101.58,65.07Z"/><path class="cls-8" d="M105.06,69.33a2.56,2.56,0,0,0,.87,1.69c.46.46,1,.85,1.41,1.35a3.86,3.86,0,0,1,.58,3.9,3.15,3.15,0,0,1-1.21-1.43,17.72,17.72,0,0,0-4.12-4.92Z"/><path class="cls-8" d="M104.39,87.42a3.46,3.46,0,0,1-.3-1.83,4.09,4.09,0,0,1,.62-2.17,1.87,1.87,0,0,1,2-.81,2.1,2.1,0,0,0-1.37,1.9,4.28,4.28,0,0,0,.64,2.37c.41.73.91,1.4,1.28,2.14A4.09,4.09,0,0,1,104.39,87.42Z"/><path class="cls-8" d="M69,83.6c.28-.87.56-1.88,1.39-2.29a2.06,2.06,0,0,1,1.7,0,5.89,5.89,0,0,1,1.46,1l2.26,1.83-3-1A1.07,1.07,0,0,0,72.2,83c-.4.11-.49.63-.55,1a6.34,6.34,0,0,1-6.42,5.49A14.08,14.08,0,0,0,69,83.6Z"/><path class="cls-4" d="M131.91,69.25a2.33,2.33,0,0,1,.52.13l-.25-.53a2.39,2.39,0,0,0-2.41.78,5.81,5.81,0,0,1,1-.34.61.61,0,0,0-.24.5.73.73,0,0,0,.84.57.72.72,0,0,0,.74-.69A.57.57,0,0,0,131.91,69.25Z"/><path class="cls-9" d="M132,69.59a.22.22,0,0,1,0,.14.11.11,0,0,1-.13,0,.21.21,0,0,0-.05-.17l-.09-.09s0-.08,0-.11A.26.26,0,0,1,132,69.59Z"/><path class="cls-9" d="M131.27,70.1s0,0,0,0a.23.23,0,0,1-.25,0,.41.41,0,0,1-.2-.36.31.31,0,0,1,.28-.29c0,.07,0,.15,0,.22a.31.31,0,0,0,.06.16l.14.21S131.28,70.09,131.27,70.1Z"/><path class="cls-4" d="M136.28,79a.74.74,0,0,1,.39.55,2.89,2.89,0,0,1,.06,1.37.93.93,0,0,1-.13.34,1.45,1.45,0,0,1-.19.17l-.88.64a1.06,1.06,0,0,1-.43.23.36.36,0,0,1-.4-.22c-.07-.23.19-.41.31-.62a.87.87,0,0,0,0-.69c-.06-.23-.18-.44-.24-.67a.78.78,0,0,1,0-.37.84.84,0,0,1,.4-.49,1.82,1.82,0,0,1,.78-.27A.56.56,0,0,1,136.28,79Z"/><path class="cls-3" d="M99.67,63.69a.85.85,0,0,0,.13.65,13.36,13.36,0,0,0,.88,1.5l.18.25h0a5.4,5.4,0,0,0,1-.37,5.24,5.24,0,0,0,1.42-.94,2.49,2.49,0,0,0,.76-1.51.18.18,0,0,0,0-.1.14.14,0,0,0-.1-.07,3.33,3.33,0,0,0-1.92.12l-1.64.42a2,2,0,0,0-.2-.31A.65.65,0,0,0,99.67,63.69Z"/><path class="cls-10" d="M23.27,100a5.92,5.92,0,0,0,1.12,2.91,10.3,10.3,0,0,1,1,2.6c.09.35.15.7.21,1a23.92,23.92,0,0,1,.21,4.06,2.85,2.85,0,0,0,.17,1.21,5.47,5.47,0,0,0,.66,1,8.64,8.64,0,0,1,1.44,3.84q.12.68.24,1.32c1.8.08,3.35-.09,5.15,0-.43-.67-.83-1.25-1.21-1.83a16.72,16.72,0,0,1-1.15-2,11,11,0,0,1-.7-2.12c-.48-1.94-1-3.88-1.45-5.82L28.39,104a3.43,3.43,0,0,1-.15-1.24c.09-.5.45-.85.57-1.34a6.74,6.74,0,0,0-.17-2.11,5.7,5.7,0,0,1,1.23-3.58h0c.08-.12.17-.24.25-.34l-5.75.14c0,.1,0,.24-.06.4a9,9,0,0,1-.23,1.17A6.59,6.59,0,0,0,23.27,100Z"/><path class="cls-11" d="M27.62,101.46a7.12,7.12,0,0,1-3.9-1,6.57,6.57,0,0,1-2.52-3.55,20.22,20.22,0,0,1-.71-4.38,40.32,40.32,0,0,1,8.84-.68c2.45.07,5.07.44,6.88,2.09a3.86,3.86,0,0,0-2.14,2.4,13,13,0,0,1-1.33,3C31.6,100.93,29.53,101.46,27.62,101.46Z"/><path class="cls-11" d="M30.83,103.43c-.26-.08-.31-.41-.31-.68,0-1.62-.42-3.2-.43-4.82a8.93,8.93,0,0,1,2.12-.4,4.13,4.13,0,0,0-.45,2.26c-.05.88-.23,2-.32,2.92a1.16,1.16,0,0,1-.15.52A.42.42,0,0,1,30.83,103.43Z"/><path class="cls-11" d="M28.54,104.58c-.26-.08-.31-.42-.31-.69,0-1.62-.46-3.28-.47-4.9a9.16,9.16,0,0,1,2.16-.31,4.32,4.32,0,0,0-.66,2.27c-.05.88,0,2-.11,2.91a1.2,1.2,0,0,1-.15.52A.44.44,0,0,1,28.54,104.58Z"/><path class="cls-11" d="M25.83,104.42c-.26-.08-.31-.41-.31-.68l0-4.86a7,7,0,0,1,1.93-.36,4.78,4.78,0,0,0-.73,2.38c-.05.88-.16,1.92-.25,2.8a1.16,1.16,0,0,1-.15.52A.42.42,0,0,1,25.83,104.42Z"/><path class="cls-11" d="M22.94,103.45c-.26-.08-.3-.42-.31-.68,0-1.62,0-3.24,0-4.87a5.92,5.92,0,0,1,1.71-.35c-.47.75.15,1.08,0,1.94s-.65,2.36-.74,3.24a1.16,1.16,0,0,1-.15.52A.44.44,0,0,1,22.94,103.45Z"/><path class="cls-10" d="M71,114c.13.23.28.47.41.71A5,5,0,0,1,72,117a14.55,14.55,0,0,1,0,1.46c1.7,0,3.47,0,5.26,0a20.51,20.51,0,0,1-1.26-2,7.55,7.55,0,0,1-1-2.56A9.5,9.5,0,0,1,75,112c0-1.28.09-2.55.14-3.83,0-.41,0-.82,0-1.24a5.9,5.9,0,0,1,.5-2.66,8.28,8.28,0,0,0,.8-1.67,6,6,0,0,0,.07-2.56,6.37,6.37,0,0,1,.38-1.88c.08-.23.15-.44.22-.61l-4.49-.22c0,.08,0,.35-.06.61s-.06.56-.07.6a12.35,12.35,0,0,0-.65,1.5,9.12,9.12,0,0,0,0,3.68c.06.5-.08,2.92-.21,4.59-.07.74-.12,1.33-.17,1.54-.43,2.17-.18,1.85-.66,3.07A1.65,1.65,0,0,0,71,114Z"/><path class="cls-7" d="M103.94,62.86a12.75,12.75,0,0,1-1.93.51,2.55,2.55,0,0,0-1.64,1.06,1.93,1.93,0,0,0-.15.4h0c-.22,2.38-2.76,1.9-2.28-.07a4.38,4.38,0,0,1,1.39-2.07,6.57,6.57,0,0,1,2.9-1.32c.53-.11,1.07-.18,1.59-.33a4.87,4.87,0,0,0,2.53-1.79A4.58,4.58,0,0,1,103.94,62.86Z"/><path class="cls-12" d="M11,104l.09-.08c0,.63,0,1.26.08,1.89a12.54,12.54,0,0,0,3.59-7.12q.12-.65.21-1.29c.17-1.3.27-3.22.32-4.93h0a33.87,33.87,0,0,0,0-3.88c0-.6.1-1.2.18-1.79,0-.2.05-.4.08-.6.22-1.46.58-2.89.73-4.36a46,46,0,0,0,0-5.25c0-1.55.06-3.1.2-4.65a6,6,0,0,1,.63-2.46,2.75,2.75,0,0,1,.53-.65l.3-.21a4,4,0,0,0-.31,2.77,36.85,36.85,0,0,0,1.46,3.7,18.87,18.87,0,0,1,.71,4.69c0,.47.08,1,.13,1.42s.11,1,.17,1.5c-.08,1.12-.18,2.24-.29,3.35-.16,1.55-.35,3.1-.58,4.65l-.06.38a21.82,21.82,0,0,1-.47,2.41,10.3,10.3,0,0,1-.38,1.23,5.1,5.1,0,0,1-1.2,2,12.54,12.54,0,0,0-.95.83,2.56,2.56,0,0,0-.54,1,1.24,1.24,0,0,1,0,.16l0,.17a9.12,9.12,0,0,0,.09,2.85,22.1,22.1,0,0,1,.07,4.81,22,22,0,0,1-.81,4.27,2.83,2.83,0,0,0-.18,1.18,3.7,3.7,0,0,0,.38,1,7.8,7.8,0,0,1,.57,3.72c0,.44-.06.89-.09,1.33l5.31.23a21,21,0,0,0-1-2.1,7.36,7.36,0,0,1-.72-1.91,9.11,9.11,0,0,1-.08-2.09l.18-4.57c0-.2,0-.4,0-.6,0-.88.07-1.76.1-2.64a3.33,3.33,0,0,1,.21-1.22c.23-.49.69-.83.95-1.31A6.83,6.83,0,0,0,21,99.68a4.58,4.58,0,0,1,.65-1.6A9.38,9.38,0,0,1,23.53,96l.78,0c1.57-.06,5-.16,5.56-.2h.07L32,96c.72.06,1.44.11,2.17.15h0a119.81,119.81,0,0,0,15.74,0L51.49,96a43.46,43.46,0,0,1,6.65-.25,27,27,0,0,1,3.46.5h0c1,.2,2,.42,2.94.61l.86.16c.6.12,1.21.23,1.81.32l.13,0a3.48,3.48,0,0,1,0,1c-.24.63-.57.87-.76,1.52a9,9,0,0,0-.22,3.72c0,.44-.22,2.35-.45,4,0,.26-.07.5-.11.74-.11.72-.2,1.29-.26,1.49-.59,2.2-.32,1.88-.88,3.11A1.7,1.7,0,0,0,64.7,114l.37.72a4.63,4.63,0,0,1,.44,2.18,14.47,14.47,0,0,1-.13,1.56c1.7,0,3.47,0,5.25,0a23.12,23.12,0,0,1-1.16-2.06,7.31,7.31,0,0,1-.74-2.52,10.47,10.47,0,0,1,.08-1.94c.13-1.17.25-2.35.38-3.52,0-.53.11-1.07.17-1.6a6.42,6.42,0,0,1,.69-2.69A8.91,8.91,0,0,0,71,102.4a6.09,6.09,0,0,0,.25-2.59,4.14,4.14,0,0,1,.64-1.92h0l.69,0c1.63.08,3,.19,4.33.22h.51A5,5,0,0,0,80,97.65,5.32,5.32,0,0,0,81.52,96l.45-.64c.29-.41.57-.82.87-1.23a105,105,0,0,1,8.78-10.65l.8-.83c.88-.92,1.77-1.82,2.69-2.69l.28.05,2.72.5a2.67,2.67,0,0,0,.63,0l1-.08,2-.15,3.63-.27a2.49,2.49,0,0,1,1.2.22l.18.08a2.34,2.34,0,0,0,.24.09h0a2.32,2.32,0,0,0,.78.13h1.74a2.33,2.33,0,0,0,1-.22,2.43,2.43,0,0,0,.57-.35l.8-.67a2.37,2.37,0,0,0,.85-1.49,2.38,2.38,0,0,0,0-1.06l-.28-1a2.52,2.52,0,0,0-.94-1.34,3.64,3.64,0,0,0-.39-.23l-.31-.14a2.7,2.7,0,0,1-.66-.46l-5-4.74a2.63,2.63,0,0,1-.61-.94c-.56-1.39-.36-2.5-2.26-3.58a1.57,1.57,0,0,0-.23-.09h0c-.55-.2-1.09-.42-1.92-.67l-.16-.06L98.4,63h0a14.88,14.88,0,0,0-2.2,0,.15.15,0,0,0-.1,0s0,0,0,0a5.59,5.59,0,0,1-.58-1.41A2.85,2.85,0,0,0,95,60.41a.62.62,0,0,0-.48-.25.89.89,0,0,0-.33.08,1.57,1.57,0,0,0-.71.69,4.49,4.49,0,0,0-.48,1.8A4.44,4.44,0,0,0,93.22,64L92,64.31h0a1.77,1.77,0,0,0-.41.12,2.39,2.39,0,0,0-.88.62c-1.35.19-2.71.36-4.07.45a20.59,20.59,0,0,1-7.63-.71l-.72-.25c-1.36-.5-3.24-1.59-4.68-1.36A22,22,0,0,0,71,64l-.54.15a22.66,22.66,0,0,1-5.76.83A41.35,41.35,0,0,1,59,64.46a36.56,36.56,0,0,0-7.54-.27c-1.12.08-2.24.2-3.36.34s-2.16.26-3.24.34h0c-2.38.19-4.77.19-7.17.19H27a15.47,15.47,0,0,0-6,.79A6.27,6.27,0,0,0,16.37,69a8.83,8.83,0,0,0-1.06,2.47c-.73,2.87,0,5.9-.22,8.85-.2,2.25-.29,4.33-.56,6.32a19.36,19.36,0,0,1-1.3,4.95c-.45,1-1,2.05-1.4,3.1h0c-.07.19-.15.38-.21.57C10.67,98.08,10.81,101.09,11,104Z"/><path class="cls-3" d="M72,118.42c1.7,0,3.47,0,5.26,0a20.51,20.51,0,0,1-1.26-2L72,117A14.55,14.55,0,0,1,72,118.42Z"/><path class="cls-3" d="M65.38,118.42c1.7,0,3.47,0,5.25,0a23.12,23.12,0,0,1-1.16-2.06l-4,.5A14.47,14.47,0,0,1,65.38,118.42Z"/><path class="cls-3" d="M28.05,116.66q.12.68.24,1.32c1.8.08,3.35-.09,5.15,0-.43-.67-.83-1.25-1.21-1.83Z"/><path class="cls-3" d="M15.59,118l5.31.23a21,21,0,0,0-1-2.1l-4.24.54C15.66,117.08,15.62,117.53,15.59,118Z"/><path class="cls-3" d="M98.4,70.57A9.93,9.93,0,0,1,98,73.51a3.08,3.08,0,0,0,.57,2.8c.23.23.53.39.74.64.68.84,0,2.12.34,3.16a1.42,1.42,0,0,0,.14.36l2-.15,3.63-.27a2.49,2.49,0,0,1,1.2.22l.18.08a2.34,2.34,0,0,0,.24.09h0a2.32,2.32,0,0,0,.78.13h1.74a2.33,2.33,0,0,0,1-.22,2.43,2.43,0,0,0,.57-.35l.8-.67a2.47,2.47,0,0,0,.85-1.49,2.38,2.38,0,0,0,0-1.06l-.28-1a2.52,2.52,0,0,0-.94-1.34c-.47,1.52-1.7,1.47-3,1.27-1-.75-1.22-2.27-2.25-3-.41-.29-.9-.42-1.33-.7-1.62-1.06-1.47-3.64-2.92-4.93a3.66,3.66,0,0,0-1.12-.64c-.64-.25-1.33-.4-2-.64a4.84,4.84,0,0,1-.73-.34,4,4,0,0,1-1.07-.93A6.53,6.53,0,0,1,96.2,63l-.06-.16h0a1.08,1.08,0,0,0,0,.19s0,0,0,0a5.59,5.59,0,0,1-.58-1.41A2.85,2.85,0,0,0,95,60.41a.62.62,0,0,0-.48-.25.89.89,0,0,0-.33.08c1.42,1.32,1.18,5,2.58,7.11A7.73,7.73,0,0,1,98.4,70.57Z"/><path class="cls-3" d="M77.41,67.69c.19,1.53,2.3,2.13,2.72,3.61.34,1.2-.56,2.39-.66,3.63a2.94,2.94,0,0,0,1.27,2.57,2.65,2.65,0,0,0,1.09.46l.11,0c.59.08,1.3,0,1.68.46a1.89,1.89,0,0,1,.29,1.18,10.82,10.82,0,0,0,1.14,4.56A2,2,0,0,0,86.83,83c.36-.67.53-1.45.92-2.1.49-.82,1.37-1.52,1.34-2.48,0-.59-.34-1.29.1-1.68s.74-.17,1.11-.28c1.1-.31,1-1.9.56-2.94s-1.14-2.27-.48-3.2c.49-.7,1.5-.83,2-1.48,1-1.19-.21-2.94-.49-4.47a1.77,1.77,0,0,0-.41.12,2.39,2.39,0,0,0-.88.62c-1.35.19-2.72.13-4.08.22a20.7,20.7,0,0,1-7.62-.48C78.22,65.73,77.26,66.58,77.41,67.69Z"/><path class="cls-3" d="M81.27,84.61c-.48,1.11-1.83,1.56-2.59,2.51s-.83,2.53-1.16,3.84-1.45,2.71-2.76,2.37A5,5,0,0,1,73,92.07c-1.41-1.15-3.36-1.3-5.16-1.53s-3.79-.71-4.81-2.22a2.35,2.35,0,0,1-.44-1.51,2.57,2.57,0,0,1,2.16-1.94c1-.22,2.07-.09,3.09-.22a2.91,2.91,0,0,0,2.49-1.6,1.93,1.93,0,0,1,.34-.74,1.1,1.1,0,0,1,.63-.23c2.23-.23,4.48,1.59,6.58.81A3.11,3.11,0,0,0,77.51,81a1.68,1.68,0,0,1,.18-1.87c.78-.63,2.31.11,2.76-.78.1-.2.11-.43.19-.64a1,1,0,0,1,1.56-.33A6.34,6.34,0,0,0,81,80.52C80.94,81.9,81.81,83.33,81.27,84.61Z"/><path class="cls-3" d="M40.33,70.23c.75.47,1.7.87,1.94,1.73.34,1.18-.9,2.18-1.31,3.34-.65,1.83.91,3.75,2.63,4.66s3.73,1.34,5.19,2.63a7.51,7.51,0,0,1,2,3.14,12.65,12.65,0,0,0,1.59,3.73c.85,1.07,2.59,1.59,3.56.64a3.56,3.56,0,0,0,.69-2.59V82.2c0-1.21.11-2.63,1.13-3.29,1.19-.76,3.16-.13,3.88-1.34.61-1-.37-2.27-.41-3.46s1-2.33,2.11-3a10.27,10.27,0,0,0,3.09-2.24c.76-1,.7-2.81-.48-3.3-.3-.13-.64-.16-.94-.31a1.46,1.46,0,0,1-.34-.26,41.53,41.53,0,0,1-5.62-.85,35,35,0,0,0-7.38-.29c-1.11.08-2.54.11-3.66.25s-2.11.68-3.19.76A7.25,7.25,0,0,1,44.18,66a4.8,4.8,0,0,1-3.32,1.46,2,2,0,0,0-1.49.62C38.87,68.79,39.57,69.76,40.33,70.23Z"/><path class="cls-3" d="M36.72,83.51a2.21,2.21,0,0,0,.92-.49c.35-.44.13-1.07.11-1.63a2.18,2.18,0,0,1,2.07-2.18.58.58,0,0,1,.26.05c.19.12.18.4.16.62-.16,2,1.36,3.72,2.69,5.24s2.65,3.51,2,5.42a6.64,6.64,0,0,0-2.7.24c-1.81.63-2.89,2.44-4.46,3.54a3.2,3.2,0,0,1-1.87.66,1.61,1.61,0,0,1-1.53-1.09,2,2,0,0,1,.14-1.24A27.2,27.2,0,0,1,36,89.88a3.92,3.92,0,0,0,.42-3c-.25-.71-.84-1.35-.75-2.1A1.69,1.69,0,0,1,36.72,83.51Z"/><path class="cls-3" d="M19.81,86.05a1.8,1.8,0,0,0,1.08-.46,7,7,0,0,1,3-.91,3.32,3.32,0,0,0,2.58-1.57c.41-.9.07-2,.49-2.9.64-1.37,2.66-1.52,3.53-2.76,1.07-1.53-.16-3.56-.38-5.41a4.94,4.94,0,0,1,1.18-3.75c.35-.39.79-1,.41-1.38a.94.94,0,0,0-.6-.2c-1.27-.14-2.68-.24-3.68.55a10.66,10.66,0,0,0-1.13,1.28C24.78,70.27,22.15,71,21.13,73a7.35,7.35,0,0,0-.58,2.54c-.21,1.88-.42,3.77-.62,5.65.05.5.11,1,.17,1.5C20,83.82,19.92,84.94,19.81,86.05Z"/><path class="cls-3" d="M36,73.5c-.19.39-.65.57-.9.93-.43.63-.18,1.78-.92,2-.52.16-1-.4-1.09-.94s0-1.1-.12-1.62c-.21-.75-1-1.5-.57-2.18.82-.91,1.82-1.89,3-1.8-.57.34-.35,1.23,0,1.78S36.31,72.9,36,73.5Z"/><path class="cls-3" d="M60.64,94.89a2.31,2.31,0,0,0,1,1.34h0c1,.2,2,.42,2.94.61l.86.16c.65.13,1.29.24,1.94.34a3.48,3.48,0,0,1,0,1c-.24.63-.57.87-.76,1.52a9,9,0,0,0-.22,3.72c0,.44-.22,2.35-.45,4a3.18,3.18,0,0,0,.37-.18A4.89,4.89,0,0,0,68.61,103c-.07-1.31-.64-2.77.11-3.85.18-.25.42-.46.63-.7a3.11,3.11,0,0,0,.84-2.24,2.46,2.46,0,0,0-1.22-2,4.55,4.55,0,0,0-2.35-.29L64.11,94A6.54,6.54,0,0,0,60.64,94.89Z"/><path class="cls-3" d="M82.39,93.37a1.27,1.27,0,0,0,.45.76,105,105,0,0,1,8.78-10.65l.8-.83a30.54,30.54,0,0,0-3,1.9,10.1,10.1,0,0,0-3.39,3.55,10.21,10.21,0,0,1-1,2,11,11,0,0,1-1.72,1.38A2.11,2.11,0,0,0,82.39,93.37Z"/><path class="cls-13" d="M94.27,64.56c.15.18.23.4.37.58a.59.59,0,0,0,.59.27A1.27,1.27,0,0,0,95,64.6a5.65,5.65,0,0,1-.38-1.52c-.13-.82-.27-1.65-.4-2.47-.18,0-.3.19-.35.38a14.24,14.24,0,0,0-.43,2.16,1.3,1.3,0,0,0,0,.52C93.6,64.05,94,64.24,94.27,64.56Z"/><path class="cls-14" d="M103.35,69a4,4,0,0,1,.65.15l-.32-.66a3,3,0,0,0-3,1A7.24,7.24,0,0,1,102,69a.74.74,0,0,0-.3.63,1,1,0,0,0,2-.17A.69.69,0,0,0,103.35,69Z"/><path class="cls-9" d="M103.48,69.39a.23.23,0,0,1,0,.18.13.13,0,0,1-.16,0,.24.24,0,0,0-.06-.21l-.11-.1a.12.12,0,0,1,0-.14A.31.31,0,0,1,103.48,69.39Z"/><path class="cls-9" d="M102.55,70l0,0a.27.27,0,0,1-.31,0,.5.5,0,0,1-.26-.45.39.39,0,0,1,.34-.36c0,.09,0,.18,0,.27a.39.39,0,0,0,.08.2l.17.27A.06.06,0,0,1,102.55,70Z"/><path class="cls-14" d="M111.19,75.83a.64.64,0,0,1,.42.32,2.28,2.28,0,0,1,.36,1,.53.53,0,0,1,0,.28,1.28,1.28,0,0,1-.1.17l-.5.68a.8.8,0,0,1-.28.27.26.26,0,0,1-.34-.07c-.1-.15,0-.34.08-.53a.7.7,0,0,0-.13-.52c-.1-.15-.24-.29-.34-.44a.66.66,0,0,1-.11-.26.62.62,0,0,1,.18-.46,1.48,1.48,0,0,1,.51-.39A.82.82,0,0,1,111.19,75.83Z"/><path class="cls-7" d="M97.09,64.52h0c.55,0,1.12-.43,1.28-1.54a.13.13,0,0,0,0-.06,1.93,1.93,0,0,1,.15-.4,2.55,2.55,0,0,1,1.63-1.06,12.57,12.57,0,0,0,1.94-.51,4.63,4.63,0,0,0,2.42-3.62A4.84,4.84,0,0,1,102,59.12c-.52.16-1.06.23-1.59.34a6.57,6.57,0,0,0-2.9,1.32,4.41,4.41,0,0,0-1.38,2h0a1.08,1.08,0,0,0,0,.19A1.15,1.15,0,0,0,97.09,64.52Z"/><path class="cls-1" d="M71.89,97.89l.69,0c1.63.08,3,.19,4.33.22h.51A5,5,0,0,0,80,97.65,5.32,5.32,0,0,0,81.52,96l.45-.64c.29-.41.57-.82.87-1.23a105,105,0,0,1,8.78-10.65l.8-.83c.88-.92,1.77-1.82,2.69-2.69l.28.05,2.72.5a2.67,2.67,0,0,0,.63,0l1-.08,2-.15,3.63-.27a2.49,2.49,0,0,1,1.2.22l.18.08a2.34,2.34,0,0,0,.24.09h0a2.32,2.32,0,0,0,.78.13h1.74a2.33,2.33,0,0,0,1-.22,2.43,2.43,0,0,0,.57-.35l.8-.67a2.6,2.6,0,0,0,.6-.73,37.17,37.17,0,0,1-11.14-.47,11.31,11.31,0,0,1-4.17-1.48A4.8,4.8,0,0,1,94.93,73c-.14,3.51-2.67,6.4-5.06,9l-8.43,9.08a19.86,19.86,0,0,1-4.07,3.65,6.77,6.77,0,0,1-5.25,1C72,96.41,72,97.15,71.89,97.89Z"/><path class="cls-1" d="M27,85.54c0-.16,0-.33,0-.49A2.7,2.7,0,0,0,27,85.54Z"/><path class="cls-1" d="M19.3,107.53c0-.2,0-.4,0-.6,0-.88.07-1.76.1-2.64a3.33,3.33,0,0,1,.21-1.22c.23-.49.69-.83.95-1.31A6.83,6.83,0,0,0,21,99.68a4.58,4.58,0,0,1,.65-1.6A9.38,9.38,0,0,1,23.53,96l.78,0c1.57-.06,5-.16,5.56-.2h.07L32,96c.72.06,1.44.11,2.17.15h0a119.81,119.81,0,0,0,15.74,0L51.49,96a43.46,43.46,0,0,1,6.65-.25,27,27,0,0,1,3.46.5h0c1,.2,2,.42,2.94.61l.86.16c.6.12,1.21.23,1.81.32a20.18,20.18,0,0,0,2.47-7.25A122.21,122.21,0,0,1,47.6,93.66a13.7,13.7,0,0,1-6-.51c-1.52-.61-2.81-1.72-4.34-2.32A17.3,17.3,0,0,0,33.05,90a9.51,9.51,0,0,1-4.12-1.27A4,4,0,0,1,27,85.56c-.32,2.52-1.89,4.76-3.52,6.74S19.84,96.49,19,99.1,18.51,104.71,19.3,107.53Z"/><path class="cls-1" d="M19.17,91.08a21.82,21.82,0,0,1-.47,2.41,16.36,16.36,0,0,0,3.92-11.43,63.58,63.58,0,0,0-1.26-7.36,13,13,0,0,1,.45-7.36A4.14,4.14,0,0,0,18,69.74a5.19,5.19,0,0,0-.41,1.65,36.85,36.85,0,0,0,1.46,3.7,18.87,18.87,0,0,1,.71,4.69c0,.47.08,1,.13,1.42s.11,1,.17,1.5c-.08,1.12-.18,2.24-.29,3.35-.16,1.55-.35,3.1-.58,4.65Z"/><path class="cls-1" d="M11,104l.09-.08c0,.63,0,1.26.08,1.89a12.54,12.54,0,0,0,3.59-7.12q.12-.65.21-1.29c.17-1.3.27-3.22.32-4.93L13.17,99.7c0-1.57-.1-3.15-.15-4.73l-1.17,6.11c0-2.11,0-4.23,0-6.34-.07.19-.15.38-.21.57C10.67,98.08,10.81,101.09,11,104Z"/><path class="cls-1" d="M70.83,75.59a9.07,9.07,0,0,1-1.24-1.39,5,5,0,0,1,3.53-7.76,7.42,7.42,0,0,0,.45,10.2,2,2,0,0,1,.62.81c.1.33-.08.77-.42.79a.87.87,0,0,1-.61-.33Z"/><path class="cls-1" d="M68.62,77.67a2.67,2.67,0,0,1-1.53-1.25,2.09,2.09,0,0,1,.77-2.15l2.6,2.23a2.22,2.22,0,0,1,.82,1.06c.11.45-.19,1-.64,1a1.17,1.17,0,0,1-.4-.13Z"/><path class="cls-1" d="M24.34,75.28c.39,1.34,1.11,2.62,1.1,4a3.93,3.93,0,0,1-.74,2.28c-.54-2.35-1.07-4.71-1.61-7.06a9.7,9.7,0,0,1-.29-4.62c.4-1.51,1.81-2.87,3.36-2.66A8.69,8.69,0,0,0,24.34,75.28Z"/><path class="cls-3" d="M131.27,97.6c.22.06.34.28.45.48a13.22,13.22,0,0,1,.7,1.59c0,.1.07.2.1.29h0a5.15,5.15,0,0,1-.88.58,4.9,4.9,0,0,1-1.59.61,2.48,2.48,0,0,1-1.67-.27.15.15,0,0,1-.07-.19,3.27,3.27,0,0,1,1.22-1.49c.43-.37.87-.72,1.3-1.08a2.48,2.48,0,0,1-.13-.35A.63.63,0,0,1,131.27,97.6Z"/><path class="cls-15" d="M208.78,101.76a5.92,5.92,0,0,1-1.12,2.91,10,10,0,0,0-1,2.6q-.12.53-.21,1a26.18,26.18,0,0,0-.21,4.06,2.87,2.87,0,0,1-.17,1.21,5.31,5.31,0,0,1-.66,1,8.58,8.58,0,0,0-1.43,3.84c-.08.44-.16.88-.25,1.32-1.79.07-3.35-.09-5.14,0,.42-.68.82-1.25,1.2-1.84a17.39,17.39,0,0,0,1.16-2,10.17,10.17,0,0,0,.69-2.13c.49-1.94,1-3.88,1.46-5.82.18-.71.36-1.43.53-2.14a3,3,0,0,0,.15-1.23c-.08-.51-.44-.86-.57-1.34a6.82,6.82,0,0,1,.18-2.12,5.78,5.78,0,0,0-1.23-3.58h0l-.25-.34,5.74.15c0,.1,0,.24.07.4a7.16,7.16,0,0,0,.23,1.16A7,7,0,0,1,208.78,101.76Z"/><path class="cls-16" d="M204.42,103.19a7.12,7.12,0,0,0,3.9-1,6.53,6.53,0,0,0,2.52-3.56,19,19,0,0,0,.71-4.38,41.58,41.58,0,0,0-8.84-.68c-2.45.08-5.06.45-6.88,2.1A3.78,3.78,0,0,1,198,98.09a13.3,13.3,0,0,0,1.34,3C200.45,102.65,202.52,103.19,204.42,103.19Z"/><path class="cls-16" d="M201.22,105.16c.25-.08.3-.42.3-.69,0-1.62.42-3.19.43-4.81a8.93,8.93,0,0,0-2.12-.4,4.13,4.13,0,0,1,.46,2.26c.05.88.22,2,.32,2.92a1.19,1.19,0,0,0,.14.52A.44.44,0,0,0,201.22,105.16Z"/><path class="cls-16" d="M203.51,106.31c.25-.09.3-.42.3-.69,0-1.62.46-3.28.47-4.9a9.16,9.16,0,0,0-2.15-.32,4.42,4.42,0,0,1,.66,2.28c.05.88,0,2,.11,2.9a1.15,1.15,0,0,0,.14.52A.45.45,0,0,0,203.51,106.31Z"/><path class="cls-16" d="M206.22,106.15c.26-.08.3-.42.3-.69l0-4.86a7.39,7.39,0,0,0-1.92-.35,4.78,4.78,0,0,1,.73,2.38c0,.88.16,1.92.25,2.8a1.34,1.34,0,0,0,.14.52A.45.45,0,0,0,206.22,106.15Z"/><path class="cls-16" d="M209.11,105.18c.25-.08.3-.42.3-.69l0-4.86a5.92,5.92,0,0,0-1.72-.35c.47.74-.14,1.07,0,1.94s.64,2.36.74,3.23a1,1,0,0,0,.14.52A.44.44,0,0,0,209.11,105.18Z"/><path class="cls-15" d="M161,115.74c-.13.23-.29.47-.41.71a4.75,4.75,0,0,0-.61,2.23c0,.48,0,1,0,1.46-1.69,0-3.47,0-5.25,0,.44-.64.88-1.29,1.26-2a7.5,7.5,0,0,0,1-2.57,10.2,10.2,0,0,0,.06-1.91c-.05-1.28-.1-2.56-.14-3.83,0-.42,0-.83-.05-1.24a6.19,6.19,0,0,0-.5-2.66,8.26,8.26,0,0,1-.8-1.67,5.8,5.8,0,0,1-.07-2.56,6.39,6.39,0,0,0-.39-1.88c-.07-.23-.15-.44-.22-.61l4.5-.22c0,.07,0,.34.06.61s.06.56.06.59a14.38,14.38,0,0,1,.66,1.51,9.12,9.12,0,0,1,0,3.68c-.05.49.09,2.92.22,4.59.06.74.12,1.33.16,1.53.44,2.17.18,1.86.66,3.07A1.74,1.74,0,0,1,161,115.74Z"/><path class="cls-17" d="M128.1,100.58a13.31,13.31,0,0,0,1.54-1.27,2.56,2.56,0,0,1,1.82-.71,1.39,1.39,0,0,1,.41.12h0c2.06,1.21,3.16-1.14,1.27-1.9a4.36,4.36,0,0,0-2.48-.08,6.68,6.68,0,0,0-2.77,1.58c-.4.36-.77.76-1.2,1.1a4.85,4.85,0,0,1-2.93,1A4.61,4.61,0,0,0,128.1,100.58Z"/><path class="cls-16" d="M216.33,108.25a22.08,22.08,0,0,1,.07-4.81,9.78,9.78,0,0,0,.09-2.85h0a.85.85,0,0,0,0-.17s0-.1,0-.15a2.53,2.53,0,0,0-.53-1c-.28-.32-.65-.55-.95-.84a5,5,0,0,1-1.21-2c-.15-.4-.27-.82-.38-1.23-.21-.79-.34-1.61-.47-2.41,0-.13,0-.26-.06-.39-.22-1.54-.42-3.09-.57-4.64-.12-1.11-.22-2.23-.3-3.35l.18-1.51c0-.47.09-.94.12-1.42a19,19,0,0,1,.72-4.69c.33-1,.84-1.87,1.19-2.81.13-.81.24-1.63.31-2.47,0,0,0,0,0-.07a4.44,4.44,0,0,0-.36-1.12l.3.22c.06.06.1.13.15.19a7.12,7.12,0,0,1,.3-1.08A5.79,5.79,0,0,0,211,67.58a15.52,15.52,0,0,0-6-.79H194.42c-2.39,0-4.78,0-7.17-.18l0,0c-1.09-.08-2.16-.2-3.25-.33a21,21,0,0,0-3.35-.35c-19.88.94-23.62-5.13-29.22,5.18l-4.06,22.28c.43.56,3.84,3.4,6,5.13.62.5,1.14.9,1.45,1.13a1.6,1.6,0,0,0,.33.22c1.32,0,2.7-.13,4.33-.22l.69,0h0l.27.52a3.24,3.24,0,0,1,.38,1.4,6.13,6.13,0,0,0,.24,2.6,9.19,9.19,0,0,0,.93,1.68,6.65,6.65,0,0,1,.69,2.69c.05.54.11,1.07.17,1.6.12,1.18.25,2.36.37,3.53a9.54,9.54,0,0,1,.08,1.93,7,7,0,0,1-.74,2.52,21.72,21.72,0,0,1-1.15,2.06c1.78,0,3.55,0,5.25,0a14.16,14.16,0,0,1-.14-1.55,4.84,4.84,0,0,1,.45-2.19l.36-.71a1.67,1.67,0,0,0,.08-1.14c-.57-1.22-.29-.91-.88-3.1-.06-.2-.16-.78-.27-1.5,0-.23-.07-.47-.1-.74-.23-1.6-.46-3.52-.45-3.95a9.27,9.27,0,0,0-.22-3.73c-.19-.65-.53-.88-.76-1.51a3.37,3.37,0,0,1,0-1,.5.5,0,0,0,.13,0c.61-.09,1.21-.19,1.81-.31l.87-.16c1-.2,2-.42,2.93-.61h0a28.56,28.56,0,0,1,3.46-.51,46.22,46.22,0,0,1,6.65.25c.52,0,1,.07,1.56.11,2.66.18,5.33.28,8,.28s5.16-.1,7.74-.26c.73,0,1.44-.09,2.17-.16l2.07-.17h.08c.55,0,4,.13,5.55.19l.78,0a9,9,0,0,1,1.87,2.08,4.72,4.72,0,0,1,.65,1.59,6.88,6.88,0,0,0,.43,2.09c.26.47.73.82,1,1.3a3.6,3.6,0,0,1,.21,1.22c0,.89.07,1.77.1,2.65,0,.19,0,.39,0,.6.06,1.51.13,3,.19,4.58a10.32,10.32,0,0,1-.08,2.08,8.33,8.33,0,0,1-.72,1.91,16.67,16.67,0,0,0-1,2.1l5.3-.23c0-.44-.07-.89-.08-1.33a7.64,7.64,0,0,1,.56-3.72,3.63,3.63,0,0,0,.38-1,2.65,2.65,0,0,0-.17-1.18A20.76,20.76,0,0,1,216.33,108.25Z"/><path class="cls-16" d="M131.85,104.05a2.36,2.36,0,0,1,.4,1l1,6.79c-.46,2.43.28,3.93,1.46,4.62h0c2,1.16,5.26,0,5.9-3.15h0l.06-.24,0-.2a2.39,2.39,0,0,1,.52-1.1c5.58-6.63,4.08-4.52,5.93-8.4,2.33-.41,5-2.12,7.68-3.77A34.27,34.27,0,0,1,159.86,97a10.68,10.68,0,0,1,3.47-.76L151.41,71.09c-1.52,3.08-11.49,17.66-13.75,20-1,.11-1.56.79-2.33,1.49a4.53,4.53,0,0,0-1-.91c-1.63-1.09-4.28-1-2.32,1.36a5.3,5.3,0,0,1,.8,1.28h0l-.08.07a5,5,0,0,0-1.3,1.83c-.3.74-.57,1.79-1.11,3.67a2.17,2.17,0,0,0-.07.24C130,102.28,131.05,102.77,131.85,104.05Z"/><path class="cls-3" d="M160.05,120.14c-1.69,0-3.47,0-5.25,0,.44-.64.88-1.29,1.26-2l4,.5C160,119.16,160,119.64,160.05,120.14Z"/><path class="cls-3" d="M166.67,120.14c-1.7,0-3.47,0-5.25,0,.4-.67.82-1.35,1.15-2l4,.5A14.38,14.38,0,0,0,166.67,120.14Z"/><path class="cls-3" d="M204,118.39c-.08.44-.16.88-.25,1.32-1.79.07-3.35-.09-5.14,0,.42-.68.82-1.25,1.2-1.84Z"/><path class="cls-3" d="M216.46,119.7l-5.31.23a16.67,16.67,0,0,1,1-2.1l4.24.53C216.39,118.81,216.42,119.26,216.46,119.7Z"/><path class="cls-13" d="M135.13,93.73c.06.22.19.42.26.64a.6.6,0,0,1-.13.64c-.26-.11-.39-.4-.53-.65a6.07,6.07,0,0,0-1-1.2L132,91.4c.08-.17.33-.14.51-.07a13.39,13.39,0,0,1,2,.92,1.14,1.14,0,0,1,.41.31C135.12,92.88,135,93.34,135.13,93.73Z"/><path class="cls-14" d="M133.41,103.67a3,3,0,0,0-.26.61l-.35-.63a3,3,0,0,1,2.56-1.86,7.38,7.38,0,0,0-1.11.81.74.74,0,0,1,.68.13,1,1,0,0,1-1.29,1.5A.69.69,0,0,1,133.41,103.67Z"/><path class="cls-9" d="M133.67,104a.22.22,0,0,0,.15.08A.16.16,0,0,0,134,104a.24.24,0,0,1-.14-.17s0-.1,0-.15a.12.12,0,0,0-.1-.1A.33.33,0,0,0,133.67,104Z"/><path class="cls-9" d="M134.73,103.65h0a.28.28,0,0,0,.17-.26.49.49,0,0,0-.22-.47.38.38,0,0,0-.49.06c.05.08.16.09.23.15a.32.32,0,0,1,.11.17l.12.3A.1.1,0,0,0,134.73,103.65Z"/><path class="cls-14" d="M134.38,114.05a.6.6,0,0,0,0,.52,2.34,2.34,0,0,0,.6.89.75.75,0,0,0,.24.15.68.68,0,0,0,.2,0h.84a.82.82,0,0,0,.38-.06.29.29,0,0,0,.15-.32c-.07-.18-.31-.17-.48-.24a.77.77,0,0,1-.35-.42c-.06-.17-.09-.36-.16-.53a.64.64,0,0,0-.15-.25.66.66,0,0,0-.48-.12,1.5,1.5,0,0,0-.61.19A.58.58,0,0,0,134.38,114.05Z"/><path class="cls-6" d="M133.45,96l0,0c-.32.44-1,.65-2,.14l-.05,0A1.38,1.38,0,0,0,131,96a2.55,2.55,0,0,0-1.82.7A12.45,12.45,0,0,1,127.61,98a4.63,4.63,0,0,1-4.35-.16,5,5,0,0,0,2.94-1c.42-.33.8-.73,1.2-1.1a6.55,6.55,0,0,1,2.77-1.57,4.42,4.42,0,0,1,2.47.07h0l.17.08A1.16,1.16,0,0,1,133.45,96Z"/><path class="cls-1" d="M205,87.26a3.88,3.88,0,0,1,0-.48A3.88,3.88,0,0,1,205,87.26Z"/><path class="cls-1" d="M212.75,109.25c0-.2,0-.39,0-.6,0-.88-.06-1.76-.1-2.64a2.92,2.92,0,0,0-.21-1.21c-.22-.49-.69-.84-.95-1.31a6.88,6.88,0,0,1-.43-2.09,4.58,4.58,0,0,0-.65-1.6,9.36,9.36,0,0,0-1.87-2.07l-.77,0c-1.58-.06-5-.17-5.56-.21h-.07l-2.08.18c-.72.06-1.44.12-2.17.16h0a119.81,119.81,0,0,1-15.74,0c-.52,0-1-.06-1.56-.11a45,45,0,0,0-6.66-.25,28.4,28.4,0,0,0-3.45.51h0c-1,.19-2,.41-2.93.61l-.87.16c-.6.11-1.2.22-1.81.31a19.85,19.85,0,0,1-2.46-7.25,123,123,0,0,0,22.07,3.6,13.54,13.54,0,0,0,5.95-.52c1.53-.6,2.81-1.71,4.34-2.31a17,17,0,0,1,4.26-.84,9.69,9.69,0,0,0,4.13-1.27,4,4,0,0,0,1.9-3.16c.32,2.52,1.89,4.75,3.52,6.74s3.67,4.19,4.52,6.79A14.47,14.47,0,0,1,212.75,109.25Z"/><path class="cls-1" d="M212.87,92.81a24.42,24.42,0,0,0,.47,2.41,16.36,16.36,0,0,1-3.92-11.43,66.39,66.39,0,0,1,1.27-7.37,12.93,12.93,0,0,0-.46-7.35,4.14,4.14,0,0,1,3.78,2.4,5.48,5.48,0,0,1,.41,1.65A36.69,36.69,0,0,1,213,76.81a18.48,18.48,0,0,0-.71,4.69c0,.48-.08,1-.13,1.43l-.18,1.5c.09,1.12.18,2.24.3,3.35.16,1.55.35,3.1.57,4.64C212.83,92.55,212.86,92.68,212.87,92.81Z"/><path class="cls-1" d="M161.22,77.32a10.9,10.9,0,0,0,1.24-1.39,5,5,0,0,0-3.54-7.77,7.43,7.43,0,0,1-.44,10.2,2.05,2.05,0,0,0-.63.81.61.61,0,0,0,.43.8.89.89,0,0,0,.6-.34Z"/><path class="cls-1" d="M163.43,79.4A2.65,2.65,0,0,0,165,78.15a2.08,2.08,0,0,0-.77-2.15l-2.6,2.23a2.24,2.24,0,0,0-.82,1.06c-.1.44.19,1,.65,1a1,1,0,0,0,.4-.12Z"/><path class="cls-1" d="M207.7,77c-.39,1.34-1.11,2.63-1.1,4a4,4,0,0,0,.75,2.28c.53-2.36,1.07-4.71,1.6-7.07a9.57,9.57,0,0,0,.29-4.62c-.4-1.51-1.81-2.87-3.35-2.65A8.7,8.7,0,0,1,207.7,77Z"/><path class="cls-1" d="M138.14,115.24a9.73,9.73,0,0,0,1.94-2.55,45.35,45.35,0,0,0,3.41-6.56,15.07,15.07,0,0,0,1.13-7.22c2.33,1.36,5.64,1.75,7.5-.21.41-.43.91-1.28,1.22-1.44,1.67-.89,4.33,1.49,5.77.23l1.07,2.12-.71,0c-1.63.09-3,.2-4.33.22a1.6,1.6,0,0,1-.33-.22c-2.73,1.65-5.35,3.36-7.68,3.77-1.85,3.88-.35,1.77-5.93,8.4a2.39,2.39,0,0,0-.52,1.1l0,.2-.06.24h0c-.64,3.11-3.89,4.31-5.9,3.15A6,6,0,0,0,138.14,115.24Z"/><path class="cls-16" d="M233.3,77a8.92,8.92,0,0,1-2.8,4.79,7.92,7.92,0,0,1-5.16,1.89,7,7,0,0,1-4.28-1.38,10.83,10.83,0,0,1-3.18-4.72c-.22-.56-.42-1.12-.62-1.69a24,24,0,0,0-1.38-3.36,6.68,6.68,0,0,0-3.63-3.41l.3-.95A7.61,7.61,0,0,1,216.76,72a24.55,24.55,0,0,1,1.44,3.5c.2.55.4,1.11.61,1.65a9.84,9.84,0,0,0,2.86,4.3,6.68,6.68,0,0,0,8.18-.48,8.62,8.62,0,0,0,2.49-8.22,21.43,21.43,0,0,0-.92-2.85c-.95-2.5-2.23-5.26-1.16-7.91a15.75,15.75,0,0,1,3.09-4.35c0,.35.07.71.08,1.06A17,17,0,0,1,232,66.34a.31.31,0,0,0,.09.36l-.18-.08A7.62,7.62,0,0,0,232,68.7c.1.29.21.58.32.86a20.89,20.89,0,0,1,1,3A10.2,10.2,0,0,1,233.3,77Z"/><path class="cls-1" d="M233.3,77a23.37,23.37,0,0,0-1.45-6.83c-.14-.46-.29-.94-.41-1.41h0a11.71,11.71,0,0,1-.2-6.9v0l.09-.23v.08c0,.66.08,1.32.13,2s.08,1.4.13,2.09a31.32,31.32,0,0,1,1.84-7A17,17,0,0,1,232,66.34a.31.31,0,0,0,.09.36l-.18-.08A7.62,7.62,0,0,0,232,68.7c.1.29.21.58.32.86a20.89,20.89,0,0,1,1,3A10.2,10.2,0,0,1,233.3,77Z"/><path class="cls-18" d="M106.16,121.19h1.93a15.29,15.29,0,0,0-1.47-2.84,12.55,12.55,0,0,0-3.68-3.52,15.54,15.54,0,0,1,2.49,3.93A11.35,11.35,0,0,1,106.16,121.19Z"/><path class="cls-18" d="M108.77,119.32c.11.62.19,1.24.27,1.87h1.66c-.27-.8-.54-1.59-.84-2.36a9,9,0,0,0-3.21-4.42A9.34,9.34,0,0,1,108.77,119.32Z"/><path class="cls-18" d="M111,121.19a11.66,11.66,0,0,1,.06-2.57,15.17,15.17,0,0,1,.62-2.92,21.53,21.53,0,0,1,1-2.26,14.82,14.82,0,0,0-2.82,5.33,19.24,19.24,0,0,0-.51,2.42Z"/><path class="cls-18" d="M107.58,121.19h1.69c-.25-.67-.51-1.33-.82-2a23.62,23.62,0,0,0-2.6-4.15,26.69,26.69,0,0,1,1.42,4.38C107.4,120,107.5,120.6,107.58,121.19Z"/><path class="cls-18" d="M112.26,121.19q.24-1.25.57-2.46a39.84,39.84,0,0,1,2-5.19,36.4,36.4,0,0,0-3,4.53c-.54,1-1,2.06-1.45,3.12Z"/><path class="cls-18" d="M114.7,121.19c.11-.89.22-1.78.34-2.66.26-2,.53-3.89.79-5.84l-1.89,5.36c-.36,1-.75,2.09-1.12,3.14Z"/><path class="cls-18" d="M115.43,121.19a15,15,0,0,1,.81-1.77l1.29-2.59c.46-.93.92-1.87,1.39-2.8-1.1,1.31-2.2,2.61-3.29,3.92a15.26,15.26,0,0,0-2.15,2.9,3.49,3.49,0,0,0-.15.34Z"/><path class="cls-18" d="M104.59,121.19h2l-.06-.19a21.54,21.54,0,0,0-1.05-2.47,22.55,22.55,0,0,0-2.44-3.84,25.61,25.61,0,0,1,1.26,4.27C104.41,119.7,104.53,120.44,104.59,121.19Z"/><path class="cls-18" d="M102.57,121.19h2.12c-.44-.87-.92-1.71-1.37-2.56l-1.73-3.29c.22,1.27.43,2.55.65,3.82C102.36,119.83,102.46,120.51,102.57,121.19Z"/><path class="cls-18" d="M116.89,121.19c0-.07,0-.14,0-.21a21.82,21.82,0,0,1,1.11-3l1.71-4.11-2.67,3.53a14.9,14.9,0,0,0-2.27,3.78Z"/><path class="cls-18" d="M119.36,121.19a17.08,17.08,0,0,1,.82-3.53,15.92,15.92,0,0,1,2-3.6,12.89,12.89,0,0,0-3.06,2.94,17.35,17.35,0,0,0-2.15,4.15l.13,0Z"/><path class="cls-18" d="M121.21,121.19c.17-.79.37-1.58.59-2.35a12.28,12.28,0,0,1,2.31-4.42,10.48,10.48,0,0,0-3.23,3.17,37.08,37.08,0,0,0-2,3.6Z"/><path class="cls-18" d="M113.48,121.19c.13-.74.25-1.48.39-2.22l.72-3.92-1.8,3.38c-.48.92-1,1.83-1.48,2.76Z"/><path class="cls-18" d="M123,121.19c.25-.81.57-1.58.89-2.34a32.55,32.55,0,0,1,2.48-4.5,27.93,27.93,0,0,0-3.68,4.11,18.26,18.26,0,0,0-1.67,2.73Z"/><path class="cls-18" d="M101.73,121.19h2c-.48-.86-1-1.71-1.52-2.52a37.73,37.73,0,0,0-2.66-3.43c.56,1.32,1.08,2.65,1.57,4C101.37,119.89,101.55,120.54,101.73,121.19Z"/><path class="cls-18" d="M65.18,118.07a11.87,11.87,0,0,1,.59,3.12h1.91l-.06-.29a14.78,14.78,0,0,0-1.2-3.05,12.5,12.5,0,0,0-3.74-4.26A18.76,18.76,0,0,1,64,115.35,14,14,0,0,1,65.18,118.07Z"/><path class="cls-18" d="M69.53,121.19a22,22,0,0,1-.68-3.09,23.11,23.11,0,0,1,0-4.63,22,22,0,0,0-1.15,4.79,24.07,24.07,0,0,0-.11,2.93Z"/><path class="cls-18" d="M70.11,121.19a8.5,8.5,0,0,1,.26-1.74,12.27,12.27,0,0,1,1.88-3.92,10.32,10.32,0,0,0-3,3.45,11.86,11.86,0,0,0-.85,2.21Z"/><path class="cls-18" d="M72.76,121.19a11,11,0,0,1,1-2.94,12.64,12.64,0,0,1,2.83-3.7,11.35,11.35,0,0,0-4,3.27,12.91,12.91,0,0,0-1.77,3.37Z"/><path class="cls-18" d="M63.05,119.51a7.46,7.46,0,0,1,.46,1.68h1.83a10.71,10.71,0,0,0-1.1-2.09,8.72,8.72,0,0,0-3.2-2.78A10.74,10.74,0,0,1,63.05,119.51Z"/><path class="cls-18" d="M59,118.58a11.45,11.45,0,0,1,1.13,2.61h2.15A15.07,15.07,0,0,0,60.1,118,11.43,11.43,0,0,0,56,115.13,13.92,13.92,0,0,1,59,118.58Z"/><path class="cls-18" d="M74.29,121.19a17.14,17.14,0,0,1,2.1-3.36,17.87,17.87,0,0,1,3.37-3.15,16.3,16.3,0,0,0-4.09,2,19.64,19.64,0,0,0-3.75,3.71l.89.76Z"/><path class="cls-18" d="M61.67,121.19H63.6L64,121a17.68,17.68,0,0,0-2.11-3.85,14.16,14.16,0,0,0-2.9-2.84,16.16,16.16,0,0,1,1.78,3.34A16.69,16.69,0,0,1,61.67,121.19Z"/><path class="cls-18" d="M65,121.19c.07-.7.13-1.41.21-2.1.15-1.46.31-2.92.46-4.38l-1.56,3.89c-.34.86-.71,1.72-1.06,2.59Z"/><path class="cls-18" d="M76.54,121.19a11.11,11.11,0,0,1,1.1-3.26,13.47,13.47,0,0,1,3-3.77,11.7,11.7,0,0,0-4.08,3.15,14.22,14.22,0,0,0-2.14,3.88Z"/><path class="cls-18" d="M72.68,121.19a16.53,16.53,0,0,1,.21-2.2,18.45,18.45,0,0,1,1.6-4.73,17.09,17.09,0,0,0-2.66,4.08,15.19,15.19,0,0,0-1,2.85Z"/><path class="cls-18" d="M70.47,121.19a12.23,12.23,0,0,1,2-7.68,12.62,12.62,0,0,0-2.92,3.87,14.33,14.33,0,0,0-1.14,3.81Z"/><path class="cls-18" d="M62.59,118.63a10.65,10.65,0,0,1,.76,2.56h2.09a14.18,14.18,0,0,0-1.81-3.26,12.16,12.16,0,0,0-3.44-3A13.71,13.71,0,0,1,62.59,118.63Z"/><path class="cls-18" d="M56.32,121.19h2.27a22.2,22.2,0,0,0-2.06-4.07,18,18,0,0,0-3.16-3.55,21.77,21.77,0,0,1,2,4A20.22,20.22,0,0,1,56.32,121.19Z"/><path class="cls-18" d="M58.28,121.19H60.5a17.59,17.59,0,0,0-1.2-4.06,14.18,14.18,0,0,0-2.61-3.86,16.17,16.17,0,0,1,1.41,4.12A14.63,14.63,0,0,1,58.28,121.19Z"/><path class="cls-18" d="M53.49,119.11a7.64,7.64,0,0,1,.71,2.08h2a10.9,10.9,0,0,0-1.51-2.6A8.17,8.17,0,0,0,51,116.05,9.63,9.63,0,0,1,53.49,119.11Z"/><path class="cls-18" d="M75.87,118.07a11.87,11.87,0,0,1,.59,3.12h1.92c0-.1,0-.19-.07-.29a14.24,14.24,0,0,0-1.2-3.05,12.4,12.4,0,0,0-3.74-4.26,18.76,18.76,0,0,1,1.27,1.76A14,14,0,0,1,75.87,118.07Z"/><path class="cls-18" d="M79.36,121.19a22,22,0,0,1-.67-3.09,22.39,22.39,0,0,1,0-4.63,20.93,20.93,0,0,0-1.15,4.79,20.62,20.62,0,0,0-.11,2.93Z"/><path class="cls-18" d="M79.5,121.19a7.32,7.32,0,0,1,.26-1.74,12.27,12.27,0,0,1,1.88-3.92,10.32,10.32,0,0,0-3,3.45,11.86,11.86,0,0,0-.85,2.21Z"/><path class="cls-18" d="M80.67,121.19a11.36,11.36,0,0,1,1-2.94,12.64,12.64,0,0,1,2.83-3.7,11.23,11.23,0,0,0-4,3.27,13.24,13.24,0,0,0-1.78,3.37Z"/><path class="cls-18" d="M73.74,119.51a7.46,7.46,0,0,1,.46,1.68H76a11.32,11.32,0,0,0-1.11-2.09,8.65,8.65,0,0,0-3.2-2.78A10.36,10.36,0,0,1,73.74,119.51Z"/><path class="cls-18" d="M69.66,118.58a11.45,11.45,0,0,1,1.13,2.61h2.15A14.71,14.71,0,0,0,70.79,118a11.43,11.43,0,0,0-4.13-2.84A13.92,13.92,0,0,1,69.66,118.58Z"/><path class="cls-18" d="M82.2,121.19a16.68,16.68,0,0,1,2.1-3.36,17.87,17.87,0,0,1,3.37-3.15,16.3,16.3,0,0,0-4.09,2,19.69,19.69,0,0,0-3.76,3.71l.9.76Z"/><path class="cls-18" d="M72.36,121.19h1.93l.44-.16a18.14,18.14,0,0,0-2.12-3.85,14.12,14.12,0,0,0-2.89-2.84,15.17,15.17,0,0,1,2.64,6.85Z"/><path class="cls-18" d="M75.64,121.19l.21-2.1c.15-1.46.31-2.92.46-4.38-.52,1.3-1,2.59-1.55,3.89-.35.86-.72,1.72-1.06,2.59Z"/><path class="cls-18" d="M84.44,121.19a11.4,11.4,0,0,1,1.1-3.26,13.5,13.5,0,0,1,3-3.77,11.7,11.7,0,0,0-4.08,3.15,13.71,13.71,0,0,0-2.14,3.88Z"/><path class="cls-18" d="M80.58,121.19a16.56,16.56,0,0,1,.22-2.2,18.08,18.08,0,0,1,1.6-4.73,17.09,17.09,0,0,0-2.66,4.08,14.53,14.53,0,0,0-1,2.85Z"/><path class="cls-18" d="M79.86,121.19a12.23,12.23,0,0,1,2-7.68,12.47,12.47,0,0,0-2.92,3.87,14.33,14.33,0,0,0-1.14,3.81Z"/><path class="cls-18" d="M73.28,118.63a10.65,10.65,0,0,1,.76,2.56h2.09a14.18,14.18,0,0,0-1.81-3.26,12,12,0,0,0-3.44-3A13.71,13.71,0,0,1,73.28,118.63Z"/><path class="cls-18" d="M67,121.19h2.27a22.2,22.2,0,0,0-2.06-4.07,18,18,0,0,0-3.16-3.55,21.16,21.16,0,0,1,2,4A19.41,19.41,0,0,1,67,121.19Z"/><path class="cls-18" d="M69,121.19H71.2A18.12,18.12,0,0,0,70,117.13a14,14,0,0,0-2.61-3.86,15.79,15.79,0,0,1,1.41,4.12A14.21,14.21,0,0,1,69,121.19Z"/><path class="cls-18" d="M64.19,119.11a7.62,7.62,0,0,1,.7,2.08h2a11.28,11.28,0,0,0-1.52-2.6,8.2,8.2,0,0,0-3.61-2.54A9.91,9.91,0,0,1,64.19,119.11Z"/><path class="cls-18" d="M87.43,121.19h1.93a15.92,15.92,0,0,0-1.47-2.84,12.58,12.58,0,0,0-3.69-3.52,15.3,15.3,0,0,1,2.5,3.93A11.35,11.35,0,0,1,87.43,121.19Z"/><path class="cls-18" d="M90,119.32c.11.62.19,1.24.27,1.87H92c-.26-.8-.53-1.59-.84-2.36a8.88,8.88,0,0,0-3.2-4.42A9.34,9.34,0,0,1,90,119.32Z"/><path class="cls-18" d="M92.21,121.19a12.31,12.31,0,0,1,.06-2.57,16,16,0,0,1,.63-2.92,21.48,21.48,0,0,1,.94-2.26A15.14,15.14,0,0,0,91,118.77a19.22,19.22,0,0,0-.5,2.42Z"/><path class="cls-18" d="M88.85,121.19h1.69c-.25-.67-.52-1.33-.82-2a23.09,23.09,0,0,0-2.61-4.15,26.71,26.71,0,0,1,1.43,4.38C88.67,120,88.77,120.6,88.85,121.19Z"/><path class="cls-18" d="M93.52,121.19c.17-.83.36-1.65.58-2.46A39.79,39.79,0,0,1,96,113.54a37.48,37.48,0,0,0-3,4.53c-.54,1-1,2.06-1.46,3.12Z"/><path class="cls-18" d="M96,121.19c.11-.89.22-1.78.34-2.66.26-2,.52-3.89.79-5.84l-1.89,5.36c-.37,1-.75,2.09-1.13,3.14Z"/><path class="cls-18" d="M96.69,121.19a19.07,19.07,0,0,1,.81-1.77l1.29-2.59c.47-.93.93-1.87,1.39-2.8-1.09,1.31-2.19,2.61-3.29,3.92a15.21,15.21,0,0,0-2.14,2.9,3.54,3.54,0,0,0-.16.34Z"/><path class="cls-18" d="M85.86,121.19h2l-.06-.19a23.41,23.41,0,0,0-1-2.47,22.59,22.59,0,0,0-2.45-3.84A23.85,23.85,0,0,1,85.54,119C85.68,119.7,85.79,120.44,85.86,121.19Z"/><path class="cls-18" d="M83.84,121.19H86c-.45-.87-.92-1.71-1.37-2.56l-1.73-3.29c.21,1.27.43,2.55.65,3.82Z"/><path class="cls-18" d="M98.16,121.19a1.6,1.6,0,0,1,0-.21,21.82,21.82,0,0,1,1.11-3l1.71-4.11-2.67,3.53a14.62,14.62,0,0,0-2.27,3.78Z"/><path class="cls-18" d="M100.63,121.19a17.08,17.08,0,0,1,.82-3.53,15.19,15.19,0,0,1,2-3.6,12.89,12.89,0,0,0-3.06,2.94,17,17,0,0,0-2.15,4.15l.13,0Z"/><path class="cls-18" d="M102.48,121.19c.17-.79.36-1.58.59-2.35a12.42,12.42,0,0,1,2.3-4.42,10.56,10.56,0,0,0-3.22,3.17,35.1,35.1,0,0,0-2,3.6Z"/><path class="cls-18" d="M94.75,121.19c.13-.74.25-1.48.38-2.22l.72-3.92c-.6,1.13-1.19,2.26-1.79,3.38-.49.92-1,1.83-1.48,2.76Z"/><path class="cls-18" d="M104.23,121.19a22.64,22.64,0,0,1,.9-2.34,32.55,32.55,0,0,1,2.48-4.5,27.38,27.38,0,0,0-3.68,4.11,18.26,18.26,0,0,0-1.67,2.73Z"/><path class="cls-18" d="M83,121.19h2.06c-.48-.86-1-1.71-1.52-2.52a37.82,37.82,0,0,0-2.67-3.43c.57,1.32,1.08,2.65,1.58,4C82.64,119.89,82.82,120.54,83,121.19Z"/><path class="cls-18" d="M33.83,121.19h2.36a18.21,18.21,0,0,0-1.8-3.48,15,15,0,0,0-4.52-4.31,18.6,18.6,0,0,1,3.06,4.81A13.86,13.86,0,0,1,33.83,121.19Z"/><path class="cls-18" d="M37,118.9c.13.75.23,1.52.33,2.29h2c-.33-1-.66-2-1-2.89a11,11,0,0,0-3.93-5.43A11.49,11.49,0,0,1,37,118.9Z"/><path class="cls-18" d="M39.7,121.19a13.76,13.76,0,0,1,.07-3.14,18.79,18.79,0,0,1,.76-3.59,28.33,28.33,0,0,1,1.16-2.77,18.3,18.3,0,0,0-3.45,6.54,21.87,21.87,0,0,0-.62,3Z"/><path class="cls-18" d="M35.57,121.19h2.07c-.3-.82-.63-1.63-1-2.43a28.77,28.77,0,0,0-3.2-5.09A33.71,33.71,0,0,1,35.19,119C35.35,119.75,35.47,120.47,35.57,121.19Z"/><path class="cls-18" d="M41.3,121.19c.21-1,.43-2,.7-3a48.93,48.93,0,0,1,2.39-6.36,46.16,46.16,0,0,0-3.7,5.55c-.66,1.25-1.23,2.53-1.78,3.83Z"/><path class="cls-18" d="M44.29,121.19l.42-3.26q.49-3.59,1-7.15l-2.31,6.56c-.45,1.28-.92,2.56-1.38,3.85Z"/><path class="cls-18" d="M45.19,121.19a22.47,22.47,0,0,1,1-2.17c.53-1,1-2.11,1.58-3.17l1.71-3.44-4,4.8a19.52,19.52,0,0,0-2.63,3.56c-.07.14-.13.28-.19.42Z"/><path class="cls-18" d="M31.91,121.19h2.41a1.55,1.55,0,0,0-.07-.23,28.07,28.07,0,0,0-1.28-3,27.73,27.73,0,0,0-3-4.71,30.73,30.73,0,0,1,1.55,5.24C31.68,119.36,31.82,120.27,31.91,121.19Z"/><path class="cls-18" d="M29.42,121.19H32c-.54-1.06-1.13-2.09-1.68-3.14l-2.11-4c.26,1.56.53,3.12.79,4.68C29.16,119.52,29.29,120.36,29.42,121.19Z"/><path class="cls-18" d="M47,121.19l.06-.25a26.81,26.81,0,0,1,1.36-3.67l2.1-5-3.27,4.33a18.19,18.19,0,0,0-2.79,4.64Z"/><path class="cls-18" d="M50,121.19a21.43,21.43,0,0,1,1-4.33,18.94,18.94,0,0,1,2.46-4.41,15.78,15.78,0,0,0-3.75,3.6,20.81,20.81,0,0,0-2.64,5.09l.16,0Z"/><path class="cls-18" d="M52.28,121.19c.21-1,.45-1.93.73-2.88a14.91,14.91,0,0,1,2.82-5.42,12.86,12.86,0,0,0-4,3.89,43.91,43.91,0,0,0-2.48,4.41Z"/><path class="cls-18" d="M42.8,121.19c.16-.91.31-1.82.47-2.72.3-1.6.59-3.2.89-4.8q-1.11,2.07-2.2,4.14c-.6,1.13-1.23,2.24-1.82,3.38Z"/><path class="cls-18" d="M54.43,121.19a29.86,29.86,0,0,1,1.1-2.87,39.25,39.25,0,0,1,3-5.52,34.06,34.06,0,0,0-4.51,5A23.07,23.07,0,0,0,52,121.19Z"/><path class="cls-18" d="M28.39,121.19h2.52c-.59-1.06-1.2-2.09-1.87-3.09a45.19,45.19,0,0,0-3.26-4.2c.69,1.62,1.32,3.24,1.93,4.91C28,119.6,28.18,120.39,28.39,121.19Z"/><path class="cls-18" d="M8.17,121.19h2.36a18.8,18.8,0,0,0-1.8-3.48,15.16,15.16,0,0,0-4.52-4.31,18.6,18.6,0,0,1,3.06,4.81A13.86,13.86,0,0,1,8.17,121.19Z"/><path class="cls-18" d="M11.37,118.9c.13.75.23,1.52.33,2.29h2c-.32-1-.65-2-1-2.89a11.06,11.06,0,0,0-3.93-5.43A11.57,11.57,0,0,1,11.37,118.9Z"/><path class="cls-18" d="M14,121.19a15,15,0,0,1,.07-3.14,19.6,19.6,0,0,1,.77-3.59A26.07,26.07,0,0,1,16,111.69a18.48,18.48,0,0,0-3.46,6.54,23.52,23.52,0,0,0-.62,3Z"/><path class="cls-18" d="M9.9,121.19H12c-.31-.82-.63-1.63-1-2.43a28.73,28.73,0,0,0-3.19-5.09A32.7,32.7,0,0,1,9.52,119C9.68,119.75,9.8,120.47,9.9,121.19Z"/><path class="cls-18" d="M15.64,121.19c.2-1,.43-2,.7-3a48.89,48.89,0,0,1,2.38-6.36A46.09,46.09,0,0,0,15,117.36c-.66,1.25-1.24,2.53-1.78,3.83Z"/><path class="cls-18" d="M18.63,121.19c.14-1.09.27-2.18.42-3.26.32-2.39.65-4.77,1-7.15l-2.31,6.56c-.46,1.28-.93,2.56-1.39,3.85Z"/><path class="cls-18" d="M19.52,121.19a22.54,22.54,0,0,1,1-2.17l1.58-3.17,1.7-3.44-4,4.8a19.52,19.52,0,0,0-2.63,3.56c-.07.14-.13.28-.19.42Z"/><path class="cls-18" d="M6.24,121.19H8.66c0-.08-.05-.16-.07-.23a28.07,28.07,0,0,0-1.28-3,27.73,27.73,0,0,0-3-4.71,29.82,29.82,0,0,1,1.54,5.24C6,119.36,6.16,120.27,6.24,121.19Z"/><path class="cls-18" d="M3.76,121.19h2.6c-.54-1.06-1.13-2.09-1.68-3.14l-2.12-4c.27,1.56.53,3.12.8,4.68C3.5,119.52,3.62,120.36,3.76,121.19Z"/><path class="cls-18" d="M21.32,121.19l.06-.25a26.81,26.81,0,0,1,1.36-3.67l2.1-5q-1.64,2.18-3.28,4.33a18.44,18.44,0,0,0-2.78,4.64Z"/><path class="cls-18" d="M24.34,121.19a21.45,21.45,0,0,1,1-4.33,18.94,18.94,0,0,1,2.46-4.41,16,16,0,0,0-3.76,3.6,21.14,21.14,0,0,0-2.63,5.09l.16,0Z"/><path class="cls-18" d="M26.61,121.19c.22-1,.45-1.93.73-2.88a15.08,15.08,0,0,1,2.83-5.42,12.76,12.76,0,0,0-4,3.89,43.91,43.91,0,0,0-2.48,4.41Z"/><path class="cls-18" d="M17.14,121.19c.16-.91.31-1.82.47-2.72.3-1.6.59-3.2.88-4.8q-1.09,2.07-2.2,4.14c-.59,1.13-1.23,2.24-1.81,3.38Z"/><path class="cls-18" d="M28.77,121.19a29.86,29.86,0,0,1,1.1-2.87,39.25,39.25,0,0,1,3-5.52,34.12,34.12,0,0,0-4.52,5,22.17,22.17,0,0,0-2,3.35Z"/><path class="cls-18" d="M2.73,121.19H5.25c-.6-1.06-1.21-2.09-1.87-3.09a45.19,45.19,0,0,0-3.26-4.2c.69,1.62,1.32,3.24,1.92,4.91C2.29,119.6,2.52,120.39,2.73,121.19Z"/><path class="cls-18" d="M211.2,121.19h1.93a15.92,15.92,0,0,0-1.47-2.84,12.58,12.58,0,0,0-3.69-3.52,15.57,15.57,0,0,1,2.5,3.93A11.35,11.35,0,0,1,211.2,121.19Z"/><path class="cls-18" d="M213.81,119.32c.1.62.19,1.24.27,1.87h1.65c-.26-.8-.53-1.59-.84-2.36a8.94,8.94,0,0,0-3.2-4.42A9.34,9.34,0,0,1,213.81,119.32Z"/><path class="cls-18" d="M216,121.19a12.31,12.31,0,0,1,.06-2.57,16,16,0,0,1,.63-2.92,21.48,21.48,0,0,1,.94-2.26,15.14,15.14,0,0,0-2.82,5.33,19.22,19.22,0,0,0-.5,2.42Z"/><path class="cls-18" d="M212.61,121.19h1.7c-.25-.67-.52-1.33-.82-2a23.09,23.09,0,0,0-2.61-4.15,26.69,26.69,0,0,1,1.42,4.38C212.43,120,212.53,120.6,212.61,121.19Z"/><path class="cls-18" d="M217.29,121.19c.17-.83.35-1.65.57-2.46a41.34,41.34,0,0,1,1.95-5.19,35.26,35.26,0,0,0-3,4.53c-.54,1-1,2.06-1.46,3.12Z"/><path class="cls-18" d="M219.73,121.19c.12-.89.23-1.78.35-2.66l.78-5.84c-.62,1.79-1.25,3.57-1.88,5.36-.37,1-.75,2.09-1.13,3.14Z"/><path class="cls-18" d="M220.46,121.19a19.07,19.07,0,0,1,.81-1.77l1.29-2.59L224,114c-1.09,1.31-2.19,2.61-3.29,3.92a15.21,15.21,0,0,0-2.14,2.9,3.54,3.54,0,0,0-.16.34Z"/><path class="cls-18" d="M209.63,121.19h2l-.06-.19a23.41,23.41,0,0,0-1-2.47,22.59,22.59,0,0,0-2.45-3.84,24.69,24.69,0,0,1,1.26,4.27C209.45,119.7,209.56,120.44,209.63,121.19Z"/><path class="cls-18" d="M207.6,121.19h2.12c-.44-.87-.92-1.71-1.36-2.56-.58-1.1-1.16-2.19-1.73-3.29.21,1.27.43,2.55.65,3.82C207.39,119.83,207.49,120.51,207.6,121.19Z"/><path class="cls-18" d="M221.93,121.19c0-.07,0-.14,0-.21a23.21,23.21,0,0,1,1.11-3c.58-1.37,1.15-2.74,1.72-4.11l-2.67,3.53a14.62,14.62,0,0,0-2.27,3.78Z"/><path class="cls-18" d="M224.39,121.19a17.74,17.74,0,0,1,.82-3.53,15.58,15.58,0,0,1,2-3.6,12.89,12.89,0,0,0-3.06,2.94,17,17,0,0,0-2.15,4.15l.13,0Z"/><path class="cls-18" d="M226.24,121.19c.18-.79.37-1.58.6-2.35a12.42,12.42,0,0,1,2.3-4.42,10.45,10.45,0,0,0-3.22,3.17,35.1,35.1,0,0,0-2,3.6Z"/><path class="cls-18" d="M218.52,121.19c.13-.74.25-1.48.38-2.22l.72-3.92-1.79,3.38c-.49.92-1,1.83-1.48,2.76Z"/><path class="cls-18" d="M228,121.19a22.64,22.64,0,0,1,.9-2.34,30.58,30.58,0,0,1,2.48-4.5,26.84,26.84,0,0,0-3.68,4.11,18.26,18.26,0,0,0-1.67,2.73Z"/><path class="cls-18" d="M206.76,121.19h2.06c-.49-.86-1-1.71-1.53-2.52a37.73,37.73,0,0,0-2.66-3.43c.57,1.32,1.08,2.65,1.57,4C206.41,119.89,206.59,120.54,206.76,121.19Z"/><path class="cls-18" d="M170.21,118.07a11.11,11.11,0,0,1,.59,3.12h1.92c0-.1,0-.19-.07-.29a13.73,13.73,0,0,0-1.2-3.05,12.48,12.48,0,0,0-3.73-4.26,18.76,18.76,0,0,1,1.27,1.76A13.36,13.36,0,0,1,170.21,118.07Z"/><path class="cls-18" d="M174.56,121.19a22,22,0,0,1-.67-3.09,22.39,22.39,0,0,1,0-4.63,20.93,20.93,0,0,0-1.15,4.79,22.23,22.23,0,0,0-.12,2.93Z"/><path class="cls-18" d="M175.14,121.19a7.88,7.88,0,0,1,.27-1.74,12.06,12.06,0,0,1,1.88-3.92,10.1,10.1,0,0,0-3,3.45,11.2,11.2,0,0,0-.85,2.21Z"/><path class="cls-18" d="M177.8,121.19a11.36,11.36,0,0,1,.95-2.94,12.64,12.64,0,0,1,2.83-3.7,11.23,11.23,0,0,0-4,3.27,12.93,12.93,0,0,0-1.78,3.37Z"/><path class="cls-18" d="M168.09,119.51a8,8,0,0,1,.46,1.68h1.83a11.32,11.32,0,0,0-1.11-2.09,8.65,8.65,0,0,0-3.2-2.78A10.57,10.57,0,0,1,168.09,119.51Z"/><path class="cls-18" d="M164,118.58a11,11,0,0,1,1.13,2.61h2.15a14.36,14.36,0,0,0-2.15-3.22,11.31,11.31,0,0,0-4.12-2.84A13.88,13.88,0,0,1,164,118.58Z"/><path class="cls-18" d="M179.33,121.19a17.1,17.1,0,0,1,2.09-3.36,17.92,17.92,0,0,1,3.38-3.15,16.3,16.3,0,0,0-4.09,2,19.69,19.69,0,0,0-3.76,3.71c.3.25.6.5.89.76Z"/><path class="cls-18" d="M166.7,121.19h1.94l.43-.16a17.71,17.71,0,0,0-2.12-3.85,13.87,13.87,0,0,0-2.89-2.84,17.18,17.18,0,0,1,1.78,3.34A16.67,16.67,0,0,1,166.7,121.19Z"/><path class="cls-18" d="M170,121.19c.07-.7.13-1.41.2-2.1.16-1.46.31-2.92.47-4.38l-1.56,3.89c-.35.86-.71,1.72-1.06,2.59Z"/><path class="cls-18" d="M181.57,121.19a11.4,11.4,0,0,1,1.1-3.26,13.32,13.32,0,0,1,3-3.77,11.52,11.52,0,0,0-4.08,3.15,13.71,13.71,0,0,0-2.14,3.88Z"/><path class="cls-18" d="M177.71,121.19a16.56,16.56,0,0,1,.22-2.2,17.72,17.72,0,0,1,1.6-4.73,16.79,16.79,0,0,0-2.66,4.08,14.53,14.53,0,0,0-1,2.85Z"/><path class="cls-18" d="M175.51,121.19a12.36,12.36,0,0,1,.19-3.26,13.58,13.58,0,0,1,1.8-4.42,12.59,12.59,0,0,0-2.91,3.87,14.33,14.33,0,0,0-1.14,3.81Z"/><path class="cls-18" d="M167.63,118.63a11.64,11.64,0,0,1,.76,2.56h2.08a14.53,14.53,0,0,0-1.8-3.26,12.2,12.2,0,0,0-3.45-3A14,14,0,0,1,167.63,118.63Z"/><path class="cls-18" d="M161.36,121.19h2.26a21.55,21.55,0,0,0-2.05-4.07,18,18,0,0,0-3.17-3.55,21.16,21.16,0,0,1,2,4A20.24,20.24,0,0,1,161.36,121.19Z"/><path class="cls-18" d="M163.31,121.19h2.23a18.63,18.63,0,0,0-1.2-4.06,14,14,0,0,0-2.62-3.86,15.79,15.79,0,0,1,1.41,4.12A14.21,14.21,0,0,1,163.31,121.19Z"/><path class="cls-18" d="M158.53,119.11a8,8,0,0,1,.71,2.08h2a11.24,11.24,0,0,0-1.51-2.6,8.17,8.17,0,0,0-3.62-2.54A9.91,9.91,0,0,1,158.53,119.11Z"/><path class="cls-18" d="M180.91,118.07a11.46,11.46,0,0,1,.58,3.12h1.92l-.06-.29a14.26,14.26,0,0,0-1.21-3.05,12.37,12.37,0,0,0-3.73-4.26,18.76,18.76,0,0,1,1.27,1.76A14,14,0,0,1,180.91,118.07Z"/><path class="cls-18" d="M184.4,121.19a22,22,0,0,1-.68-3.09,23.11,23.11,0,0,1,0-4.63,22,22,0,0,0-1.15,4.79,24.07,24.07,0,0,0-.11,2.93Z"/><path class="cls-18" d="M184.53,121.19a8.5,8.5,0,0,1,.26-1.74,12.48,12.48,0,0,1,1.88-3.92,10.18,10.18,0,0,0-3,3.45,11.2,11.2,0,0,0-.85,2.21Z"/><path class="cls-18" d="M185.7,121.19a11.38,11.38,0,0,1,1-2.94,12.64,12.64,0,0,1,2.83-3.7,11.35,11.35,0,0,0-4,3.27,12.91,12.91,0,0,0-1.77,3.37Z"/><path class="cls-18" d="M178.78,119.51a8,8,0,0,1,.46,1.68h1.83a11.91,11.91,0,0,0-1.1-2.09,8.72,8.72,0,0,0-3.2-2.78A10.74,10.74,0,0,1,178.78,119.51Z"/><path class="cls-18" d="M174.69,118.58a11,11,0,0,1,1.13,2.61H178a14.67,14.67,0,0,0-2.14-3.22,11.43,11.43,0,0,0-4.13-2.84A13.88,13.88,0,0,1,174.69,118.58Z"/><path class="cls-18" d="M187.23,121.19a17.14,17.14,0,0,1,2.1-3.36,18.18,18.18,0,0,1,3.37-3.15,16.07,16.07,0,0,0-4.08,2,19.69,19.69,0,0,0-3.76,3.71l.89.76Z"/><path class="cls-18" d="M177.39,121.19h1.94l.43-.16a17.71,17.71,0,0,0-2.12-3.85,13.87,13.87,0,0,0-2.89-2.84,17.18,17.18,0,0,1,1.78,3.34A16.67,16.67,0,0,1,177.39,121.19Z"/><path class="cls-18" d="M180.68,121.19c.07-.7.13-1.41.2-2.1.16-1.46.31-2.92.47-4.38l-1.56,3.89c-.34.86-.71,1.72-1.06,2.59Z"/><path class="cls-18" d="M189.48,121.19a11.11,11.11,0,0,1,1.1-3.26,13.47,13.47,0,0,1,3-3.77,11.7,11.7,0,0,0-4.08,3.15,13.93,13.93,0,0,0-2.13,3.88Z"/><path class="cls-18" d="M185.62,121.19a16.53,16.53,0,0,1,.21-2.2,18.1,18.1,0,0,1,1.61-4.73,16.5,16.5,0,0,0-2.66,4.08,14.53,14.53,0,0,0-1,2.85Z"/><path class="cls-18" d="M184.89,121.19a12.8,12.8,0,0,1,.2-3.26,13.58,13.58,0,0,1,1.8-4.42,12.62,12.62,0,0,0-2.92,3.87,14.71,14.71,0,0,0-1.14,3.81Z"/><path class="cls-18" d="M178.32,118.63a11.12,11.12,0,0,1,.76,2.56h2.08a13.78,13.78,0,0,0-1.8-3.26,12.06,12.06,0,0,0-3.45-3A14,14,0,0,1,178.32,118.63Z"/><path class="cls-18" d="M172.05,121.19h2.27a22.2,22.2,0,0,0-2.06-4.07,17.73,17.73,0,0,0-3.17-3.55,20.59,20.59,0,0,1,2,4A19.43,19.43,0,0,1,172.05,121.19Z"/><path class="cls-18" d="M174,121.19h2.23a18.1,18.1,0,0,0-1.2-4.06,14.18,14.18,0,0,0-2.61-3.86,16.15,16.15,0,0,1,1.4,4.12A14.21,14.21,0,0,1,174,121.19Z"/><path class="cls-18" d="M169.22,119.11a8,8,0,0,1,.71,2.08h2a10.9,10.9,0,0,0-1.51-2.6,8.17,8.17,0,0,0-3.62-2.54A9.91,9.91,0,0,1,169.22,119.11Z"/><path class="cls-18" d="M192.47,121.19h1.92a14.71,14.71,0,0,0-1.47-2.84,12.55,12.55,0,0,0-3.68-3.52,15.54,15.54,0,0,1,2.49,3.93A12,12,0,0,1,192.47,121.19Z"/><path class="cls-18" d="M195.08,119.32c.1.62.19,1.24.27,1.87H197c-.27-.8-.54-1.59-.84-2.36a9,9,0,0,0-3.21-4.42A9.35,9.35,0,0,1,195.08,119.32Z"/><path class="cls-18" d="M197.25,121.19a11.66,11.66,0,0,1,.06-2.57,15.17,15.17,0,0,1,.62-2.92,21.53,21.53,0,0,1,.95-2.26,15,15,0,0,0-2.82,5.33,19.24,19.24,0,0,0-.51,2.42Z"/><path class="cls-18" d="M193.88,121.19h1.69a21.18,21.18,0,0,0-.82-2,22.51,22.51,0,0,0-2.6-4.15,26.69,26.69,0,0,1,1.42,4.38C193.7,120,193.8,120.6,193.88,121.19Z"/><path class="cls-18" d="M198.56,121.19c.17-.83.35-1.65.57-2.46a39.84,39.84,0,0,1,2-5.19,36.4,36.4,0,0,0-3,4.53c-.54,1-1,2.06-1.45,3.12Z"/><path class="cls-18" d="M201,121.19c.11-.89.22-1.78.34-2.66.27-2,.53-3.89.79-5.84-.63,1.79-1.26,3.57-1.88,5.36-.37,1-.76,2.09-1.13,3.14Z"/><path class="cls-18" d="M201.73,121.19a16.77,16.77,0,0,1,.81-1.77l1.29-2.59,1.39-2.8c-1.1,1.31-2.2,2.61-3.29,3.92a15.26,15.26,0,0,0-2.15,2.9,3.49,3.49,0,0,0-.15.34Z"/><path class="cls-18" d="M190.9,121.19h2l-.06-.19a21.54,21.54,0,0,0-1.05-2.47,22.55,22.55,0,0,0-2.44-3.84,25.61,25.61,0,0,1,1.26,4.27C190.71,119.7,190.83,120.44,190.9,121.19Z"/><path class="cls-18" d="M188.87,121.19H191c-.44-.87-.92-1.71-1.37-2.56-.57-1.1-1.15-2.19-1.73-3.29.22,1.27.44,2.55.65,3.82C188.66,119.83,188.76,120.51,188.87,121.19Z"/><path class="cls-18" d="M203.19,121.19c0-.07,0-.14.05-.21a21.82,21.82,0,0,1,1.11-3l1.71-4.11-2.67,3.53a14.9,14.9,0,0,0-2.27,3.78Z"/><path class="cls-18" d="M205.66,121.19a17.08,17.08,0,0,1,.82-3.53,15.58,15.58,0,0,1,2-3.6,12.75,12.75,0,0,0-3.07,2.94,17.35,17.35,0,0,0-2.15,4.15l.13,0Z"/><path class="cls-18" d="M207.51,121.19c.18-.79.37-1.58.6-2.35a12.11,12.11,0,0,1,2.3-4.42,10.48,10.48,0,0,0-3.23,3.17,35,35,0,0,0-2,3.6Z"/><path class="cls-18" d="M199.78,121.19c.13-.74.25-1.48.39-2.22l.72-3.92-1.8,3.38c-.48.92-1,1.83-1.47,2.76Z"/><path class="cls-18" d="M209.27,121.19a22.64,22.64,0,0,1,.9-2.34,30.58,30.58,0,0,1,2.48-4.5,27.44,27.44,0,0,0-3.69,4.11,18.26,18.26,0,0,0-1.67,2.73Z"/><path class="cls-18" d="M188,121.19h2.05c-.48-.86-1-1.71-1.52-2.52a37.73,37.73,0,0,0-2.66-3.43c.56,1.32,1.08,2.65,1.57,4C187.67,119.89,187.86,120.54,188,121.19Z"/><path class="cls-18" d="M138.87,121.19h2.36a18.8,18.8,0,0,0-1.8-3.48,15.28,15.28,0,0,0-4.52-4.31,18.86,18.86,0,0,1,3.06,4.81A14.45,14.45,0,0,1,138.87,121.19Z"/><path class="cls-18" d="M142.07,118.9c.12.75.23,1.52.33,2.29h2c-.32-1-.65-2-1-2.89a10.94,10.94,0,0,0-3.93-5.43A11.5,11.5,0,0,1,142.07,118.9Z"/><path class="cls-18" d="M144.73,121.19a15,15,0,0,1,.07-3.14,19.6,19.6,0,0,1,.77-3.59,26.07,26.07,0,0,1,1.16-2.77,18.32,18.32,0,0,0-3.46,6.54,23.52,23.52,0,0,0-.62,3Z"/><path class="cls-18" d="M140.6,121.19h2.08c-.31-.82-.64-1.63-1-2.43a28.73,28.73,0,0,0-3.19-5.09,33.68,33.68,0,0,1,1.74,5.37C140.38,119.75,140.5,120.47,140.6,121.19Z"/><path class="cls-18" d="M146.34,121.19c.2-1,.43-2,.7-3a48.89,48.89,0,0,1,2.38-6.36,46.09,46.09,0,0,0-3.69,5.55c-.66,1.25-1.24,2.53-1.78,3.83Z"/><path class="cls-18" d="M149.33,121.19c.14-1.09.27-2.18.42-3.26l1-7.15-2.31,6.56c-.45,1.28-.92,2.56-1.38,3.85Z"/><path class="cls-18" d="M150.22,121.19a22.54,22.54,0,0,1,1-2.17c.52-1,1.05-2.11,1.57-3.17l1.71-3.44-4,4.8a19.47,19.47,0,0,0-2.62,3.56,3.89,3.89,0,0,0-.19.42Z"/><path class="cls-18" d="M136.94,121.19h2.42c0-.08-.05-.16-.07-.23a26.25,26.25,0,0,0-1.29-3,27.07,27.07,0,0,0-3-4.71,29.82,29.82,0,0,1,1.54,5.24C136.72,119.36,136.86,120.27,136.94,121.19Z"/><path class="cls-18" d="M134.46,121.19h2.6c-.54-1.06-1.13-2.09-1.68-3.14l-2.12-4c.27,1.56.53,3.12.8,4.68C134.2,119.52,134.32,120.36,134.46,121.19Z"/><path class="cls-18" d="M152,121.19l.06-.25a26.81,26.81,0,0,1,1.36-3.67l2.1-5c-1.09,1.45-2.19,2.89-3.28,4.33a18.44,18.44,0,0,0-2.78,4.64Z"/><path class="cls-18" d="M155,121.19a20.8,20.8,0,0,1,1-4.33,18.94,18.94,0,0,1,2.46-4.41,16,16,0,0,0-3.76,3.6,21.14,21.14,0,0,0-2.63,5.09l.15,0Z"/><path class="cls-18" d="M157.31,121.19c.22-1,.45-1.93.73-2.88a15.06,15.06,0,0,1,2.82-5.42,12.83,12.83,0,0,0-4,3.89,44,44,0,0,0-2.49,4.41Z"/><path class="cls-18" d="M147.84,121.19c.16-.91.3-1.82.47-2.72.29-1.6.59-3.2.88-4.8l-2.2,4.14c-.59,1.13-1.23,2.24-1.81,3.38Z"/><path class="cls-18" d="M159.47,121.19a27.44,27.44,0,0,1,1.1-2.87,38.26,38.26,0,0,1,3-5.52,34.12,34.12,0,0,0-4.52,5,22.17,22.17,0,0,0-2,3.35Z"/><path class="cls-18" d="M133.43,121.19H136c-.6-1.06-1.21-2.09-1.87-3.09a47,47,0,0,0-3.26-4.2c.69,1.62,1.32,3.24,1.92,4.91C133,119.6,133.22,120.39,133.43,121.19Z"/><path class="cls-18" d="M113.2,121.19h2.37a18.84,18.84,0,0,0-1.81-3.48,15.13,15.13,0,0,0-4.51-4.31,18.83,18.83,0,0,1,3,4.81A13.86,13.86,0,0,1,113.2,121.19Z"/><path class="cls-18" d="M116.4,118.9c.13.75.24,1.52.33,2.29h2c-.32-1-.66-2-1-2.89a11,11,0,0,0-3.93-5.43A11.49,11.49,0,0,1,116.4,118.9Z"/><path class="cls-18" d="M119.07,121.19a14.36,14.36,0,0,1,.07-3.14,18.8,18.8,0,0,1,.77-3.59,26,26,0,0,1,1.15-2.77,18.3,18.3,0,0,0-3.45,6.54,21.87,21.87,0,0,0-.62,3Z"/><path class="cls-18" d="M114.94,121.19H117c-.3-.82-.63-1.63-1-2.43a28.77,28.77,0,0,0-3.2-5.09,33.71,33.71,0,0,1,1.75,5.37C114.72,119.75,114.84,120.47,114.94,121.19Z"/><path class="cls-18" d="M120.67,121.19c.21-1,.43-2,.7-3a50.42,50.42,0,0,1,2.39-6.36,46.16,46.16,0,0,0-3.7,5.55c-.66,1.25-1.23,2.53-1.78,3.83Z"/><path class="cls-18" d="M123.67,121.19c.13-1.09.27-2.18.42-3.26l1-7.15-2.31,6.56c-.45,1.28-.92,2.56-1.38,3.85Z"/><path class="cls-18" d="M124.56,121.19a22.47,22.47,0,0,1,1-2.17c.53-1,1.06-2.11,1.58-3.17l1.71-3.44-4,4.8a19.52,19.52,0,0,0-2.63,3.56c-.07.14-.13.28-.19.42Z"/><path class="cls-18" d="M111.28,121.19h2.42c0-.08,0-.16-.08-.23a24.56,24.56,0,0,0-1.28-3,27.12,27.12,0,0,0-3-4.71,30.73,30.73,0,0,1,1.55,5.24C111.05,119.36,111.19,120.27,111.28,121.19Z"/><path class="cls-18" d="M108.79,121.19h2.6c-.54-1.06-1.12-2.09-1.67-3.14l-2.12-4c.26,1.56.53,3.12.79,4.68C108.53,119.52,108.66,120.36,108.79,121.19Z"/><path class="cls-18" d="M126.36,121.19a1.84,1.84,0,0,1,0-.25,28.2,28.2,0,0,1,1.36-3.67l2.1-5-3.27,4.33a17.87,17.87,0,0,0-2.78,4.64Z"/><path class="cls-18" d="M129.38,121.19a20.8,20.8,0,0,1,1-4.33,18.91,18.91,0,0,1,2.45-4.41,16.16,16.16,0,0,0-3.75,3.6,20.81,20.81,0,0,0-2.64,5.09l.16,0Z"/><path class="cls-18" d="M131.65,121.19c.21-1,.45-1.93.73-2.88a15.06,15.06,0,0,1,2.82-5.42,12.83,12.83,0,0,0-3.95,3.89,42.1,42.1,0,0,0-2.49,4.41Z"/><path class="cls-18" d="M122.17,121.19c.16-.91.31-1.82.48-2.72.29-1.6.58-3.2.88-4.8q-1.11,2.07-2.2,4.14c-.6,1.13-1.23,2.24-1.81,3.38Z"/><path class="cls-18" d="M133.8,121.19a29.86,29.86,0,0,1,1.1-2.87,39.25,39.25,0,0,1,3-5.52,34.06,34.06,0,0,0-4.51,5,23.07,23.07,0,0,0-2.05,3.35Z"/><path class="cls-18" d="M107.76,121.19h2.52c-.59-1.06-1.2-2.09-1.87-3.09a45.19,45.19,0,0,0-3.26-4.2c.69,1.62,1.32,3.24,1.93,4.91C107.33,119.6,107.55,120.39,107.76,121.19Z"/></g></g></svg>