<svg xmlns="http://www.w3.org/2000/svg" viewBox="0 0 207.31 192.88"><defs><style>.cls-1,.cls-4{fill:none;stroke-miterlimit:2.61;stroke-width:3px;}.cls-1{stroke:#00a651;}.cls-2,.cls-6{fill:#fff;}.cls-3{fill:#ed1c24;}.cls-3,.cls-5,.cls-6,.cls-8{fill-rule:evenodd;}.cls-4{stroke:#ed1c24;}.cls-5,.cls-7{fill:#00a651;}.cls-8,.cls-9{fill:#2e3192;}</style></defs><title>favicon</title><g id="Layer_2" data-name="Layer 2"><g id="Layer_1-2" data-name="Layer 1"><path class="cls-1" d="M102.63,30.76a66.8,66.8,0,1,1-66.8,66.8A66.8,66.8,0,0,1,102.63,30.76Z"/><rect class="cls-2" x="86.15" y="27.94" width="31.95" height="10.05"/><rect class="cls-2" x="31.23" y="93.99" width="12.56" height="14.72"/><rect class="cls-2" x="163.08" y="93.99" width="12.56" height="14.72"/><rect class="cls-2" x="76.82" y="155.66" width="48.9" height="13.23"/><path class="cls-3" d="M103.6,19.87A77.69,77.69,0,1,1,25.91,97.56,77.68,77.68,0,0,1,103.6,19.87Zm0-10.57A88.26,88.26,0,1,1,15.34,97.56,88.26,88.26,0,0,1,103.6,9.3Z"/><path class="cls-4" d="M103.6,19.87A77.69,77.69,0,1,1,25.91,97.56,77.68,77.68,0,0,1,103.6,19.87Zm0-10.57A88.26,88.26,0,1,1,15.34,97.56,88.26,88.26,0,0,1,103.6,9.3Z"/><path class="cls-5" d="M89.55,33.83C89.88,29,92.28,25,96.31,23s8.51-1.36,12.23,1.28c4,2.83,5.73,7.71,3.82,13.83a100.94,100.94,0,0,1-10.94,18.6q-2.34-3.09-4.68-6.79t-4.68-8.06c-1.6-3-2.74-4.75-2.51-8"/><path class="cls-6" d="M101.09,27.6a6,6,0,1,1-6,6,6,6,0,0,1,6-6"/><path class="cls-5" d="M111.37,56.52l-.07.06h0c1,.24,3.24,1.18,2.72,2.39-.37.9-2.1,1.51-3.32,1.86-4.92,1.39-13.9,1.41-18.79,0-3.69-1.09-4.8-2.84-.53-4.22l-.07-.06a12.5,12.5,0,0,0-3,.75,7.82,7.82,0,0,0-2.43,1.23c-2.06,1.77.78,3.07,2.38,3.66,6.19,2.26,20,2.26,26.13,0,1.65-.61,4.48-1.93,2.34-3.7a13.36,13.36,0,0,0-5.35-1.94"/><path class="cls-5" d="M93.18,56.55c-.3.26-2.5.61-2.91,1.44-.53,1.09,1.5,1.7,2.29,1.94,6.84,2,21.92.62,19.7-2.1-.36-.43-1.1-.55-1.4-.87a7,7,0,0,1-1.33-.33c-.38-.09-.88-.19-1.29-.27s-.2,0,.43.21c2.54.92,1.34,1.92-.9,2.46a32.27,32.27,0,0,1-12.84,0c-2.82-.67-3.41-1.72-.38-2.69Z"/><path class="cls-5" d="M95.15,56.81c-.25.29-1.07.75.27,1.34,3.17,1.39,13.11.92,12.48-.86-.2-.58-1.28-.6-1.62-.91l-.61,0c.38.23.8.22.88.75-.4,1-3.86,1.15-5.23,1.15s-4.84-.14-5.24-1.15c.07-.43.41-.57.78-.67v-.08c-.6.08-1.36.44-1.72.47"/><path class="cls-5" d="M91.26,56.52l.07.06.65-.15v-.1l-.38,0-.13,0c-.34.13,0,0-.2.11"/><polygon class="cls-5" points="111.3 56.58 111.37 56.52 110.66 56.33 110.65 56.44 111.3 56.58"/><path class="cls-5" d="M92,56.43a1.14,1.14,0,0,0,.29-.06c.34-.15.17-.06,0-.12l-.33.08Z"/><path class="cls-5" d="M110.65,56.44v-.11c-.22-.12-.19-.09-.49-.07Z"/><path class="cls-5" d="M96.86,56.42l.41-.1c-.18-.08.22-.09-.21-.06-.24,0-.14.05-.19.08Z"/><rect class="cls-7" x="100.58" y="28.78" width="1.01" height="3.62"/><rect class="cls-7" x="102.27" y="33.07" width="3.62" height="1.01"/><rect class="cls-7" x="96.29" y="33.07" width="3.45" height="1.01"/><rect class="cls-7" x="100.58" y="34.84" width="1.01" height="3.54"/><path class="cls-8" d="M74.12,81.46,74,83.77c-2.54.67-.5.39-1.33-.73-7.18-7.18-9.77-12.64-24.51-7.19-13.75,5.09-9.42,13.23-.48,18.56,13.2,7.85,21.24,2.13,27.64.25,10-3,9.16,18.79,10.1,24-3.58-1.61-1.84-2.53-3.81-10.22-6.4-25.06-17.86,4.4-3.3,2.7,1.14-1-1.46-.87,1.44-.87.3,2.9.31.68-.88,1.56-4.15,4.79-1.33,10.4,1.5,20.11,4.19,14.34,5.86,10.82,4.33,19.45L84,159.73c1.64,5.78,11.16-.8,16.68-1.16,8.28-.55,12,4.81,18.43,3,3.45-5.06.25-8-.41-13.15-.21-1.64,6.06-19.08,7.56-25.54,2.48-10.74,1.12-6.88-1.33-11.94,3.6.7,5.19,1.08,6.93-2.66,5.07-10.88-8.36-15.45-9.53,2.4-.18,1.07-.41,2.28-.62,3.38-.41,2.18.11.28-.34,1.74-.8,2.57-.06.44-.84,1.56s0,.74-1.79,1.28c.34-3,.85-1.57.72-5.52-.07-2.15-.11-3.87-.11-6a12.67,12.67,0,0,1,.3-2.7c.85-3.34.46-1.17,1-2.13,4.94-13.79,7.95-5.32,18.74-4.21,17.77,1.83,40.15-16.77,12.08-23.53-5.48-1.31-8.54-1.44-12.86,1.54-2.39,1.63-6.26,4.42-6.84,7.1-1.54.93,1.95,2-1.84.61L129.66,81C128,74.57,122.5,77,118.29,75.11c-1-.46-3.73-3.7-4.51-4.53-8.12-8.6-22.19-5.31-27.51,5-6,0-10.77.73-12.15,5.9m14.62,74.4a5.38,5.38,0,0,1-1.41-5.07,6.41,6.41,0,0,1,2.83-4.29c4.08-2.49,18.19-3.08,23.09-.25,2.91,1.69,5.19,5.91,2.22,9.61-4.28-1.14-1.62-6.15-6.66-7.35-.09,0-14,0-14.81,0C88.71,156.27,92.71,154.39,88.74,155.86Z"/><path class="cls-8" d="M110.73,163.88c-1.72-2.47-5.12-3.33-8.79-3.3a14.8,14.8,0,0,0-5.2.88,9.06,9.06,0,0,0-1.85.91c-2,1.38-.65.3-1.55,1.51,1.12,1.76,0,.65,1.88,1.88,4.21,2.79,11.62,2.64,15.51-1.88"/><path class="cls-8" d="M84,159.73l.66-8.33c-1.35,1.62-2.6,6.64-.66,8.33"/><path class="cls-8" d="M120.53,117.33c.78-1.12,0,1,.84-1.56.45-1.46-.07.44.34-1.74.21-1.1.44-2.31.62-3.38-1.55,1.6-1.51,4.14-1.8,6.68"/><path class="cls-8" d="M131.81,83.16,130,81.41c-.07-.25-.21-.3-.31-.45l.31,2.81c3.79,1.43.3.32,1.84-.61"/><path class="cls-8" d="M72.63,83c.83,1.12-1.21,1.4,1.33.73l.16-2.31c-.13.19-.6.76-.7.88s-.32.48-.38.37-.28.22-.41.33"/><path class="cls-8" d="M119.35,107.09l1.34-4.83c-.58,1-.19-1.21-1,2.13a12.67,12.67,0,0,0-.3,2.7"/><path class="cls-8" d="M78.83,111.84c1.19-.88,1.18,1.34.88-1.56-2.9,0-.3-.16-1.44.87,1-.08.72-.28.56.69"/><rect class="cls-9" y="97.56" width="43.79" height="7.28"/><rect class="cls-9" x="158.67" y="97.56" width="48.64" height="7.28"/><rect class="cls-9" x="97.85" width="7.98" height="15.69"/><rect class="cls-9" x="97.85" y="177.19" width="7.98" height="15.69"/></g></g></svg>