<svg xmlns="http://www.w3.org/2000/svg" viewBox="0 0 264.12 17.36"><defs><style>.cls-1{fill:#e0def0;}.cls-2{fill:#fff;}</style></defs><title>fence</title><g id="Layer_2" data-name="Layer 2"><g id="Layer_1-2" data-name="Layer 1"><rect class="cls-1" y="3.13" width="263.18" height="2.08"/><rect class="cls-1" y="12.16" width="263.46" height="2.08"/><path class="cls-1" d="M6,0A1.5,1.5,0,0,0,4.49,1.5V17.36h3V1.5A1.5,1.5,0,0,0,6,0Z"/><path class="cls-2" d="M6,3.39A.62.62,0,1,0,6.6,4,.62.62,0,0,0,6,3.39Z"/><path class="cls-2" d="M6,12.74a.62.62,0,1,0,.62.62A.62.62,0,0,0,6,12.74Z"/><path class="cls-1" d="M17.14,0a1.5,1.5,0,0,0-1.5,1.5V17.36h3V1.5A1.5,1.5,0,0,0,17.14,0Z"/><path class="cls-2" d="M17.14,3.39a.62.62,0,0,0,0,1.23.62.62,0,0,0,0-1.23Z"/><path class="cls-2" d="M17.14,12.74a.62.62,0,0,0,0,1.23.62.62,0,0,0,0-1.23Z"/><path class="cls-1" d="M28.3,0a1.5,1.5,0,0,0-1.5,1.5V17.36h3V1.5A1.5,1.5,0,0,0,28.3,0Z"/><path class="cls-2" d="M28.3,3.39a.62.62,0,1,0,.61.62A.61.61,0,0,0,28.3,3.39Z"/><path class="cls-2" d="M28.3,12.74a.62.62,0,1,0,.61.62A.61.61,0,0,0,28.3,12.74Z"/><path class="cls-1" d="M39.46,0A1.5,1.5,0,0,0,38,1.5V17.36h3V1.5A1.5,1.5,0,0,0,39.46,0Z"/><path class="cls-2" d="M39.46,3.39a.62.62,0,1,0,.61.62A.61.61,0,0,0,39.46,3.39Z"/><path class="cls-2" d="M39.46,12.74a.62.62,0,1,0,.61.62A.61.61,0,0,0,39.46,12.74Z"/><path class="cls-1" d="M50.62,0a1.5,1.5,0,0,0-1.5,1.5V17.36h3V1.5A1.5,1.5,0,0,0,50.62,0Z"/><path class="cls-2" d="M50.62,3.39a.62.62,0,1,0,.61.62A.62.62,0,0,0,50.62,3.39Z"/><path class="cls-2" d="M50.62,12.74a.62.62,0,1,0,.61.62A.62.62,0,0,0,50.62,12.74Z"/><path class="cls-1" d="M61.78,0a1.5,1.5,0,0,0-1.5,1.5V17.36h3V1.5A1.5,1.5,0,0,0,61.78,0Z"/><path class="cls-2" d="M61.78,3.39a.62.62,0,1,0,.61.62A.62.62,0,0,0,61.78,3.39Z"/><path class="cls-2" d="M61.78,12.74a.62.62,0,1,0,.61.62A.62.62,0,0,0,61.78,12.74Z"/><path class="cls-1" d="M72.93,0a1.5,1.5,0,0,0-1.5,1.5V17.36h3V1.5A1.5,1.5,0,0,0,72.93,0Z"/><path class="cls-2" d="M72.93,3.39a.62.62,0,0,0,0,1.23.62.62,0,0,0,0-1.23Z"/><path class="cls-2" d="M72.93,12.74a.62.62,0,0,0,0,1.23.62.62,0,0,0,0-1.23Z"/><path class="cls-1" d="M84.09,0a1.5,1.5,0,0,0-1.5,1.5V17.36h3V1.5A1.5,1.5,0,0,0,84.09,0Z"/><path class="cls-2" d="M84.09,3.39A.62.62,0,1,0,84.7,4,.61.61,0,0,0,84.09,3.39Z"/><path class="cls-2" d="M84.09,12.74a.62.62,0,1,0,.61.62A.61.61,0,0,0,84.09,12.74Z"/><path class="cls-1" d="M95.25,0a1.5,1.5,0,0,0-1.5,1.5V17.36h3V1.5A1.5,1.5,0,0,0,95.25,0Z"/><path class="cls-2" d="M95.25,3.39a.62.62,0,1,0,.61.62A.61.61,0,0,0,95.25,3.39Z"/><path class="cls-2" d="M95.25,12.74a.62.62,0,1,0,.61.62A.61.61,0,0,0,95.25,12.74Z"/><path class="cls-1" d="M106.41,0a1.5,1.5,0,0,0-1.5,1.5V17.36h3V1.5A1.5,1.5,0,0,0,106.41,0Z"/><path class="cls-2" d="M106.41,3.39A.62.62,0,1,0,107,4,.62.62,0,0,0,106.41,3.39Z"/><path class="cls-2" d="M106.41,12.74a.62.62,0,1,0,.61.62A.62.62,0,0,0,106.41,12.74Z"/><path class="cls-1" d="M117.57,0a1.5,1.5,0,0,0-1.5,1.5V17.36h3V1.5A1.5,1.5,0,0,0,117.57,0Z"/><path class="cls-2" d="M117.57,3.39a.62.62,0,1,0,.61.62A.62.62,0,0,0,117.57,3.39Z"/><path class="cls-2" d="M117.57,12.74a.62.62,0,1,0,.61.62A.62.62,0,0,0,117.57,12.74Z"/><path class="cls-1" d="M128.72,0a1.5,1.5,0,0,0-1.5,1.5V17.36h3V1.5A1.5,1.5,0,0,0,128.72,0Z"/><path class="cls-2" d="M128.72,3.39a.62.62,0,0,0,0,1.23.62.62,0,0,0,0-1.23Z"/><path class="cls-2" d="M128.72,12.74a.62.62,0,0,0,0,1.23.62.62,0,0,0,0-1.23Z"/><path class="cls-1" d="M139.88,0a1.5,1.5,0,0,0-1.5,1.5V17.36h3V1.5A1.5,1.5,0,0,0,139.88,0Z"/><path class="cls-2" d="M139.88,3.39a.62.62,0,1,0,.61.62A.61.61,0,0,0,139.88,3.39Z"/><path class="cls-2" d="M139.88,12.74a.62.62,0,1,0,.61.62A.61.61,0,0,0,139.88,12.74Z"/><path class="cls-1" d="M151,0a1.5,1.5,0,0,0-1.5,1.5V17.36h3V1.5A1.5,1.5,0,0,0,151,0Z"/><path class="cls-2" d="M151,3.39a.62.62,0,1,0,.61.62A.61.61,0,0,0,151,3.39Z"/><path class="cls-2" d="M151,12.74a.62.62,0,1,0,.61.62A.61.61,0,0,0,151,12.74Z"/><path class="cls-1" d="M162.2,0a1.5,1.5,0,0,0-1.5,1.5V17.36h3V1.5A1.5,1.5,0,0,0,162.2,0Z"/><path class="cls-2" d="M162.2,3.39a.62.62,0,1,0,.61.62A.61.61,0,0,0,162.2,3.39Z"/><path class="cls-2" d="M162.2,12.74a.62.62,0,1,0,.61.62A.61.61,0,0,0,162.2,12.74Z"/><path class="cls-1" d="M173.36,0a1.5,1.5,0,0,0-1.5,1.5V17.36h3V1.5A1.5,1.5,0,0,0,173.36,0Z"/><path class="cls-2" d="M173.36,3.39A.62.62,0,1,0,174,4,.62.62,0,0,0,173.36,3.39Z"/><path class="cls-2" d="M173.36,12.74a.62.62,0,1,0,.61.62A.62.62,0,0,0,173.36,12.74Z"/><path class="cls-1" d="M184.51,0A1.5,1.5,0,0,0,183,1.5V17.36h3V1.5A1.5,1.5,0,0,0,184.51,0Z"/><path class="cls-2" d="M184.51,3.39a.62.62,0,0,0,0,1.23.62.62,0,0,0,0-1.23Z"/><path class="cls-2" d="M184.51,12.74a.62.62,0,0,0,0,1.23.62.62,0,0,0,0-1.23Z"/><path class="cls-1" d="M195.67,0a1.5,1.5,0,0,0-1.5,1.5V17.36h3V1.5A1.5,1.5,0,0,0,195.67,0Z"/><path class="cls-2" d="M195.67,3.39a.62.62,0,1,0,.61.62A.61.61,0,0,0,195.67,3.39Z"/><path class="cls-2" d="M195.67,12.74a.62.62,0,1,0,.61.62A.61.61,0,0,0,195.67,12.74Z"/><path class="cls-1" d="M206.83,0a1.5,1.5,0,0,0-1.5,1.5V17.36h3V1.5A1.5,1.5,0,0,0,206.83,0Z"/><path class="cls-2" d="M206.83,3.39a.62.62,0,1,0,.61.62A.61.61,0,0,0,206.83,3.39Z"/><path class="cls-2" d="M206.83,12.74a.62.62,0,1,0,.61.62A.61.61,0,0,0,206.83,12.74Z"/><path class="cls-1" d="M218,0a1.5,1.5,0,0,0-1.5,1.5V17.36h3V1.5A1.5,1.5,0,0,0,218,0Z"/><path class="cls-2" d="M218,3.39a.62.62,0,1,0,.61.62A.61.61,0,0,0,218,3.39Z"/><path class="cls-2" d="M218,12.74a.62.62,0,1,0,.61.62A.61.61,0,0,0,218,12.74Z"/><path class="cls-1" d="M229.15,0a1.5,1.5,0,0,0-1.5,1.5V17.36h3V1.5A1.5,1.5,0,0,0,229.15,0Z"/><path class="cls-2" d="M229.15,3.39a.62.62,0,1,0,.61.62A.62.62,0,0,0,229.15,3.39Z"/><path class="cls-2" d="M229.15,12.74a.62.62,0,1,0,.61.62A.62.62,0,0,0,229.15,12.74Z"/><path class="cls-1" d="M240.3,0a1.5,1.5,0,0,0-1.5,1.5V17.36h3V1.5A1.5,1.5,0,0,0,240.3,0Z"/><path class="cls-2" d="M240.3,3.39a.62.62,0,0,0,0,1.23.62.62,0,0,0,0-1.23Z"/><path class="cls-2" d="M240.3,12.74a.62.62,0,0,0,0,1.23.62.62,0,0,0,0-1.23Z"/><path class="cls-1" d="M251.46,0A1.5,1.5,0,0,0,250,1.5V17.36h3V1.5A1.5,1.5,0,0,0,251.46,0Z"/><path class="cls-2" d="M251.46,3.39a.62.62,0,1,0,.61.62A.61.61,0,0,0,251.46,3.39Z"/><path class="cls-2" d="M251.46,12.74a.62.62,0,1,0,.61.62A.61.61,0,0,0,251.46,12.74Z"/><path class="cls-1" d="M262.62,0a1.5,1.5,0,0,0-1.5,1.5V17.36h3V1.5A1.5,1.5,0,0,0,262.62,0Z"/><path class="cls-2" d="M262.62,3.39a.62.62,0,1,0,.61.62A.61.61,0,0,0,262.62,3.39Z"/><path class="cls-2" d="M262.62,12.74a.62.62,0,1,0,.61.62A.61.61,0,0,0,262.62,12.74Z"/></g></g></svg>