<svg xmlns="http://www.w3.org/2000/svg" viewBox="0 0 224.66 235.99"><defs><style>.cls-1{fill:#2e3192;}.cls-2{fill:#00a651;}.cls-3{fill:#ed1c24;}</style></defs><title>gmap</title><g id="Layer_2" data-name="Layer 2"><g id="Layer_1-2" data-name="Layer 1"><path class="cls-1" d="M63,19C30.81,47.37,29.54,98.31,60.6,128.07a50.53,50.53,0,0,1,11.75,16.21c1.32,3,2.9,5.87,4.53,9.14H74q-19.24,0-38.48,0c-8.2,0-13.45,3.68-16.29,11.36q-9,24.5-18,49C-3.06,225.5,4.29,236,16.76,236q95.51,0,191,0a20.39,20.39,0,0,0,3.67-.21c10.66-1.91,16-12.2,11.72-22.48q-10.28-24.51-20.63-49c-3.22-7.61-8.15-10.89-16.41-10.9H148.6c2.23-4.49,4.42-8.53,6.28-12.72a34.79,34.79,0,0,1,8.53-11.25,70.24,70.24,0,0,0,9.78-11c14.74-21,18.41-44,10-68.25-8.24-23.73-24.93-39.36-48.9-46.92-5.15-1.62-10.63-2.23-16-3.3H106.81a8.29,8.29,0,0,1-1.51.42A74,74,0,0,0,63,19ZM19.69,186.44q3.43-9.39,6.91-18.77c1.75-4.73,4.11-6.36,9.18-6.38h5.51L38.15,170q-2.74,7.56-5.51,15.12c-1.07,2.93-2,3.65-5.07,3.7-2.74,0-5.49,0-8.6,0C19.27,187.82,19.44,187.12,19.69,186.44ZM34.1,228.19c-5.84-.12-11.67,0-17.51-.06-6.82,0-10.33-5.06-8-11.5,2.18-6.06,4.47-12.08,6.61-18.15a2.34,2.34,0,0,1,2.68-1.82c3.3.1,6.61.07,9.91,0,6.16-.09,10.07-2.87,12.19-8.68,3-8.28,6.07-16.56,9-24.87a2.3,2.3,0,0,1,2.58-1.88q13.71.12,27.42,0A2.64,2.64,0,0,1,81.73,163c3.56,7.2,7.2,14.37,10.94,21.8-7.61,0-15.2.08-22.79,0-9.95-.13-16.79,4.3-20.68,13.48s-8.1,18.55-12.08,27.86A2.76,2.76,0,0,1,34.1,228.19ZM213.69,210.9c.71,2.18,1.81,4.23,2.59,6.39,1.95,5.46-1.51,10.55-7.31,10.84-.54,0-1.08,0-1.62,0H63.48c2.67-6.1,5.06-11.82,7.73-17.41.49-1,2.05-1.65,3.24-2.21a5.68,5.68,0,0,1,2.27-.11q66.57,0,133.12,0C211.94,208.35,213,208.9,213.69,210.9ZM207,195.14a58.28,58.28,0,0,0,2.22,5.41h-2.91q-64.74,0-129.49-.05c-6.82,0-11.36,2.65-13.89,9.07-2.24,5.71-4.88,11.25-7.26,16.91a2.29,2.29,0,0,1-2.54,1.69c-2.65-.11-5.31,0-8.23,0,.39-1,.64-1.7.94-2.38,3.58-8.23,7.23-16.42,10.72-24.68,2.45-5.79,6.67-8.47,12.92-8.41,10.68.1,21.35-.09,32,.1,3,0,6,1.24,9,1.46a44.93,44.93,0,0,0,7.75-.46c2.72-.28,5.43-1,8.14-1,25.65-.08,51.31,0,77-.1C205.4,192.64,206.44,193.21,207,195.14Zm-11.29-26c-3.49,0-6.78,0-10.08,0a4.11,4.11,0,0,1-4.18-3c-.53-1.5-1-3-1.5-4.58C189,160.77,193.57,160.87,195.72,169.13Zm-25.57-7.78a2.63,2.63,0,0,1,1.82,1.44c.81,1.89,1.33,3.91,2,5.86,1.95,5.37,6,8.28,11.71,8.33,4.52.05,9,0,13.62,0,1.07,2.57,2.11,5,3.23,7.7H132.83c3.8-7.52,7.54-15,11.36-22.37a2.37,2.37,0,0,1,1.77-1C154,161.27,162.09,161.26,170.15,161.35ZM111,7.86c34,0,62.36,23.56,67.5,55.23,3.91,24.12-3.31,44.73-21.27,61.39a40.15,40.15,0,0,0-9,11.81c-6.58,13.43-13.3,26.79-20,40.15-4.42,8.78-12.85,12.22-21.75,8.93-4.5-1.66-7.38-5-9.47-9.24-6.68-13.46-13.47-26.87-20.11-40.36A33.76,33.76,0,0,0,68.79,125C57.44,115.1,50,102.73,47.29,87.89c-4.48-24.26,2.25-45.18,20.12-62.17A64,64,0,0,1,111,7.86Z"/><path class="cls-2" d="M112.58,130.1c30.31.22,55.21-24.43,55.55-55s-24.38-55.47-55-55.76A55.35,55.35,0,0,0,57.37,74.57C57.16,105.05,81.83,129.86,112.58,130.1Zm.17-102.91a47.52,47.52,0,1,1-47.51,47.4A47.6,47.6,0,0,1,112.75,27.19Z"/><path class="cls-3" d="M84.75,95.54q12.41,5.47,24.79,11a7.51,7.51,0,0,0,6.45,0q12.38-5.55,24.78-11a7.54,7.54,0,0,0,4.82-7.63c-.06-4.6,0-9.21,0-13.81,0-3.69,0-7.37,0-11.06,0-1.23,0-2.46,0-3.68a4.43,4.43,0,0,0-2.86-4.52q-13.46-6-26.89-12a7.42,7.42,0,0,0-6.25,0c-8.9,4-17.78,7.93-26.69,11.85a4.64,4.64,0,0,0-3,4.67q0,14.4,0,28.79A7.46,7.46,0,0,0,84.75,95.54Zm53-18.34c0,3.15.06,6.3,0,9.44a2.63,2.63,0,0,1-.94,2c-6.41,3-12.87,5.77-19.32,8.62-.11,0-.28,0-.77-.08,0-7.39,0-14.67,0-22a1.9,1.9,0,0,1,.8-1.44c6.6-3,13.24-6,20.24-9.06ZM105.8,53.05c4.74-2.72,9-2.89,13.82,0,3.72,2.2,7.89,3.64,12.34,5.63-3.66,1.63-6.88,3.09-10.11,4.51-3,1.33-6,3.64-9.06,3.64s-6-2.29-9.05-3.6c-3.26-1.43-6.51-2.9-10.22-4.54C97.92,56.67,102.05,55.2,105.8,53.05Zm-18,12.65a3.59,3.59,0,0,1,.31-.83c3.81,1.69,7.56,3.37,11.32,5,2.66,1.18,5.35,2.29,8,3.57a2.59,2.59,0,0,1,1.33,1.76c.09,6.75.06,13.49.06,20.24,0,.53,0,1.06-.09,1.85a14.71,14.71,0,0,1-1.74-.52c-5.88-2.6-11.76-5.18-17.6-7.87-.68-.31-1.53-1.21-1.53-1.85C87.71,80,87.77,72.83,87.79,65.7Z"/><path d="M145.58,74.08c0,4.6-.05,9.21,0,13.81-.06-4.6,0-9.21,0-13.81,0-3.69,0-7.37,0-11.06C145.56,66.71,145.58,70.39,145.58,74.08Z"/></g></g></svg>