<svg xmlns="http://www.w3.org/2000/svg" viewBox="0 0 278.2 39.83"><defs><style>.cls-1,.cls-2,.cls-3{fill:#eeedf6;}.cls-1{opacity:0.9;}.cls-2{opacity:0.87;}.cls-3{opacity:0.85;}</style></defs><title>jamni_1</title><g id="Layer_2" data-name="Layer 2"><g id="Objects"><path class="cls-1" d="M243.25,29.59c.09.09.13.36.24.42a3.09,3.09,0,0,0,2,.13c.65-.23-.62-1.25-.62-1.25l-.55-.81V26.76s.53-3.14.57-3.43.38-.82.46-1.29a2,2,0,0,1,.58-.94,6.33,6.33,0,0,0,.53-1.05,7.44,7.44,0,0,0-.07,1c0,.2-.26.4-.26.81,0,.09.25.64.31.81a24.63,24.63,0,0,1,.61,3.58,5.32,5.32,0,0,0,.21,1.62c.19.31,1,.71,1.07,1s-.07.12-.1.2a.78.78,0,0,0,.15.6c.16.24,1.76,0,1.8,0s.12-.09.12-.13c0-.28-.54-.77-.65-.91s-.66-.66-.77-.8a1,1,0,0,1-.22-.59c0-.27-.32-1.11-.35-1.29a11.7,11.7,0,0,1-.28-1.89,4.68,4.68,0,0,1,.26-1.42,5.39,5.39,0,0,0,.13-1.14c0-.25.29-.65.52-1.8a25,25,0,0,1,1.12-3.2,5.23,5.23,0,0,1,.58-1c1.4.55,4.55,2.17,5.7,2.28a22,22,0,0,1,3.09.49,16.14,16.14,0,0,0,2.53,0c0,.43-.08.91-.09,1a14.09,14.09,0,0,1-.37,1.56s-.44,1.42-.44,1.5-.26,1.37-.34,2a9,9,0,0,1-.75,2.1,1.68,1.68,0,0,0,0,1.2c.1.14.49.73.45.87s-.09.81-.09.81-.22.37.29.64a1.73,1.73,0,0,0,1.74-.23,21.51,21.51,0,0,1-1.14-2c-.19-.34.07-1.13.18-1.71a9.19,9.19,0,0,1,.6-1.6c.15-.36,2-4.13,2-4.13l0-.09a9.26,9.26,0,0,1,.27,3.06,1.93,1.93,0,0,0,0,.48,4.66,4.66,0,0,1,.18.89c0,.24,0,2.37,0,2.37a.74.74,0,0,1,.12.32c0,.15-.12.24,0,.53a11.46,11.46,0,0,1,.7,1.31c0,.22-.11.47,0,.55s0,.46.12.53a5,5,0,0,0,2.08,0l-1.25-1.85a3.82,3.82,0,0,1-.57-1.95,11.15,11.15,0,0,1,.08-1.69,11,11,0,0,0,.16-1.65,13.76,13.76,0,0,1,.32-2.92,11.53,11.53,0,0,0,.34-1.38c.05-.22-.2-.84,0-1a5.41,5.41,0,0,1,.78-.69c.24-.22.33-.52.43-1.37a10.37,10.37,0,0,1,.24-1.29,6.26,6.26,0,0,0-.08-2c-.12-.41.75-1.23.94-1.59s.95-2.21,1-2.28.73-1.47,1-1.47.54.24.87.31a4.25,4.25,0,0,0,.89.06,4.86,4.86,0,0,0,1.12.48,5,5,0,0,1,.89.24c.11.06.18.48.31.6a.47.47,0,0,0,.38.13,3,3,0,0,0,.54-.12c.19-.06-.09-.24,0-.24s0,.11.15.18a.77.77,0,0,0,.5,0,.25.25,0,0,0,.21-.2,1.23,1.23,0,0,1,.14-.47c.13-.2.26-.44.17-.51a.54.54,0,0,1-.14-.18.9.9,0,0,0-.08-.38,5.17,5.17,0,0,0-.81-1,1.63,1.63,0,0,1-.43-.47,17.76,17.76,0,0,1-1.57-1.84,4.92,4.92,0,0,0-.8-1h0c.48.19.19,0-.23-.48-.22-.23-.25-.28-.31-.31a1.59,1.59,0,0,0,.3-1.17s-.09-.4-.2,0a2.07,2.07,0,0,1-.53.76A8.82,8.82,0,0,0,272.44,0a5.68,5.68,0,0,1-1,1.12,4.51,4.51,0,0,0-.46.52h-.11a2,2,0,0,0-1.11.42C268.09,2.85,261.5,8,261.5,8l0,.11c-.53.1-1.73,1.11-2.3,1.19A21,21,0,0,1,254.08,9c-1-.33-2.72-.77-2.72-.77a4,4,0,0,0-1.93-.36,40.48,40.48,0,0,0-4.49,1.28l0,0a1.13,1.13,0,0,0-1.06.47,4.33,4.33,0,0,0-1.21,2.79c-.13,1.6.4,2.34.33,3.36a30.69,30.69,0,0,1-.14,3.63,33.41,33.41,0,0,0-.2,3.48c0,.9.36-1,.36-1l0,1.78.52-3.27L243.06,24l.49-1,0,.28-.48,1.1.44-.77a16.53,16.53,0,0,1-.45,3,2.56,2.56,0,0,0-.22,1.27c.08.28.54.64.54,1S243.16,29.49,243.25,29.59Z"/><path class="cls-2" d="M56.06,10.85h0a4,4,0,0,0-2,2.85c-.1,1.83.27,4.08.12,5.62a6.9,6.9,0,0,1-.5,2.6l.24-.38-.32.91.59-.8c0,.12,0,.25,0,.4l-.15.51.14-.18-.16,4c0,1.12.07,1.09.28,1.23s.17,1,.17,1l.53.07c.52.07,1.26,0,1.16-.27a10.22,10.22,0,0,0-.84-1.24V24.85a13.56,13.56,0,0,1,.61-2.21c.21-.28,1.17-1.93,1.17-1.93a3.85,3.85,0,0,1,.44-.6c0,.13,0,.21,0,.24s-.28,1.79-.39,2.57c0,.13.28.43.28.43s.58,1.47.76,2a8.32,8.32,0,0,1,.72,1.81c.18.89.37,1.5.53,1.45s.38.51.58.57,1.24,0,1.32-.32l-.78-.93-.34-.84a9.16,9.16,0,0,1-1-2.72c-.32-1.64,0-1.26,0-1.59s0-1,0-1l.82-3.09A7.14,7.14,0,0,0,61,18a2.76,2.76,0,0,0,.74.46,10.31,10.31,0,0,0,2.68.75,26.28,26.28,0,0,0,4.45-.54l.2,0a23.86,23.86,0,0,1,0,3.48c-.17.37-.15.49.07.66a28.15,28.15,0,0,1,.46,3.62c.11.59-.08.87,0,1a5.36,5.36,0,0,1,.34.6,4.4,4.4,0,0,0,.92.51h0a1.22,1.22,0,0,1,.31.45c.15.44.75.28,1.36.28s0-.9,0-.9l-.69-1.87a6.21,6.21,0,0,1,.15-2,3.8,3.8,0,0,0,.13-1.61,33.73,33.73,0,0,1,.2-3.41A3.36,3.36,0,0,1,73.1,18c.61-.61.33-.84.68-1.41s1-1.4,1-1.4l1.75-1.67s1-.89.92-.75.94.51,1.84,1.46l.7.76s.43,1,.77.86a2.7,2.7,0,0,0,1.44-1.1c.33-.65-.68-2.65-.68-3.72a4.6,4.6,0,0,0-.15-1.75A4,4,0,0,0,80.2,7.62h0c.45-.11,1.82-.68,1.9-1.18A7.64,7.64,0,0,1,82.6,5s.14-.32-1,.63h0c.18-.33.14-.82-.67-.56a13.52,13.52,0,0,0-1.88,1.32l.42-.73h-.07s-.06,0-.06,0l-.06.09,0,0h0l-.07,0a.18.18,0,0,1,0-.06l-.39.06-.06,0v0l-.05-.07h-.07v.08l-.15,0,0,0a1.59,1.59,0,0,0-.13-.13l0,0a2,2,0,0,1-.1.21s0-.13-.09-.16l0-.22L78,5.75v0a.84.84,0,0,1-.11-.18l-.06.13-.06.15,0,0-.06.33A.93.93,0,0,1,77.47,6l-.14.14a.14.14,0,0,1,0,0l-.11.33A2.6,2.6,0,0,1,76.93,6l-.08.17,0,0-.21.06a.84.84,0,0,0,0,.1l-.32-.09s.12.13.09.22l-.33-.05s.12,0,.11.09L76,6.42s0,.07,0,.1l0,0-.07.13a1.07,1.07,0,0,0-.29-.18l0,.13-.49.18.08.12-.16,0,.21.08a1.41,1.41,0,0,1-.24,0L75,7V7h-.15l.07.22L74.76,7s-.28.19-.27.25,0-.2,0-.2l-.41.42-.3-.08a.82.82,0,0,0,0,.11l0,0a1.3,1.3,0,0,0,0,.17l-.1-.09-.15.1s-.06,0-.06,0l0,.15a.25.25,0,0,1-.08-.1l-.09.14-.09-.05,0,.11a1.47,1.47,0,0,1-.33,0v.09l-.06,0,0,.12-.22,0,0,.1-.21,0v.07l.06,0-.58.12.06.08a.78.78,0,0,0-.16.06v.06h0a1.77,1.77,0,0,0-.27,0V8.9L71.2,9l.13.11c-.15.05-.31.05-.47.1a0,0,0,0,0,0,.07h0a.82.82,0,0,0-.19.09s0,.05,0,.06h0l0,0a0,0,0,0,0,0,.06h0l0,0s0,0,0,0a.49.49,0,0,0,.32.32h0a1.49,1.49,0,0,1-.47.13,0,0,0,0,1,0,0c-.8,0-1.93,0-1.93,0l-3.17.36-2.06-.15s-1.59-.15-3.56-.44A4.67,4.67,0,0,0,56.06,10.85ZM70.44,23.67a7.17,7.17,0,0,1,.41,2.73A5.84,5.84,0,0,1,70.44,23.67Zm-14.84-4a1,1,0,0,1-.33.45c.09-.62.16-1.16.16-1.26a40,40,0,0,1-.86-4,3.54,3.54,0,0,1,.23-.83v0a4.37,4.37,0,0,0,1.26,2.51A15.19,15.19,0,0,1,55.6,19.72Z"/><path class="cls-2" d="M181.16,15.54c-.34.15-.9.59-1.68,1a4.56,4.56,0,0,0-1.36,1.93,8,8,0,0,1-1.06.27c-.31,0-1.32,1.22-1.49,1.42a16.18,16.18,0,0,0-.71,2.09l.37-.53-.37.81.17-.14c.18,0,1.07-.2,1.4-.32s.7-1.31.76-1.54.54-.92,1-1l.94,2.38.17.42,0,2.49a4.75,4.75,0,0,0-.48,1.06,2.61,2.61,0,0,0,.16.67c0,2.32-.18,1.61-.09,2.85,0,.08.3.06.3.06a8.91,8.91,0,0,0,.85,1.77c.25.19.59.05.76.16s.88,0,.4-.49c-1.85-2-.69-2-1-2.64a3.3,3.3,0,0,1,.23-2.34l.39-.67c0,.1,0,.17,0,.17s-.28,1.9-.43,2.82c0,.08.29.09.29.09a12.6,12.6,0,0,0,.76,2.24c.22.21.45-.26.61-.13s.87.14.45-.44c-1.6-2.21-.45-2-.7-2.74a3.27,3.27,0,0,1,.52-2.3l1-1.31a1.4,1.4,0,0,0,.1-.16,6.68,6.68,0,0,0,2,.52,17.86,17.86,0,0,1,2.39-.16c.09,0,.14,0,.13.06-.06.2-.26,2.44-.27,3a20.11,20.11,0,0,1-.63,2.77l.14.08s.31,1.4.63,1.6c.14.09.33-.09.33-.09h.49a1.79,1.79,0,0,0-.25-.91,2.71,2.71,0,0,1-.13-1.82c.15-.7.79-1.56.77-1.82a13.12,13.12,0,0,1,.54-1.89h.1c.12.68.28,1.46.36,1.77a19.82,19.82,0,0,1,.14,2.83l.16,0s.25,1.11.61,1.22c.16.05.29-.18.29-.18l.9,0a1.87,1.87,0,0,0-.49-.82,2.68,2.68,0,0,1-.61-1.71c-.05-.72.34-1.72.24-2a5.91,5.91,0,0,1,0-1.19l.53,0c.22-.06,1.37-.92,2.1-.94s1.45.59,2.54.91S198,26.71,198,26.71a3.17,3.17,0,0,0-1.18.41c-.7.39-.42,1.46-.42,1.46l.19-.51.09.59L197,28s0,.31,0,.56a1.85,1.85,0,0,1,1.07-1c.28-.06.53.2.76.22s.25.37.5.73.36.15.36.15h.45c-.09,0,.08-.34.08-.34l.34.14a3.74,3.74,0,0,0,.53-.33,1,1,0,0,0,.14-.39s-.13-1.65-.1-2,.35-1.62.35-1.62-.25-.64-.48-.78a5.83,5.83,0,0,0-.1-.73c0-.08,0-.16.08-.25.2-.59.2-.73,0-.7a1,1,0,0,0-.26.14c-.37-1.42-.94-2.43-.79-1.8.06.25.16.9.25,1.58a4,4,0,0,0-.76-.66s0,.62.19.65.27.52.38.78l0,0-.23.17a2.2,2.2,0,0,1-1.09,0,27.43,27.43,0,0,1-4.9-3.49A10.06,10.06,0,0,0,192,17.37c-.55-.51-.95-.31-.95-.31a13.55,13.55,0,0,0-1.85-.55,6.18,6.18,0,0,1-2.28-.4A23.52,23.52,0,0,0,181.16,15.54Z"/><path class="cls-2" d="M151.55,8.51a.26.26,0,0,0-.17,0c-.33.1-6.2.62-6.62.62s-4.07-.06-4.46-.19a5.3,5.3,0,0,0-1.07,0l-2-.11a28.59,28.59,0,0,0-3.6-.19l-1.29-.07c-1.87-.34-2.76.57-4.55.12-1.33-.34-2.18-.61-2.58-.73.1-.31,0-.72-.14-.55a.92.92,0,0,1-.49.18l-.35-.26A7.28,7.28,0,0,0,125,6.16a1.12,1.12,0,0,0-.4-.93c-.11-.08-.46-.22-.53-.1s.29.51.26.76-.81.59-1.09.73l-.06,0a1.25,1.25,0,0,0-.51-.2,8.46,8.46,0,0,0-1.08,0h.13l-.49.26H121a5.46,5.46,0,0,1-.73-.54c-.19-.16.38-.59.27-.76s-.42,0-.54.1a1.13,1.13,0,0,0-.39.93,6.44,6.44,0,0,0,.85,1.27l-.08.08a2.36,2.36,0,0,0-.39-.2c-.49-.19-.62-.13-.91-.42s-.59-.17-.59,0a1.17,1.17,0,0,0,0,1.14,1.31,1.31,0,0,0,.91.69,4,4,0,0,1,0,1.31,9.78,9.78,0,0,1-1.6,2.53,1.06,1.06,0,0,0-.17,1.08c0,.19.79.72.79.72s.69.33.89.39a2.13,2.13,0,0,0,1.21-.36c.1-.16.59-.06.82,0a.78.78,0,0,0,.75.1c.43-.13.62-.29.75-.29s-.09,0,.27.13.55,0,.59.13,0,.43.13.43a2.45,2.45,0,0,1,.68.16c.68.35,1,.88,1.41,2.69a11.72,11.72,0,0,0,1.64,4,3.17,3.17,0,0,0,2.3,1.43,5.28,5.28,0,0,1,0,.54,6.21,6.21,0,0,0-.16,1.47c.06.46.39,1.31.36,1.48a7.16,7.16,0,0,1-1.18,3.44c-1,1.11-.77.79-1,1.11a4.16,4.16,0,0,0,2.17.1l.32-1.05c.17,0,.46.4.65.3l.2-1.41.1-1.71a8.55,8.55,0,0,1,0-1.34s.72-1.59,1.38-3.24l.62-.2.4-.14a4.9,4.9,0,0,1,.26,1,4.48,4.48,0,0,0,.25,1.43c.12.24,1.13,1.69,1.13,1.69s.6,1.8.17,2.46A5.25,5.25,0,0,0,134.7,31h2.13l.06-.79v-.39c0-.27.45,0,.52-.15a22.51,22.51,0,0,1-.89-2.63c-.07-.74-.31-3.54-.41-4.74,2.07-.18,3.16.6,5,.83,2.59.33,1.58.69,2,.59s4.82-2,5.12-2.13h0c.28-.09-.23,0,.29.33.3.19.65.38.89.57s.3.29.29.45c0,.36-.3,1.28-.13,1.47a.08.08,0,0,0,.09,0l-.11,1.91a8.78,8.78,0,0,1-1.83,3.22c-1.49,1.28-1.56,1.82-1.56,1.82h2.26s.08-1,.37-.93.37.32.44.1,2.66-5.48,3.32-5.83c.45-.23.2-.64,0-1.12.26-.12.53-.26.57-.38l0,0c.11.23.22.44.31.59.39.66.49.85.49.85s.69,1.84.79,2.07.23,3.63-.62,4.29-.89,1.11-.89,1.11h2.36s.3-.49.26-.72a2.53,2.53,0,0,0-.13-.49h.43s.55-5.67.52-6.45.44.09.22-.56-.58-1.21-.87-2.1a9.66,9.66,0,0,1-.33-1.89,3.12,3.12,0,0,0,.26-.45,45.2,45.2,0,0,0,.86-5.66,3.51,3.51,0,0,1,.14,1.28,14.92,14.92,0,0,0,.52,3.64,2.56,2.56,0,0,1-.19,1.57l.64,2.31.09,1.28.35-.49,0,.32.53.71-.47-2.07.22.84.25.94a9.56,9.56,0,0,1,0-2.39,9.74,9.74,0,0,0-.79-4.2c-.49-1.28-.29-1.91-.39-4.42a4.75,4.75,0,0,0-2-4.1C155.06,8.32,152.29,8.46,151.55,8.51Z"/><path class="cls-2" d="M211.16,29.8a.53.53,0,0,1-.53.34c-.28,0-.43-.91-.43-.91a.23.23,0,0,1-.18-.32,11.07,11.07,0,0,0,.78-3,9.6,9.6,0,0,0,0-1.29,2.65,2.65,0,0,1-.18-.75,3.4,3.4,0,0,1,0-.58h0a24.08,24.08,0,0,1,1.05-5.95,6.49,6.49,0,0,1,3.06-1.6c1.15-.19,1.92,0,3.39-.17s2.58.31,3.14.17a23.24,23.24,0,0,1,2.59-.21c.4,0,1.47.35,1.63-.08s.6-.08,1-.88A1.9,1.9,0,0,1,228,13.4a3.8,3.8,0,0,1,.78.14l.21.06s1.51-.44,2,0a17.54,17.54,0,0,1,1.57,1.31s1,1,1.06,1.47a1.29,1.29,0,0,1-.32.94,1,1,0,0,1-.72,0c-.1-.06-.24-.42-.24-.42s-1,.21-1.27,0c-.08-.06-.26-.31-.31,0a1.74,1.74,0,0,0,0,.42c.21,3.4-1.51,4.63-1.87,5S228,24,227.48,24.36s-1.08-.18-1.08-.18l-.15.13-.27.22v0c0,.52-.05,1.62-.1,1.86s0,1.77,0,1.91.66.92.49,1.42c-.05.14-.73,0-.73,0s-.17-.56-.2-.69,0,0-.16,0-.18-.11-.09-1.12c0-.33,0-.82,0-1.32-.07.22-.12.45-.12.45v2.14a.48.48,0,0,1,.23.28,4.63,4.63,0,0,1,0,.89,4.48,4.48,0,0,1-.82,0,5.33,5.33,0,0,1,0-1.13c0-.09-.34.15-.31-.09s.16-.65.16-.86,0-2.08,0-3.09a1.48,1.48,0,0,1-.52-.06c-.32-.11-.32-1.23-.32-1.23s-.16-.24-1.58.88-4.47-.12-4.95-.24.48-1.87-.19-.52a4.84,4.84,0,0,1-2.36,2.12l0,.09.06.35c.09.47,1.22,2.39,1.22,2.61v.42s.75.55.66.77-.83.26-.83.26l-.18-.66s-.25-.23-.34-.22-1.61-3-1.61-3l-.14-.34v-.05c-.4-.14-.71-.77-.93-1.45-.25.61-.46,1.11-.53,1.21a6.84,6.84,0,0,0-.42.72s-.32,2.3-.41,2.37S211.18,29.64,211.16,29.8Z"/><path class="cls-3" d="M42.87,19.94c.7,0,2.54-.7,2.76-.67s.33.35.47.41c.44.16,1.14-.3,1.77-.52s.77-1.13.77-1.24-2.35-3.6-2.46-3.75-.26-1.32-.37-1.36a2.48,2.48,0,0,1-.34-.33c.83-.64.83-1.09.83-1.09s.44-1-.55,0A4.21,4.21,0,0,1,45,12l-.58-.57C46,9.62,45.6,8.8,45.6,8.8s0-1-.46.2a3.63,3.63,0,0,1-1.44,1.79A3.68,3.68,0,0,0,42.36,10a1.32,1.32,0,0,0-1.38.4s-4.75-2.82-5.27-2.91a29.62,29.62,0,0,0-6.49-.76c-4-.07-6.57,1.36-7.64,1.51s-10.31-.81-11-.48a1.19,1.19,0,0,1-.28.1v0a1.42,1.42,0,0,0-1.1-.66c-.77,0-3.18-.22-3.65,3.14a13.57,13.57,0,0,0-.17,2.78,7.83,7.83,0,0,0,.16,2,25.68,25.68,0,0,0,.3,4.07c.11,1.26-.31,4.35-.29,6a6.53,6.53,0,0,0,.13,1.24c.23,1.21.67,2.27.71,2.56s-.06-.94-.16-2.05C6.1,26,6,25,6,25a15.11,15.11,0,0,0,.55,1.49c0-.17,0-1.71,0-2.26l.14-.64a.54.54,0,0,0,0,.1,57.52,57.52,0,0,1,.4,6.38l.22.52.26-.15a.48.48,0,0,1,0,.41,1.45,1.45,0,0,0,0,.58l.22.33a3.47,3.47,0,0,0,1.73,0c.77-.25.44-.25-.44-1.39s-.15-5.66.26-6.5a20.46,20.46,0,0,1,1.2-1.75l.28,1.62s-.77.22-.05,1.54a38,38,0,0,1,1.59,3.75v.71l.36.11v.88h2l-1-1.43.27-.49s-1-2.59-1.21-3.42A3.26,3.26,0,0,1,13.6,23a10.62,10.62,0,0,0,.61-3.52c.66.21,1.41.53,2.14.84l1.71,1.67a9.08,9.08,0,0,1,0,.91.33.33,0,0,0,.06.2,3.84,3.84,0,0,0,.33.52c0,.66,0,1.65,0,1.65v-.36a3.8,3.8,0,0,1,.13-.94l0,.25v0c0,.12,0,1.19,0,1.19l.13-.55.13.7.2-.95L19,24.26l.3-.88s.2-.46.3-.76a.56.56,0,0,0,0-.22c0-.16,0-1,0-1h0a.48.48,0,0,1,.15-.11c1.08,0,2.22-.22,3.69-.2a12.09,12.09,0,0,1,2.71.53h0s.06,4.24.06,5.18a24,24,0,0,1-.6,2.62c.08.11.48-.17.51.09l0,.38.13.76,2.06-.21A5,5,0,0,0,27.49,29c-.48-.6-.07-2.39-.07-2.39s.84-1.5.93-1.75a1,1,0,0,0,.06-.24c.27.81.48,1.39.55,1.52a15.8,15.8,0,0,1,.66,3.8.4.4,0,0,0,.33.49s.17-.33,0,.33,1.71,1.11,2,.89-.44-1.55-.77-2.81-.38-3.41-.05-3.91a5.19,5.19,0,0,0,.21-1.67,1.71,1.71,0,0,0,.39.09,22.44,22.44,0,0,0,2.68-.44,3.27,3.27,0,0,0,2.13-1.4c.85-.91.88-.44,1.4-.88s1.13,0,1.72-.69S42.17,20,42.87,19.94ZM7.23,22.14a1.76,1.76,0,0,1-.42.67c.05-.31.11-.61.14-.86a12.72,12.72,0,0,0-.66-3.05,8.92,8.92,0,0,1,0-.92c.27.88,1.18,3.42,1.18,3.42ZM18.9,24.47a.27.27,0,0,1,0-.13Z"/><path class="cls-2" d="M120,24.75a2.86,2.86,0,0,1-.54-.62,8.54,8.54,0,0,1-.75-1.24,5.26,5.26,0,0,0-.22-1.06l0,0c.11-.29.78-.91.94-1.32s.22-1,0-1a1.66,1.66,0,0,0-.51.29c0-.14,0-.24-.14-.24a5.6,5.6,0,0,0-1.15.79,1.45,1.45,0,0,0-.89-.74c-1-.16-1.68-1.78-3.4-2.42a40,40,0,0,0-6.37-1.4c-.37,0-6.78-1.06-8.1-.54l-1.46.51a6.93,6.93,0,0,0-1,.88l-.07-.11c.22-.07.3-.26.26-.32a.54.54,0,0,0-.41-.16c-.22,0-.61.45-.42.74a.63.63,0,0,0,.32.22,2.66,2.66,0,0,0-.68,1.61,10.17,10.17,0,0,0,.7,3.77,5.64,5.64,0,0,1,.56,2.29l0,.4a4.83,4.83,0,0,1,.24.46c.08.19.22.33,0,1.35s.35.86.6,1,.35,0,.35,0l-.19-.38.32.38s.27,0,.11-.24a11.88,11.88,0,0,1,0-2.24,1.86,1.86,0,0,1,.46-1.21c.24-.35-.11-.7,0-.94a1.38,1.38,0,0,1,.19-.28A3,3,0,0,1,98.57,24c0,.07,1,2.71,1,3s1.13.46,1.13.46H101l-.05-.08-.2-.33s.34.43.35.19-1.1-1.32-1-2.45c.09-.74.4-1.59.55-2.4l2.9.8.65.17c.25-.08,3.15.08,4,0a3.8,3.8,0,0,1,.93.08c0,.63.1,1.46.1,1.92a8,8,0,0,1-.17,1.59l0,.13a2.39,2.39,0,0,0,.89.38c.37,0,.16-.25.16-.25l.2.16a.89.89,0,0,0,0-.72,1.35,1.35,0,0,1,.13-.54,1,1,0,0,0,.28.38c.32.16-.08.72,0,1s.92.54,1.05.54,0-.23,0-.33c0,.1.12.33.2.27s-.22-1.88-.22-2.1a4.7,4.7,0,0,1,.35-1.48l0-.1a4,4,0,0,1,.5.21,1.06,1.06,0,0,0,1.12-.09.39.39,0,0,0,.09-.08c-.16.44.73.44,1,.76s.52.11.73.35a4.84,4.84,0,0,0,1.78.67c.35,0,.62,0,1.08,0a1.5,1.5,0,0,0,.83-.29s.14.54.38.08c.15-.28.68-1,.68-1A1.31,1.31,0,0,1,120,24.75Zm-10.8-2.19h0l0-.09Z"/><path class="cls-2" d="M85.08,27.47s.11-.62.67-.52a4.52,4.52,0,0,0,1.74-.36l-.78-.37v-.16l-.44-.13-2.34-1.69.52.11a2.85,2.85,0,0,0-.41-.5,8.57,8.57,0,0,0-4-.91c-1.56.13-1.23-.91-1.23-.91l.3-1.93a2.28,2.28,0,0,0-.37-1.79,1.54,1.54,0,0,0-1.52-.53,2.49,2.49,0,0,0-.52.29c-.48.31-1.1.78-1.1.78.08.29.78.09,1.21.18a.23.23,0,0,1,.11,0c.1,0,.32,0,.41,0a1.23,1.23,0,0,1,.44,1.7,9.29,9.29,0,0,0-1,3.47c-.07,1.17,1.12,1.92,1.36,2.34s1,1.25,1.39,2a2,2,0,0,0,.71.69l0,.21a1.42,1.42,0,0,1-.6,0c-.21-.09-.5,0-.52.14s-.44,0-.43.29c0,.07,1.64.11,1.89.14s.28-.05.35-.14-.2.06-.32-.14a.5.5,0,0,1,0-.31c.31.15.59.25.73.31a.3.3,0,0,0,.21,0c0,.06.2,0,.35,0a5.66,5.66,0,0,0,1.34.17c.25-.06.16-.26.28-.46s.06.11.23,0-.17-.18-.4-.4a.2.2,0,0,1-.06-.07,2.63,2.63,0,0,0,1-.13C84.6,28.69,85.08,27.47,85.08,27.47Zm-2.46,2c-.13,0-.28-.05-.43-.13a3.72,3.72,0,0,1,.38-.27.56.56,0,0,1,.18,0C82.77,29.24,82.75,29.42,82.62,29.48Z"/><path class="cls-2" d="M170.53,23.79s0,0,0,0,0-.05.09-.13,0-.2-.09-.37-.25-.25-.19-.41-.2-.53-.2-.61S170,22,170,21.81s-.19-.44-.09-.52.3.05.34.13.33.87.38.83a4.91,4.91,0,0,0-.27-1.21.35.35,0,0,0-.31-.25,1.67,1.67,0,0,0-.2-.31c-.12-.15-.42-.22-.81,0s-.35.94-.35,1a1.82,1.82,0,0,0,.31.5c.14.14.22.31.12.31l-.05,0a2.36,2.36,0,0,0-.35.33l-.25.2s-2-.42-2.61-.51a6.16,6.16,0,0,0-.47-1.31c-.11,0-.19.13-.19.13s-.38-1.22-.91-1.14c-.22,0,0-.24-.3-.57-.13-.13-.48-.11-.61-.12s-.42-.45-.67-.44-.25.31-.25.31-.69-.31-.93.06-.06.46-.06.46a.46.46,0,0,0-.54-.08c-.26.12,0,.56-.13.56s-.46,0-.5.2a.48.48,0,0,0,.06.38.81.81,0,0,0-.39.64c0,.16.14.65.16.78s-.2.42-.17.6.34.45.34.45-.17.5-.11.59a4,4,0,0,0,.3.33s0,.55.09.63.5.1.58.23l-.13.85c0,.22.4.52.47.53s.07.27,0,.38.11.72.51.69a1.07,1.07,0,0,0,.58-.19s0,.12.1.21a2.38,2.38,0,0,1-.2.95c-.31.62.68-.19.16.28a1.2,1.2,0,0,0-.38,1.13,1,1,0,0,0,.18.36s0,.19.14.1a1,1,0,0,0,.28-.34,1.37,1.37,0,0,0-.13.43c0,.15.07.25.11.25s.1-.1.29-.16a2.35,2.35,0,0,0,.45-.25s0,.27.28.16a.56.56,0,0,0,.3-.27s0,.2.19.18a15.27,15.27,0,0,0,1.46-1.39.83.83,0,0,0,.28.1.19.19,0,0,1,.1,0c0,.89-.09,1.12-.16,1.15s-.29,0-.25.11a.14.14,0,0,0,.19.12l.31.64c.63.06.74.36,1.16.09,0,0,0,0,0,0,.42.07.33.17.7-.07.05,0,0-.34.06-.35s0-.08,0-.08-.57-.19-.66-.38a4.12,4.12,0,0,1,0-1,.7.7,0,0,0,.19.1c.07,0,.16-.27.16-.27h.58c.12,0,.54-.28.69-.24s.76-.28.84-.29a.43.43,0,0,1,.17,0s0-.13.22-.19.14-.38.14-.38l.16.1s0-.13.14-.11.17-.16.17-.16-.1-.28,0-.3a.44.44,0,0,0,.15-.09s-.09-.43.19-.28.13,1.06.44.78,0-1-.12-2.21A2.69,2.69,0,0,0,170.53,23.79ZM167,29.06c0,.84-.09,1.06-.17,1.09s-.09,0-.15,0a5.56,5.56,0,0,1,0-1A.6.6,0,0,1,167,29.06Z"/><path class="cls-2" d="M70,27.62c-1-.19-2-.35-3-.45-4.38-.43-7.88,1-12.09,1.42-5.33.49-10.43-1.25-15.55-.83A55.66,55.66,0,0,0,28,29.7a15.5,15.5,0,0,1-5.32.41C15.29,29.78,8.12,29,.66,29H0v10.8H278.2V29c0-.75-10.41.93-11.51,1-3.39.11-6.78-1.44-10.11-2-4.31-.79-8.62-.83-12.94-1.47-2-.3-4.15-1.05-6.12-1.17a65.76,65.76,0,0,0-17.3,1.46c-4.95,1-9.92,1.55-14.71,3.11-3.5,1.14-6.21,1.19-9.93,1.19-3.39,0-4.83-.89-7.81-1.88-2.2-.73-4.2-.05-6.35.24-3.92.54-7.82.32-11.75.54-3.42.19-6.52,1.62-9.9,2-6.38.68-13.33-1.94-19.45-3.69s-12.57-1.69-19.12-1.86c-3.89-.1-7.88.77-11.67.56-2.81-.15-5.42-.61-8.36-.3-5.48.57-10.75,2.3-16.08,3C80.08,30.4,75,28.58,70,27.62Z"/></g></g></svg>